<?xml version="1.0" encoding="utf-8"?>
<!-- Generated by IcoMoon.io -->
<!DOCTYPE svg PUBLIC "-//W3C//DTD SVG 1.1//EN" "http://www.w3.org/Graphics/SVG/1.1/DTD/svg11.dtd">
<svg version="1.1" xmlns="http://www.w3.org/2000/svg" xmlns:xlink="http://www.w3.org/1999/xlink" width="50" height="50" viewBox="0 0 50 50">
<g>
</g>
	<path d="M15.625 18.75h6.25v6.25h-6.25zM25 18.75h6.25v6.25h-6.25zM34.375 18.75h6.25v6.25h-6.25zM6.25 37.5h6.25v6.25h-6.25zM15.625 37.5h6.25v6.25h-6.25zM25 37.5h6.25v6.25h-6.25zM15.625 28.125h6.25v6.25h-6.25zM25 28.125h6.25v6.25h-6.25zM34.375 28.125h6.25v6.25h-6.25zM6.25 28.125h6.25v6.25h-6.25zM40.625 0v3.125h-6.25v-3.125h-21.875v3.125h-6.25v-3.125h-6.25v50h46.875v-50h-6.25zM43.75 46.875h-40.625v-34.375h40.625v34.375z" fill="#000000" />
</svg>
