<?xml version="1.0" encoding="utf-8"?>
<!-- Generated by IcoMoon.io -->
<!DOCTYPE svg PUBLIC "-//W3C//DTD SVG 1.1//EN" "http://www.w3.org/Graphics/SVG/1.1/DTD/svg11.dtd">
<svg version="1.1" xmlns="http://www.w3.org/2000/svg" xmlns:xlink="http://www.w3.org/1999/xlink" width="46" height="50" viewBox="0 0 46 50">
<g>
</g>
	<path d="M45.201 11.384q-1.869 2.734-4.52 4.66 0.028 0.391 0.028 1.172 0 3.627-1.060 7.241t-3.223 6.934-5.148 5.873-7.199 4.074-9.012 1.521q-7.561 0-13.839-4.046 0.977 0.112 2.176 0.112 6.278 0 11.189-3.85-2.93-0.056-5.246-1.8t-3.181-4.45q0.921 0.14 1.702 0.14 1.2 0 2.372-0.307-3.125-0.642-5.176-3.111t-2.051-5.734v-0.112q1.897 1.060 4.074 1.144-1.842-1.228-2.93-3.209t-1.088-4.297q0-2.455 1.228-4.548 3.376 4.157 8.217 6.655t10.366 2.776q-0.223-1.060-0.223-2.065 0-3.739 2.637-6.376t6.376-2.637q3.906 0 6.585 2.846 3.041-0.586 5.72-2.176-1.032 3.209-3.962 4.967 2.595-0.279 5.19-1.395z" fill="#000000" />
</svg>
