<?xml version="1.0" encoding="utf-8"?>
<!-- Generator: Adobe Illustrator 16.0.0, SVG Export Plug-In . SVG Version: 6.00 Build 0)  -->
<!DOCTYPE svg PUBLIC "-//W3C//DTD SVG 1.1//EN" "http://www.w3.org/Graphics/SVG/1.1/DTD/svg11.dtd">
<svg version="1.1" xmlns="http://www.w3.org/2000/svg" xmlns:xlink="http://www.w3.org/1999/xlink" x="0px" y="0px"
	 width="261.511px" height="106.229px" viewBox="0 0 261.511 106.229" enable-background="new 0 0 261.511 106.229"
	 xml:space="preserve">
<g id="Layer_2">
</g>
<g id="Layer_1">
	<g>
		<path d="M117.299,79.58l0.773-0.107l3.645-9.417h1.21l3.581,9.417l0.767,0.107v0.902h-2.994V79.58l0.788-0.136l-0.688-1.92h-4.175
			l-0.709,1.92l0.788,0.136v0.902h-2.986V79.58z M120.644,76.343h3.308l-1.618-4.476h-0.043L120.644,76.343z"/>
		<path d="M138.954,70.056v0.909l-1.167,0.201v9.316h-1.411l-5.013-8.049l-0.043,0.014v6.933l1.167,0.2v0.902h-3.746V79.58
			l1.167-0.2v-8.214l-1.167-0.201v-0.909h1.167h1.411l5.013,8.042l0.043-0.015v-6.917l-1.167-0.201v-0.909h2.578H138.954z"/>
		<path d="M140.493,70.965v-0.909h3.745v0.909l-1.168,0.201v8.214l1.168,0.2v0.902h-3.745V79.58l1.167-0.2v-8.214L140.493,70.965z"
			/>
		<path d="M156.019,72.133l-0.036-0.008l-3.373,8.357h-0.938l-3.372-8.35l-0.036,0.007l0.144,4.218v3.022l1.167,0.2v0.902h-3.745
			V79.58l1.167-0.2v-8.214l-1.167-0.201v-0.909h1.167h1.805l3.322,8.472h0.043l3.316-8.472h2.979v0.909l-1.167,0.201v8.214
			l1.167,0.2v0.902h-3.745V79.58l1.167-0.2v-3.022L156.019,72.133z"/>
		<path d="M159.941,79.58l0.773-0.107l3.646-9.417h1.21l3.581,9.417l0.766,0.107v0.902h-2.993V79.58l0.788-0.136l-0.688-1.92h-4.175
			l-0.709,1.92l0.787,0.136v0.902h-2.986V79.58z M163.286,76.343h3.309l-1.619-4.476h-0.043L163.286,76.343z"/>
		<path d="M171.385,80.482V79.58l1.167-0.2v-8.214l-1.167-0.201v-0.909h1.167h1.411h1.167v0.909l-1.167,0.201v8.214h3.623
			l0.107-1.196h1.203v2.299H171.385z"/>
		<path d="M184.79,70.965v-0.909h3.745v0.909l-1.167,0.201v3.602h5.056v-3.602l-1.168-0.201v-0.909h1.168h1.41h1.168v0.909
			l-1.168,0.201v8.214l1.168,0.2v0.902h-3.746V79.58l1.168-0.2v-3.502h-5.056v3.502l1.167,0.2v0.902h-3.745V79.58l1.167-0.2v-8.214
			L184.79,70.965z"/>
		<path d="M205.929,75.348c0,1.519-0.437,2.778-1.308,3.781s-1.999,1.504-3.384,1.504c-1.346,0-2.439-0.501-3.279-1.504
			c-0.841-1.003-1.261-2.263-1.261-3.781v-0.15c0-1.513,0.42-2.773,1.261-3.781c0.84-1.007,1.934-1.511,3.279-1.511
			c1.385,0,2.513,0.504,3.384,1.511c0.871,1.008,1.308,2.269,1.308,3.781V75.348z M204.518,75.184c0-1.213-0.29-2.202-0.87-2.969
			s-1.383-1.149-2.41-1.149c-0.983,0-1.75,0.385-2.302,1.153s-0.827,1.757-0.827,2.965v0.164c0,1.223,0.275,2.217,0.827,2.982
			c0.552,0.767,1.318,1.149,2.302,1.149c1.041,0,1.848-0.382,2.421-1.146s0.859-1.759,0.859-2.986V75.184z"/>
		<path d="M215.123,73.135h-1.067l-0.265-1.489c-0.215-0.182-0.502-0.332-0.859-0.451c-0.358-0.119-0.773-0.179-1.246-0.179
			c-0.75,0-1.325,0.158-1.726,0.476c-0.401,0.318-0.602,0.732-0.602,1.243c0,0.453,0.204,0.832,0.612,1.135s1.067,0.569,1.979,0.799
			c1.099,0.271,1.933,0.673,2.503,1.203c0.57,0.529,0.855,1.186,0.855,1.969c0,0.841-0.342,1.516-1.027,2.026
			c-0.686,0.512-1.581,0.767-2.689,0.767c-0.802,0-1.514-0.132-2.137-0.394c-0.623-0.263-1.131-0.606-1.522-1.031v-1.941h1.061
			l0.271,1.497c0.272,0.225,0.597,0.408,0.975,0.552c0.377,0.143,0.828,0.215,1.353,0.215c0.712,0,1.274-0.15,1.687-0.451
			c0.413-0.301,0.62-0.709,0.62-1.225c0-0.478-0.18-0.878-0.537-1.2c-0.358-0.322-0.991-0.593-1.897-0.812
			c-1.104-0.263-1.965-0.649-2.586-1.16c-0.62-0.511-0.931-1.152-0.931-1.926c0-0.816,0.346-1.496,1.038-2.038
			c0.692-0.541,1.593-0.812,2.7-0.812c0.73,0,1.396,0.125,1.994,0.376c0.6,0.251,1.08,0.555,1.443,0.913V73.135z"/>
		<path d="M221.882,70.056c1.113,0,1.979,0.286,2.597,0.859s0.927,1.327,0.927,2.263c0,0.945-0.309,1.702-0.927,2.271
			s-1.483,0.852-2.597,0.852h-2.212v3.08l1.167,0.2v0.902h-3.745V79.58l1.167-0.2v-8.214l-1.167-0.201v-0.909h1.167H221.882z
			 M219.67,75.197h2.212c0.707,0,1.235-0.189,1.587-0.569c0.351-0.379,0.526-0.857,0.526-1.436s-0.176-1.06-0.526-1.446
			c-0.352-0.387-0.88-0.58-1.587-0.58h-2.212V75.197z"/>
		<path d="M226.987,70.965v-0.909h3.746v0.909l-1.168,0.201v8.214l1.168,0.2v0.902h-3.746V79.58l1.168-0.2v-8.214L226.987,70.965z"
			/>
		<path d="M241.33,70.056v2.306h-1.203l-0.107-1.195h-2.312v8.214l1.167,0.2v0.902h-3.745V79.58l1.167-0.2v-8.214h-2.32l-0.1,1.195
			h-1.211v-2.306H241.33z"/>
		<path d="M241.402,79.58l0.773-0.107l3.646-9.417h1.21l3.581,9.417l0.766,0.107v0.902h-2.993V79.58l0.788-0.136l-0.688-1.92h-4.175
			l-0.709,1.92l0.787,0.136v0.902h-2.986V79.58z M244.747,76.343h3.309l-1.619-4.476h-0.043L244.747,76.343z"/>
		<path d="M252.847,80.482V79.58l1.167-0.2v-8.214l-1.167-0.201v-0.909h1.167h1.411h1.167v0.909l-1.167,0.201v8.214h3.623
			l0.107-1.196h1.203v2.299H252.847z"/>
	</g>
	<g>
		<path fill="#020202" d="M120.949,58.277c0-1.971,2.292-7.242,6.097-13.935c-1.559-0.046-2.888-0.091-3.667-0.091
			c0.367-0.917,2.154-1.559,4.95-2.063c4.813-7.976,11.001-14.668,15.997-17.372c0.046-0.413,0.092-0.733,0.092-0.871
			c1.696,0,6.326,2.017,6.555,2.842c-2.017,3.53-4.125,10.864-5.408,20.627c-0.321,2.429-0.551,5.546-0.551,9.396
			c0,1.329,0,2.75,0.092,4.263c-0.138,0.046-0.184,0.046-0.55,0.046c-1.696,0-4.905-1.237-5.226-2.017
			c-0.046-0.779-0.046-1.559-0.046-2.384c0-3.759,0.275-7.7,0.917-11.826c-1.696-0.138-5.913-0.321-9.764-0.458
			c-1.467,2.705-2.796,5.5-3.712,8.205c-1.009,2.888-1.696,5.959-1.879,8.525C121.912,60.294,120.949,59.561,120.949,58.277z
			 M143.455,29.492c-3.07,1.146-7.608,6.096-11.413,12.239c2.567-0.229,5.5-0.367,8.755-0.413c0.459-2.521,1.055-5.088,1.742-7.701
			C142.768,32.746,143.135,31.142,143.455,29.492z"/>
		<path fill="#020202" d="M154.407,40.584c3.759-10.268,7.059-17.098,10.222-20.948c1.467,0.275,4.63,2.108,5.134,2.888
			c-4.767,5.638-8.205,11.826-11.23,20.214c-2.566,7.15-3.941,13.109-3.941,16.959c0,1.055,0,1.101,0.046,1.329
			c-0.825-0.091-1.513-0.458-1.696-0.87c-0.138-0.321-0.825-1.055-1.237-1.33c-0.551-0.366-0.963-2.108-0.963-4.079
			C150.74,52.09,152.069,47.001,154.407,40.584z"/>
		<path fill="#020202" d="M163.207,45.901c0.274-1.192,1.604-5.959,4.354-7.334c1.008,0.229,3.071,1.238,4.263,3.025
			c-2.796,3.117-3.621,6.371-5.18,10.405c-0.642,1.695-1.329,3.667-1.375,4.996c0,1.1,0,1.513-0.275,1.513
			c-0.458,0-3.346-1.192-3.346-3.896C161.648,53.557,162.015,51.402,163.207,45.901z M170.541,33.892
			c-0.321-0.321-0.551-1.008-0.551-1.513c0-1.054,0.643-4.034,1.422-6.005c1.421,0,4.629,1.833,5.546,3.209
			c-1.375,1.283-4.722,5.363-5.18,6.371c-0.733-0.137-1.375-0.733-1.375-1.237C170.403,34.534,170.449,34.259,170.541,33.892z"/>
		<path fill="#020202" d="M185.757,44.709c-0.367-0.045-0.55-0.275-0.596-0.688c0-0.367,0.733-1.742,0.733-2.475
			c0-0.871-0.459-1.513-1.101-1.513c-2.43,0-3.759,3.163-3.759,9.03c0,0.366,0,0.458,0.046,0.55
			c1.283-0.046,2.246-0.092,3.209-0.092c0.046,0.092,0.046,0.138,0.046,0.367c0,0.229-0.092,0.504-0.184,0.596
			c-2.842,0.642-3.071,0.733-3.071,1.421c0,0.458,0.046,0.917,0.046,1.65c0,5.088-2.979,8.388-7.884,8.893
			c-1.742-0.138-3.851-1.88-4.354-3.576c0-4.675,4.125-8.617,9.442-8.984c0-3.117-1.421-5.775-1.421-8.342
			c0-3.254,2.842-6.784,6.051-7.472c1.375,0.367,4.904,3.942,5.271,5.363C188.095,41.776,186.719,44.709,185.757,44.709z
			 M178.515,52.272c-2.384,0.321-6.326,4.31-6.326,6.418c0,0.688,0.321,1.237,0.917,1.649
			C176.039,59.148,178.515,55.436,178.515,52.272z"/>
		<path fill="#020202" d="M187.954,51.86c0-4.905,3.163-10.818,7.472-13.98c1.65-1.238,3.301-1.879,4.722-1.879
			c0.962,0.504,1.971,1.65,2.888,3.254c0.274,0,0.55-0.046,0.825-0.046c1.649,0,2.429,1.375,2.429,4.309
			c0,7.655-5.271,14.209-12.604,15.768C190.2,58.919,187.954,55.985,187.954,51.86z M192.309,54.152
			c0,1.467,0.597,3.071,1.192,3.254c5.454-1.191,9.442-7.059,9.442-14.209c0-1.559-0.184-2.43-0.596-3.071
			c-2.659,0.779-4.813,2.75-6.326,4.721C193.913,47.643,192.309,51.723,192.309,54.152z"/>
		<path fill="#020202" d="M219.718,39.851c-1.376,3.346-6.188,9.855-6.555,12.651c1.925-2.062,5.042-5.913,6.096-7.013
			c2.338-2.475,6.646-7.013,9.626-7.013c1.559,0,2.658,1.33,3.255,2.476c0,0.137-0.505,0.183-1.329,1.146
			c-1.65,2.155-4.768,8.205-4.768,11.964c0,1.513,0.412,1.787,1.146,1.787c0.643,0,1.513-0.458,1.926-0.458
			c0.229,0.138,0.412,0.642,0.412,0.917c-0.917,0.825-2.888,1.879-3.941,1.879c-3.53,0-4.354-2.154-4.354-4.858
			c0-1.513,0.412-3.392,2.521-8.251c-0.138,0-1.925,0.871-3.713,2.613c-2.842,2.75-4.996,5.271-7.38,8.572
			c-1.329,1.879-2.338,3.3-3.071,3.713c-1.283-0.733-1.833-2.2-2.108-3.575c0-2.292,1.375-7.426,3.438-12.147
			c2.337-5.363,4.491-8.572,4.996-8.801C217.518,35.955,219.076,37.834,219.718,39.851z"/>
	</g>
	<g>
		<path fill-rule="evenodd" clip-rule="evenodd" fill="#FFFFFF" d="M2.985,53.652c0-27.278,22.113-49.391,49.392-49.391
			c27.278,0,49.391,22.113,49.391,49.391c0,27.278-22.113,49.392-49.391,49.392C25.099,103.044,2.985,80.931,2.985,53.652"/>
		<path fill="#7B3E1F" d="M40.74,71.414l-0.165-3.551l-0.319-3.072L41.8,63.48l3.205-1.601l2.239-0.795l3.284-4.227l1.349-4.006
			l0.799-5.473l1.696-1.826l3.192-1.097l3.45-1.537l5.622,1.118l5.292,2.208l5.008,3.194l2.788,1.548l4.562,2.774l1.911,4.172
			l0.369,3.149l0.186,2.614l0.947,3.518l0.087,2.862l-0.526,1.534l1.534,1.672l-0.358,1.965l1.208,2.294c0,0-0.89,1.724-1.091,2.351
			c-0.201,0.624-1.045,3.406-1.045,3.406l1.528,3.453l-9.29,7.771l-3.282-8.766h-3.906l-1.769,0.63l-1.271,2.645l-1.256,1.625
			l-3.259,1.285l-1.942,0.786c-0.991,0.401-2.99,0.055-4.046,0.012c-1.532-0.062-3.149-0.193-4.572-0.806
			c-2.198-0.944-3.752-3.273-5.342-4.99l-4.338-2.446l-1.359-5.013l-0.31-2.422l0.5-1.896l0.444-3.025"/>
		<path fill="#AF7544" d="M67.861,58.364l0.689-2.346c0.459-0.341,1.679-1.061,2.721-0.794c1.442,0.369,2.593,0.382,3.602,1.475
			c0.4,0.433,1.936,2.36,2.212,2.877c0.292,0.546,0.099,0.963,0.212,1.571c0.07,0.377-0.699,0.755-0.628,1.132l-4.589,6.088
			l-1.896,2.322l-1.462,2.252l-1.162,6.371l1.365,0.822l-0.109,3.325l1.116,3.77l-1.162,2.86l-2.702,1.851c0,0-4.07,0.772-4.134,0.8
			c-0.516,0.226-2.501,0.482-3.075,0.461c-1.596-0.062-1.343,0.123-2.896-0.251c-0.242-0.06-1.382-0.647-1.438-0.845
			c-0.149-0.519,0.005-1.367,0.32-1.782c0.325-0.428,0.438-0.646,0.762-1.073c0.009-0.011,1.313,0.512,2.66,0.385
			c0.599-0.057,1.207,0.094,1.711,0.037c0.354-0.039,0.872-0.422,1.078-0.69c0.401-0.524-0.479-0.854-0.889-0.967
			c-1.934-0.533-4.308-0.44-4.471-0.815l1.45-2.379l-2.514-3.547l3.199,0.756l3.144,0.756l2.765-1.723V78.89l-1.763-1.806
			l-2.996-0.897c0.147-2.343,0.074-6.077,0.552-8.376c0.511-2.46,2.437-3.426,4.367-4.699c1.91-1.261,3.801,1.868,5.703,0.595
			C70.059,63.398,67.652,59.165,67.861,58.364z"/>
		<path fill="#AF7544" d="M48.707,61.839v3.052l0.55,3.329c0.134,0.362,0.27,0.725,0.402,1.088c0.344,0.935,0.465,2.125,1.667,2.248
			c0.591,0.062,0.86-0.2,1.08-0.714c0.176-0.413,1.019-0.827,1.196-1.239c0.21-0.494,0.464-1.08,0.624-1.593
			c0.248-0.795,0.82-1.238,0.784-2.081c-0.02-0.52,1.177-1.275,1.538-1.53c0.629-0.442,1.708-0.468,2.026-1.255
			c0.144-0.353-0.7-2.062-0.542-2.445c0.742-1.801,0.53-3.722,0.284-3.789c-0.386-0.104-3.255-2.211-3.694-2.299
			c-0.598-0.119-4.67,3.098-5.208,4.009C49.117,59.121,48.707,61.839,48.707,61.839z"/>
		<path fill="#AF7544" d="M78.823,86.201c-0.265-0.516-0.46-0.791-0.5-1.362c-0.059-0.857-0.001-1.993,0.337-2.796
			c0.514-1.221,1.37-1.089,2.339-1.682c0.586-0.357,0.676-1.164,0.87-1.762c0.241-0.742,0.722-2.455,1.65-2.615
			c0.462-0.081,0.92,0.126,1.385,0.03c0.478-0.099,0.925-0.413,1.235-0.782c0.524-0.623,0.731-1.544,1.12-2.259
			c0.057-0.105,0.781-1.415,0.942-1.003c0.137,0.353,1.172,1.121,1.249,1.796c0.057,0.506,0.114,1.608,0.289,2.079
			c0.163,0.438-0.052,1.277,0.154,1.696c0.098,0.202,0.206,0.637,0.206,0.867l-0.632,2.103l-0.211,2.312l-0.737,1.611
			c0,0-2.254,1.06-2.528,1.09c-0.275,0.032-2.727,1.053-2.727,1.053h-1.549l-1.745-0.517C79.953,85.914,78.932,86.414,78.823,86.201
			z"/>
		<polygon fill="#FFFAFC" points="58.979,76.187 61.391,77.064 63.347,78.136 63.599,79.771 62.592,82.179 59.463,83.42 
			56.113,82.179 54.467,81.005 53.916,79.804 54.467,78.387 55.789,77.064 57.476,76.388 		"/>
		<polygon fill="#FCD1BC" points="31.957,37.823 31.222,39.385 28.749,36.743 25.98,36.743 24.156,38.505 23.824,43.306 
			23.824,45.584 24.093,49.01 25.339,51.189 26.405,53.926 27.004,55.064 27.014,57.706 26.106,61.026 29.869,64.251 32.694,66.202 
			34.839,68.322 39.122,71.082 39.684,71.891 41.898,71.839 41.015,67.289 40.318,64.251 42.589,63.087 45.356,61.654 
			47.636,60.581 49.149,58.694 50.054,57.316 50.988,55.436 51.471,52.933 52.377,49.01 53.095,44.083 53.916,40.392 54.729,38.253 
			54.467,35.737 53.916,34.164 52.593,32.906 48.995,32.465 45.569,31.019 43.401,30.075 40.701,29.672 38.373,29.672 
			37.082,30.516 36.139,32.402 35.391,33.747 33.862,35.17 32.694,36.492 		"/>
		<path fill-rule="evenodd" clip-rule="evenodd" fill="#FFFFFF" d="M37.493,56.977l-2.102-0.664l0.424,0.611l0.626,0.347l1.051,0.46
			l0.796,0.315c0,0,0.231,0.223,0.598,0.385c0.367,0.162,1.37,0.264,1.37,0.264l1.298-0.264l0.563-0.133l0.407-0.314l0.373-0.48
			l-0.75-0.082l-1.215,0.082l-1.175-0.104l-1.384-0.225L37.493,56.977z"/>
		<polygon fill-rule="evenodd" clip-rule="evenodd" fill="#FFFFFF" points="35.391,57.147 35.391,57.706 35.733,58.298 
			36.385,58.694 37.367,59.013 37.996,59.417 38.685,58.743 38.247,58.298 37.199,57.715 36.139,57.503 		"/>
		<polygon fill-rule="evenodd" clip-rule="evenodd" fill="#ECBA9F" points="70.153,86.08 69.365,88.625 68.922,89.943 
			65.884,91.595 66.996,93.694 66.996,95.483 68.02,98.896 78.885,93.694 78.304,91.384 77.303,88.625 76.202,86.553 74.959,85.222 
			72.931,85.125 71.253,85.57 		"/>
		<polygon fill="#E2F4FD" points="9.465,77.064 18.495,64.675 20.566,62.442 22.08,61.39 23.824,61.026 25.319,61.15 27.014,61.805 
			31.076,64.925 36.385,69.318 38.685,71.414 39.684,71.891 41.566,71.808 43.401,71.564 42.897,76.752 42.37,80.431 44.26,82.179 
			44.956,84.607 47.178,86.08 49.759,88.255 53.095,90.527 55.667,92.296 59.079,93.824 65.278,92.993 66.735,93.201 68.002,99.586 
			63.319,101.264 58.004,102.082 51.857,102.082 46.557,101.663 41.566,100.97 35.391,99.231 28.982,96.046 24.644,93.311 
			20.566,90.466 17.352,87.572 14.469,83.986 11.871,80.679 		"/>
		<path fill-rule="evenodd" clip-rule="evenodd" fill="#ECBA9F" d="M53.665,34.225c-0.142,0.561-0.282,3.318-0.503,3.863
			c-0.239,0.585-0.613,1.097-0.852,1.68c-0.227,0.557-0.585,1.047-0.845,1.587c-0.138,0.288-0.276,0.596-0.316,0.916
			c-0.038,0.305,0.048,0.586-0.141,0.858c-0.421,0.606-1.547,0.152-2.113,0.084c-1.034-0.125-2.336,0.219-3.379,0.283
			c-1.196,0.074-1.281,0.402-1.694,1.448c-0.41,1.035-0.572,1.016-0.938,1.907c-0.376,0.92-0.961,2.034-0.86,3.028
			c0.07,0.697,0.2,1.579-0.053,2.255c-0.132,0.352-0.489,0.655-0.916,0.718c-0.317,0.046-1.458,0.117-1.935-0.035
			c-0.438-0.14-0.838-0.349-1.285-0.483l2.93,2.274l1.804,0.252c0,0,0.307,0.537-0.197,0.781c-0.43,0.207,0.359,1.228-0.514,1.586
			c-1.46,0.597,1.336,0.03,1.072,0.372c-0.446,0.58-2.28,1.773-2.399,2.01c-0.076,0.152-0.743,2.514-1.185,2.876
			c-0.277,0.227-1.287,0.948-2.428,0.874c-1.821-0.117-3.974-1.089-4.005-0.497c-0.013,0.238,1.026,0.966,2.112,1.411
			c1.201,0.492,2.46,0.696,2.415,0.754c-0.171,0.211,3.429-1.175,3.254-0.968c-0.401,0.47,3.096-1.929,2.545-1.618
			c-0.001,0.001,1.062-0.955,1.062-0.955l3.093-0.862l2.188-2.146l2.009-4.705l0.385-4.296l0.4-4.47l0.612-0.188l0.661-2.957
			l0.782-2.821l0.172-1.457l-0.136-0.922L53.665,34.225z"/>
		<path fill-rule="evenodd" clip-rule="evenodd" fill="#C2E8FB" d="M44.538,87.445l-2.167,1.126l-1.9,1.311l-1.51,1.31l-0.88,0.818
			l-0.998,0.819c-0.198,0.315-0.115,0.835,0.482,0.835c0.087,0,3.27-2.902,3.565-2.28c0.247,0.521-1.382,2.489-2.871,4.154
			c-1.147,1.286-0.953,2.391-1.008,2.515c-0.2,0.449,2.944,1.073,3.357,1.412c1.016,0.836,2.56-4.302,3.524-3.977
			c0.561,0.189,3.611,5.268,4.113,5.369c0.619,0.126,3.64-0.061,4.247-0.061c1.917,0,3.833,0,5.749,0c0.619,0,1.237,0,1.856,0
			c0,0,4.533-0.714,4.449-0.886c-0.075-0.161,2.735-1.124,2.978-1.199c-0.309-0.917-0.151-1.704-0.277-2.468
			c-0.122-0.734-0.274-2.286-0.831-2.787c-0.628-0.562-4.7,0.676-5.6,0.543l-1.778,0.175l-4.1-2.578l-4.403-2.641l-1.541-1.72
			l-1.817-0.808l-1.453,0.37L44.538,87.445z"/>
		<path fill-rule="evenodd" clip-rule="evenodd" fill="#ECBA9F" d="M39.14,71.564l1.704,0.329c0.105-0.312,0.141-6.317-0.794-7.182
			c-0.56-0.517-1.776,0.32-2.643,0.157c-0.503-0.094-2.232-0.503-2.232-0.503s-2.691-2.497-2.692-2.498
			c0.112,0.103,0.043,0.88,0.048,1.05c0.011,0.386,0.009,0.774-0.058,1.157c-0.103,0.597-0.389,1.146-0.624,1.699L39.14,71.564z"/>
		<path fill-rule="evenodd" clip-rule="evenodd" fill="#ECBA9F" d="M34.405,39.996c0.663-0.295,0.268-0.075,0.464-0.728
			c0.185-0.619,0.637-1.125,0.968-1.667c0.56-0.917,1.579-1.39,2.35-2.094c0.386-0.351,0.721-0.762,0.881-1.267
			c0.167-0.527,0.056-1.253,0.535-1.635c0.181-0.145,0.616-0.477,0.847-0.512c0.506-0.076,1.041,0.303,1.534,0.378
			c0.114,0.018,1.002,0.14,1.039,0.078l3.878,0.661l-2.221-2.633l-5.668-1.157h-1.848l-1.443,3.96l-2.902,3.111l-1.471,2.546
			l1.114,0.41C32.463,39.448,33.372,40.455,34.405,39.996z"/>
		<path fill="#C2E8FB" d="M23.746,60.733c-0.312,0.052,0.936,6.397,0.637,6.276c0.454,0.184,6.385,1.529,6.839,1.714l3.197,1.67
			l1.678,1.445l1.552,1.915l1.496,2.051l2.796,3.999l1.461-7.965l-3.446,0.274l-2.365-2.018l-2.199-1.841l-1.727-1.374
			c-0.058-0.045-1.98-1.757-2.097-1.687c-0.208,0.126-1.924-1.884-3.34-2.804C26.189,61.067,24.233,60.651,23.746,60.733z"/>
		<path fill="#C2E8FB" d="M42.17,86.509c-0.205-1.439-1.792-2.768-2.495-4.057c-0.475-0.873,0.52-2.652-0.603-4.419
			c-0.97-1.525-5.245-1.186-5.614-1.662c-0.786-1.014-1.736-1.886-2.594-2.837c-0.882-0.98-1.989-1.727-3.102-2.422
			c-0.895-0.559-2.137-1.053-2.67-2.014c-0.104-0.188-0.952-2.262-1.109-2.289l5.145,0.893l3.661,1.765l3.099,1.947l2.88,3.51
			l3.232,4.562l2.343,2.422l1.805,4.172l-1.596,2.673l-1.655-0.456l-2.733,1.585C40.164,89.882,42.396,88.099,42.17,86.509z"/>
		<path fill="#C2E8FB" d="M16.941,73.673c-0.481,1.373-0.276,0.587-0.247,2.054c0.021,0.993-0.572,3.259-0.388,5.343
			c0.158,1.801,4.11,3.467,4.218,4.06c0.232,1.262,0.674,2.474,0.997,3.714c0.507,1.944,0.768,1.439,1.763,3.167
			c0.106,0.183,0.809,1.887,0.935,2.058l-3.284-2.684l-2.665-2.759L15.3,84.73l-2.716-3.536l-2.07-4.467l0.755-1.559l2.596-3.604
			l1.557-1.673l3.073-5.217l2.672-2.807l2.843-0.906l0.202,5.867l-2.683,0.569C21.529,67.398,17.472,72.158,16.941,73.673z"/>
		<path fill-rule="evenodd" clip-rule="evenodd" fill="none" stroke="#010101" stroke-width="3.6665" stroke-miterlimit="10" d="
			M3.704,52.933c0-27.278,22.113-49.392,49.391-49.392s49.392,22.113,49.392,49.392s-22.114,49.391-49.392,49.391
			S3.704,80.211,3.704,52.933"/>
		<polygon fill-rule="evenodd" clip-rule="evenodd" fill="#FFD68A" points="46.901,20.793 45.871,22.995 45.041,24.441 
			44.046,27.775 47.39,30.669 46.901,32.494 50.988,32.709 52.593,32.906 54.049,34.225 54.467,35.737 54.489,40.986 58.591,40.734 
			59.081,38.407 58.591,35.827 58.591,33.375 57.061,29.672 54.729,26.392 51.96,23.247 49.893,21.235 48.007,20.793 		"/>
		<polygon fill-rule="evenodd" clip-rule="evenodd" fill="#FFD68A" points="20.201,53.729 19.45,56.01 17.07,55.723 16.118,56.312 
			15.675,56.727 15.3,57.706 14.765,59.208 12.48,59.417 11.871,60.057 11.466,60.381 11.201,60.719 10.921,61.868 10.727,64.659 
			10.057,66.202 9.743,65.927 9.465,66.463 9.05,66.881 8.734,67.845 9.022,68.972 11.293,73.489 16.736,67.087 16.431,65.048 
			16.515,63.61 17.144,63.087 17.855,62.859 18.108,62.646 18.36,62.311 18.743,61.868 19.241,60.719 19.366,58.998 19.8,58.283 
			20.566,57.715 21.467,56.828 21.915,56.312 23.433,55.755 23.824,55.467 25.319,54.607 23.696,53.926 		"/>
		<g>
			<path fill-rule="evenodd" clip-rule="evenodd" fill="#020202" d="M43.943,57.045c2.71-0.062,1.142,0.779,0.925,0.797
				c-0.3,0.025-0.88,0.447-1.134,0.64c-0.615,0.468-1.652,0.753-2.493,1.044c-0.795,0.275-1.422,0.186-1.491,0.188
				c-1.696,0.088-3.172-0.56-4.319-1.696c-0.884-0.876-1.844-1.787-2.19-3.102c-0.082-0.311-0.249-0.646-0.693-0.757
				c-0.609-0.152-0.113-0.626,0.17-0.34c0.34,0.343,1.143,1.28,1.491,1.54c0.322,0.241,1.942,0.255,2.511,0.599
				c1.994,1.203,4.82,1.381,7.002,1.095 M40.602,58.394c0.404-0.035,1.689-0.425,2.121-0.744c-0.765-0.337-1.48,0.151-2.11,0.082
				c-0.185-0.096-1.119-0.151-1.336-0.126c-0.485,0.06-1.408-0.539-1.742-0.556c-0.743,0.015-2.096-0.712-1.742-0.412
				c0.3,0.375,1.801,1.211,2.227,1.347C38.32,58.079,39.541,58.484,40.602,58.394z M35.739,57.309
				c-0.076,0.461,0.148,0.696,0.435,0.927c0.432,0.348,0.998,0.317,1.469,0.55c0.192,0.096,0.431,0.065,0.484-0.163
				c0.042-0.181-0.169-0.243-0.331-0.304C37.097,58.062,36.395,57.811,35.739,57.309z"/>
			<path fill-rule="evenodd" clip-rule="evenodd" fill="#020202" d="M33.173,43.684c-0.027,0.081-0.023,0.173,0.024,0.281
				c0,0,0.707-0.111,0.816-0.144l0.576-0.144c0,0,0.235,0.188,0.24,0.192c0.055,0.043-0.148,0.853,0.071,1.078
				c0,0,0.786,0.249,1.084,0.359c0.429,0.16,1.095,0.292,1.095,0.292c0.242,0.1,0.655-0.603,0.726-0.769
				c0,0,0.287-0.429,0.288-0.432c-0.019,0.085,0.269,0.643,0.292,0.853c0.029,0.279-0.123,0.833,0.078,1.064l0.639,0.244
				c0.134-1.216-0.375-2.61-1.406-3.168c-0.494-0.267-1.027-0.458-1.581-0.536C35.447,42.758,33.459,42.825,33.173,43.684z"/>
			<path fill-rule="evenodd" clip-rule="evenodd" fill="#020202" d="M44.556,47.489c-0.007,0.082,0.019,0.168,0.089,0.26
				c0.078,0.1,0.643-0.272,0.739-0.33l0.511-0.274c0,0,0.268,0.123,0.273,0.125c0.061,0.027,0.151,0.812,0.45,0.887
				c0,0,2.127,0.16,2.128,0.16c0.556,0.013,0.649-0.961,0.638-1.324c0.002,0.085,0.408,0.546,0.479,0.738
				c0.095,0.257,0.083,0.818,0.329,0.99l0.524-0.084c-0.162-1.184-0.838-2.221-1.949-2.504c-0.53-0.135-1.081-0.189-1.625-0.132
				C46.489,46.071,44.622,46.605,44.556,47.489z"/>
			<g>
				<path fill-rule="evenodd" clip-rule="evenodd" fill="#020202" d="M86.99,60.756c0.243,1.419,0.014,2.898,0.266,4.336
					c0.036,0.207,0.066,0.487,0.318,0.551c0.339,0.084,0.246,0.696,0.134,1.193c-0.054,0.236-0.204,0.414-0.47,0.378
					c-0.231-0.031-0.26-0.247-0.295-0.437c-0.095-0.498-0.232-0.993-0.274-1.497c-0.168-1.977-0.313-3.955-0.451-5.934
					c-0.015-0.214,0.071-0.436,0.111-0.652"/>
				<path fill-rule="evenodd" clip-rule="evenodd" fill="#020202" d="M86.27,58.431c-0.769-1.38-1.567-2.744-2.287-4.148
					c-0.195-0.384-1.871-1.704-2.231-1.921c-0.377-0.228-1.015-0.543-1.04-0.946c-0.36-0.153,0.764,0.427,2.694,1.233
					c0.187,0.076,1.696,0.911,1.623,1.096c0.53,1.167,0.891,1.973,0.877,3.002c-0.004,0.292,0.103,0.624,0.366,0.736
					C87.08,57.829,86.711,58.118,86.27,58.431z"/>
				<g>
					<path fill-rule="evenodd" clip-rule="evenodd" fill="#020202" d="M72.495,44.854c-0.012,0.144,0.102,0.2,0.245,0.172
						c1.342,0.894,2.825,1.631,3.882,2.869c0.933,1.092,2.009,1.993,3.123,2.874c-0.9,0.671-2.064,0.527-3.006-0.338
						c-1.592-1.461-4.315-2.684-6.473-2.751c-0.435-0.013-0.826,0.147-1.241,0.148c-0.242,0-0.165-0.345-0.517-0.319
						c-1.19,0.086-2.858,0.972-3.772,1.731c-1.372,1.142-2.325,0.984-3.168-0.66c-0.381-0.744-0.404-1.129-1.15-1.547
						c-0.575-0.321-1.282-0.377-1.873-0.671c-1.896-0.941-3.12,0.117-4.884,0.751c-0.18,0.064-0.268,0.469-0.513,0.295
						c-0.296-0.209-0.111-0.534,0.03-0.772c0.379-0.639,0.748-1.315,1.05-1.957c0.419-0.888,0.743-1.868,1.081-2.817
						c0.216-0.607,0.619-1.137,0.463-1.879"/>
					<path fill-rule="evenodd" clip-rule="evenodd" fill="#020202" d="M61.657,85.194c-0.271-0.036-0.536-0.037-0.587,0.312
						c-0.048,0.323,0.151,0.529,0.388,0.718c0.226,0.18,0.938,0.054,0.589,0.566c-0.242,0.356-0.756,0.837-1.381,0.431
						c-0.185-0.12-0.325-0.311-0.579-0.301c-0.296,0.011-0.493,0.202-0.591,0.428c-0.189,0.434,0.463,0.363,0.472,0.727
						c-0.179,0.261-0.477,0.188-0.675,0.097c-0.892-0.399-1.771-0.532-2.77-0.373c-0.861,0.137-2.032-1.4-2.182-2.637
						c0.289-0.312,0.669-0.41,1.072-0.45c0.365,0.199,0.726,0.479,1.211-0.005c-0.678-0.194-1.009-0.754-1.542-1.048
						c-0.219-0.447-0.396-0.923-0.667-1.338c-1.238-1.898-0.961-4.083,0.719-5.538c0.112-0.097,0.166-0.264,0.246-0.397
						c1.114-0.812,2.71-0.786,3.555-2.084c0.221-0.34,0.672-0.627,1.048-0.526c0.561,0.146,0.51,0.562,0.245,1.057
						c-0.441,0.818-0.212,1.248,0.647,1.306c1.752,0.117,3.149,0.717,3.783,2.521c0.122,0.347,0.404,0.64,0.613,0.956
						c0.002,0.187,0.005,0.371,0.007,0.556c-0.327,1.018-0.653,2.035-0.98,3.054l0.003,0.01c-0.313,0.199-0.626,0.398-0.94,0.598
						C62.729,84.205,62.373,84.925,61.657,85.194z M58.187,76.823c-0.926,0.03-3.458,1.634-3.746,2.626
						c-0.139,0.48,0.08,0.917,0.522,1.233c0.572,0.407,0.484-0.279,0.728-0.41c0.251-0.137,0.467-0.345,0.727-0.456
						c0.51-0.22,1.023-0.714,1.518,0.114c0.301,0.503,1.033,0.949,1.383,1.004c0.727,0.115,0.748,0.35,0.677,0.895
						c-0.021,0.156,0.099,0.308,0.289,0.318c0.19,0.01,0.296-0.137,0.341-0.285c0.218-0.713,0.683-1.051,1.417-1.228
						c0.573-0.139,0.976-0.719,1.001-1.284c0.027-0.588-0.479-0.786-1.062-0.989c-1.135-0.393-2.385-0.533-3.372-1.316
						C58.467,76.931,58.281,76.87,58.187,76.823z M57.936,86.862c-0.314-0.247-0.955-0.057-0.792-0.707
						c-0.632,0.097-1.063,0.528-0.661,1.034C56.733,87.505,57.5,87.529,57.936,86.862z"/>
					<path fill-rule="evenodd" clip-rule="evenodd" fill="#020202" d="M69.298,65.869c-0.206,0.062-0.407,0.124-0.6,0.175
						c-0.839,0.224-0.963,0.083-1.375-0.718c-0.635-1.237-0.511-2.743-1.347-3.922c-0.078-0.108-0.044-0.276,0.08-0.332
						c0.251-0.111,0.499-0.303,0.803-0.1c0.308,0.206,0.614,0.531,0.951,0.007c0.287-0.446,0.61-0.867,0.045-1.33
						c-0.351-0.286-0.231-0.599,0.034-0.805c0.333-0.259,0.503,0.021,0.626,0.312c0.337,0.795,0.838,0.332,1.242,0.115
						c0.319-0.172,0.658,0.552,1.832,0.772c1.259,0.235,2.128,1.124,2.3,2.388c0.05,0.364,0.189,0.673,0.393,0.963
						c0.196,0.279,0.047,0.396-0.207,0.476c-0.162,0.009-0.325,0.018-0.489,0.026c-0.642,0.05-0.92,1.479-1.749,1.522
						c-0.148,0.008-0.296,0.017-0.445,0.023c-0.099,0.004-0.196,0.009-0.294,0.013C70.52,65.48,69.889,65.684,69.298,65.869z"/>
					<path fill-rule="evenodd" clip-rule="evenodd" fill="#020202" d="M50.617,61.271c-0.305-0.272-0.388-0.701-0.792-0.905
						c-0.674-0.34-0.432-0.781-0.097-1.156c0.316-0.355,0.646-0.67,0.877-1.11c0.255-0.484,1.788-0.518,2.178-0.115
						c0.251,0.258,0.542,0.457,0.906,0.5c0.738,0.088,1.47,0.086,1.765,1.029c0.303,0.969,0.554,1.896,0.034,2.859
						c-0.24,0.443-0.47,0.891-0.574,1.087c-0.605,0.171-0.996-0.089-1.473-0.407c-0.331-0.22-1.713-0.611-1.78-1.1
						c-0.078-0.571-0.501-0.367-0.866-0.559C50.728,61.357,50.669,61.316,50.617,61.271z"/>
					<path fill-rule="evenodd" clip-rule="evenodd" fill="#020202" d="M58.558,63.229c-0.47-0.769-0.772-1.583-0.782-2.491
						c-0.009-0.812,0.285-1.601,0.055-2.403c-0.222-0.775-0.981-1.575-1.52-2.144c-0.232-0.244-0.623-0.734-0.991-0.769
						c-0.375-0.036-0.701,0.733-1.112,0.39c-0.264-0.224-0.362-0.532-0.242-0.866c0.183-0.503,1.66-1.173,2.156-0.99
						c0.029,0.011,0.077,0.026,0.081,0.046c0.267,1.271,0.813,0.587,1.376,0.23c0.875-0.552,1.977,2.255,2.314,2.818
						c0.238,0.399,0.569,0.614,0.725,1.069c0.526,1.532,0.42,3.53,0.381,5.13c-0.003,0.135,0.061,0.369-0.195,0.325
						c-1.656-0.282,0.073,1.634-0.138,2.312c-0.159,0.507-1.11,0.399-1.488,0.249c-0.639-0.253-1.315-1.109-1.538-1.749
						C57.371,63.612,57.847,63.425,58.558,63.229z"/>
					<path fill="#020202" d="M78.581,85.521c-0.241-0.471-0.42-0.723-0.456-1.244c-0.055-0.783-0.001-1.819,0.308-2.552
						c0.469-1.115,1.25-0.995,2.136-1.536c0.535-0.326,0.617-1.063,0.793-1.608c0.222-0.678,0.66-2.242,1.507-2.389
						c0.423-0.074,0.638,0.36,0.638,0.36l0.049,0.722c0,0-0.565,1.074-0.816,1.103c-0.25,0.029-1.2,2.304-1.2,2.304l-1.248,1.536
						l-0.664,3.178C79.613,85.259,78.68,85.715,78.581,85.521z"/>
					<path fill="#020202" d="M57.061,92.493c1.292-0.155,3.379-0.211,5.403-0.67c1.353-0.307,2.677-1.112,3.718-1.067
						c0.042,0.002,2.105-0.124,2.682-1.756c0.149-0.396,0.419-1.133,0.324-1.56c-0.092-0.411-0.501-0.486-0.59-0.869
						c-0.127-0.559,0.955-2.193-0.07-2.399c-0.667-0.137-0.625,1.065-0.913,1.368c-0.412,0.432-0.733,0.089-0.771-0.388
						c-0.037-0.459,0.363-0.825,0.389-1.275c0.039-0.691-0.119-1.312,0.372-1.874c0.306-0.352,1.113-0.596,0.888-1.204
						c-0.254,0.027-0.257,0.185-0.484,0.29c-0.724,0.331-0.761-0.521-0.71-1.009c0.092-0.882,0.101-1.77,0.058-2.655
						c-0.034-0.705-0.303-1.659-0.034-2.342c0.102-0.258,1.237-1.975,1.385-1.921c0.471,0.174,0.427,1.156,0.375,1.541
						c-0.139,1.008-0.293,1.92,0.033,2.91c0.241,0.731-0.144,1.356,0.022,2.024c0.067,0.267,0.149,0.216,0.21,0.349
						c0.106,0.231,0.242,0.203,0.292,0.489c0.076,0.444-0.12,0.941-0.091,1.4c0.038,0.59,0.215,1.157,0.218,1.751
						c0.001,0.274-0.188,0.839,0.013,1.08c0.636,0.755,1.347-2.292,1.211-2.79c-0.22-0.808-0.442-1.048,0.011-1.81
						c0.311-0.522,0.625-0.862-0.188-1.083c-1.44-0.391,0.003-1.332-0.144-2.391c-0.075-0.542-0.354-0.628,0.062-1.108
						c0.272-0.314,0.826-0.564,1.238-0.597c0.861-0.07,2.743,0.749,2.89-0.708c0.105-1.046,0.504-5.729-1.083-5.768
						c-0.823-0.019-0.651,0.459-1.05,0.975c-0.229,0.295-0.658,0.348-0.855,0.677c-0.199,0.335,0.054,0.784-0.196,1.064
						c-0.41,0.458-1.096,0.025-0.951-0.535c0.243-0.933,0.494-1.794,1.095-2.562c1.104-1.409,2.254-2.745,3.337-4.18
						c0.13-0.171,0.242-0.384,0.283-0.593c0.258-1.343-0.124-2.782-0.882-3.902c-0.417-0.616-1.107-0.975-1.583-1.536
						c-0.184-0.217-0.925-1.938-0.078-1.851c1.127,0.117,0.818-0.876,1.555-1.262c0.732-0.383,1.418,0.698,1.622,1.275
						c0.233,0.662,0.752,4.011,1.729,4.062c1.143,0.06,0.445-2.604,0.38-3.334c-0.079-0.891-0.249-2.938,1.03-3.077
						c0.986-0.105,2.421,1.194,3,1.893c0.673,0.813,0.741,1.98,1.007,2.968c0.149,0.557,0.468,1.302,0.239,1.877
						c-0.253,0.637-0.936,0.514-1.381,0.899c-0.639,0.553-0.299,1.403-0.185,2.111c0.202,1.251-0.557,2.231-0.714,3.433
						c-0.048,0.369,0.005,0.98-0.469,1.093c-1.841,0.436-0.348-4.271-3.087-3.325c-1.037,0.356-2.527,2.329-1.84,3.469
						c1.632,2.71,0.374,5.467,0.846,8.329c0.125,0.764,0.096,0.746-0.465,1.19c-0.52,0.411-0.471,0.667-0.588,1.313
						c-0.083,0.462-0.978,1.712-0.204,1.983c0.353,0.123,0.613-0.054,0.778-0.383c0.214-0.424,0.551-0.807,0.802-1.21
						c0.138-0.219,0.297-0.417,0.525-0.529c0.339,0.604-0.133,2.472-0.496,3.062c-0.498,0.808-0.339,1.63-0.558,2.423
						c-0.122,0.438-0.024,0.927,0.539,1.071c0.397,0.101,0.809,0.106,1.096-0.215c0.324-0.361,0.347-0.751,0.893-0.724
						c0.63,0.03,0.93,0.879,1.595,0.737c0.556-0.118,0.696-0.862,1.237-1.059c0.054,0.35-0.178,0.829,0.357,0.801
						c1.196-0.062,1.61-0.681,2.58-1.231c0.437-0.251,0.955-0.106,1.396-0.301c0.556-0.243,0.615-0.693,0.869-1.197
						c0.316-0.627,0.826-1.025,1.048-1.734c0.379-1.208,0.271-2.541,0.148-3.782c-0.112-1.126,0.108-3.066-1.032-3.764
						c-0.735-0.45-0.521-1.303-0.265-1.975c0.119-0.312,0.358-0.624,0.432-0.947c0.111-0.492-0.134-0.961-0.044-1.449
						c0.429-0.185-0.062-0.03,0.349-0.25c0.462-0.247,0.304,1.476,0.82,1.494c0.839,0.031-0.722,0.986-0.244,1.633
						c0.308,0.415,1.126,1.814,1.059,2.375c-0.048,0.409-0.691,3.365,0.048,3.575c1.112,0.316-0.489,3.078-0.48,4.224
						c0.006,0.74-0.87,1.722-1.007,2.016c-0.017,0.037-0.481,1.914-2.352,2.159c-0.607,0.081-2.551,0.231-3.358,0.816
						c-0.836,0.606-3.225-1.035-3.312,0.192c-0.067,0.944-2.858-0.272-3.887-0.336c-0.769-0.049-2.378-1.115-2.544-0.096
						c-0.087,0.538-2.053-0.078-2.158,0.44c-0.185,0.916-0.385,2.142-0.624,3.003c-0.43,1.558-2.688,1.412-2.975,2.611
						c-0.085,0.354-2.314,0.796-4.558,0.852c-2.307,0.056-4.63-0.273-4.656,0.1"/>
					<path fill="#020202" d="M41.954,78.019c0.226-0.199,0.323-3.948,0.886-6.109c0.516-1.977,1.516-2.372,1.421-2.684
						c-0.005-0.062,0.32-1.902,0.323-2.087c0.236-0.995,0.567-2.03-0.214-2.075c-1.19-0.063-0.881-1.02-0.671-1.364
						c0.146-0.241,0.308-0.18,0.588-0.321c0.466-0.236,0.44-0.142,0.502-0.625c0.103-0.805-2.433-0.065-1.854-0.328
						c0.263-0.119,3.394-1.027,3.558-1.279c0.191-0.017,0.995-1.12,1.443-1.554c0.425,0.1,0.124,0.083,0.193,0.419
						c0.073,0.359,0.215,0.075,0.47,0.341c0.178,0.187,0.548,0.333,0.346,0.691c-0.157,0.278-0.463,0.29-0.76,0.315
						c-1.177,0.103-1.479,0.388-1.522,1.52c-0.037,0.957-0.067,1.922,0.001,2.874c0.051,0.716,0.119,1.546,0.728,1.995
						c1.014,0.747,1.087,1.865,1.02,2.838c-0.089,1.287,1.122,4.357,2.097,5.32c0.271,0.268,0.664,2.719,0.384,2.976
						c-0.256,0.235-1.426-1.287-1.572-1.41c-0.497-0.426-1.59-2.938-1.836-3.717c-0.049-0.157-0.442-0.567-0.624-0.595
						c-0.168-0.023-0.323,0.414-0.288,0.595c0.108,0.548-0.317,1.191-0.818,1.514c-0.046,0.028-0.273,0.382-0.245,1.217
						c0.008,0.242,0.249,0.568,0.475,0.693c0.272,0.15,0.625,0.256,0.773,0.538c0.135,0.256,0.411,0.993,0.359,1.279
						c-0.055,0.302-0.579,0.481-0.834,0.361c-0.3-0.139-0.5-0.62-0.766-0.044c-0.254,0.55-0.264,1.713-0.048,1.969
						c0.309,0.362,0.552,3.532,0.239,3.841c-0.103,0.103-1.387-3.052-2.488-4.197c-0.539-0.559-1.032-0.375-1.322-0.863
						c-0.836-1.407,0.222-1.531-0.104-1.794"/>
				</g>
			</g>
			<path fill-rule="evenodd" clip-rule="evenodd" fill="#020202" d="M72.628,44.918c-0.013,0.143,0.102,0.2,0.244,0.171
				c1.342,0.894,2.825,1.631,3.881,2.869c0.934,1.093,2.01,1.994,3.123,2.874c-0.899,0.672-2.064,0.525-3.006-0.34
				c-0.67-0.614-1.501-0.992-2.265-1.471c-0.654-0.409-1.404-0.423-2.084-0.652c-1.052-0.354-2.024-0.907-3.164-0.466
				c-0.245,0.096-0.26,0.004-0.31-0.166c-0.105-0.351-0.312-0.239-0.511-0.096c-0.321,0.231-0.719,0.246-1.063,0.382
				c-0.9,0.359-1.881,0.676-2.605,1.279c-1.372,1.142-2.325,0.984-3.167-0.66c-0.275-0.536-0.368-1.41-1.092-1.465
				c-1.053-0.079-1.78-0.78-2.687-1.115c-0.34-0.126-0.671-0.225-1.024-0.153c-1.113,0.223-2.051,0.886-3.104,1.264
				c-0.181,0.065-0.268,0.469-0.514,0.295c-0.296-0.209-0.111-0.534,0.03-0.772c0.378-0.639,0.171-1.316,0.474-1.957
				c0.419-0.889,0.358-1.868,0.696-2.818c0.216-0.607-0.31-1.413,0.464-1.879c0.302-0.182,0.513-0.536,0.981-0.6
				c0.496-0.067,0.633-0.009,0.865,0.458c0.391,0.789,0.843,0.374,1.239,0.06c0.443-0.349,0.477-1.228,0.033-1.569
				c-1.083-0.833,1.006-1.532-0.012-2.293c-0.023-0.017,0.025-0.575,0.083-0.631c0.913-0.875-0.004-1.504-0.167-2.068
				c-0.127-0.439-0.723-0.027-1.152,0.198c0.358,0.264,0.656,0.45,0.909,0.683c0.157,0.145,0.31,0.375,0.014,0.552
				c-0.413,0.245-1.522-0.063-1.589-0.518c-0.176-1.206-1.278-1.212-2.023-1.651c-0.311-0.183-0.734-0.236-1.041-0.459
				c-0.935-0.683-1.978-1.381-2.923-2.064c-0.817-0.593-1.976-1.222-1.831-1.758c0.363-1.333,0.844-1.76,0.46-2.959
				c-0.14-0.438,0.479-1.197,0.666-1.387c0.263-0.267,0.227-0.454-0.102-0.867c-0.498-0.626,0.024-0.79,0.268-1.106
				c0.151-0.196-0.233-0.968,0.272-0.829c0.702,0.193,3.265,0.934,3.806,1.559c0.755,0.87,1.104,1.607,2.215,2.325
				c0.671,0.434,1.276,1.441,1.374,2.601c0.018,0.21,0.531,1.385,0.65,1.569c0.997,1.54,0.387,1.614,1.124,3.254
				c0.191,0.426,0.012,0.747,0.149,1.189c0.181,0.584,0.329,1.074,0.219,1.643c-0.079,0.4-0.299,1.186-0.07,1.566
				c0.65,1.083-0.028,2.24-0.077,3.406c-0.021,0.529,2.158,0.898,2.684,0.903c0.649,0.005,1.334,0.246,1.947-0.18
				c0.138-0.096,0.377-0.179,0.407-0.021c0.139,0.735,0.823,0.678,1.266,0.812"/>
			<g>
				<g>
					<path fill="#020202" d="M48.883,73.349c0.091,0.02,0.622,0.449,0.797,0.203c0.383-0.537,0.18-1.187,0.437-2.137
						c0.161-0.598,0.853-1.661,0.895-1.801c0.101-0.334,0.238-0.771,0.69-0.567c0.387,0.172,0.243,0.596,0.168,0.943
						c-0.066,0.304-0.444,0.432-0.37,0.835c0.116,0.624,0.137,1.303-0.227,1.854c-0.178,0.269-1.449,1.045-1.089,1.32
						c0.206,0.158,0.35-0.168,0.536-0.253c0.806-0.363,0.765,0.475,0.705,1.013c-0.13,1.159-0.913,0.737-0.819,1.9
						c0.052,0.648-0.737,1.431-1.018,0.552c-0.122-0.38-0.175-0.792-0.146-1.192c0.024-0.316,0.182-0.646,0.138-0.962
						c-0.042-0.3-0.029,0.654-0.279,0.51c-0.323-0.188-0.635-0.314-0.548-0.659c0.307-1.222-0.17-0.102,0.099-1.317"/>
				</g>
			</g>
			<path fill-rule="evenodd" clip-rule="evenodd" fill="#020202" d="M10.487,74.747c0.855-1.47,1.97-2.802,2.943-4.183
				c1.246-1.769,2.521-3.515,3.778-5.275c0.277-0.387,0.556-0.774,0.834-1.161c0,0,3.917-4.253,5.929-4.065
				c2.012,0.188,2.992,0.593,5.281,2.4c2.29,1.809,6.908,6.094,6.908,6.094s4.272,1.951,4.001,3.645
				c-0.272,1.692-0.712,2.875,0.083,3.577s1.536,2.177,2.123,3.246c0.586,1.067,2.257,0.932,2.689,1.958
				c0.432,1.025-0.332,1.588,0.503,2.838s2.065,0.893,4.673,3.861c2.607,2.968,4.125,2.383,5.464,2.996
				c1.398,0.64,1.815,1.048,2.41,1.726c0.594,0.678,4.171,0.576,7.21-0.135c3.039-0.713,2.637,4.453,2.837,5.49
				c0.104,0.54,0.319,1.243,0.355,2.622l-1.424,0.416c-0.498-2.243-0.579-6.792-1.427-6.785c-1.152,0.009-4.827,1.122-6.112,0.492
				c-1.284-0.629-2.717-0.937-3.879-2.208c-1.162-1.271-2.806-1.45-4.087-1.695c-1.282-0.245-2.727-1.837-3.632-2.937
				c-0.905-1.101-3.928-2.977-3.935-3.617c-0.005-0.641-0.407-2.688-0.79-2.557c-0.384,0.13-2.321-2.088-2.453-2.505
				c-0.131-0.419-1.933-1.895-2.457-3.299c-0.523-1.404,0.965-3.388-0.321-4.344s-7.209-5.449-7.983-6.211
				c-0.774-0.761-2.624-2.854-4.032-2.844c-0.615,0.006-1.666-0.83-2.362-0.659c-0.897,0.221-2.933,1.68-3.29,2.115
				c-0.633,0.772-3.813,5.404-3.813,5.404l-3.94,5.543c-0.47,0.688-0.951,1.369-1.512,1.988c-0.171,0.188-0.659,0.894-1.392,1.816
				l-0.807-1.47c0.505-0.764,0.749-1.01,0.903-1.243C9.974,75.463,10.295,75.076,10.487,74.747z"/>
			<path fill="#020202" d="M47.982,86.553c-0.284-0.746-0.433-1.896-0.203-1.991c0.354-0.145,0.646-0.374,0.333-0.789
				c-0.18-0.237-0.099-0.494-0.131-0.736c-0.065-0.491-0.273-1.189,0.339-1.312c0.417-0.085,0.645,0.583,0.782,1.051
				c0.099,0.334,0.234,0.771,0.69,0.572c0.391-0.169,0.25-0.595,0.177-0.942c-0.063-0.305-0.443-0.436-0.365-0.839
				c0.122-0.622-0.797-2.342-1.558-2.046c-0.279,0.109-1.173,1.127-0.912,2.343c0.048,0.223,0.059,0.566-0.312,0.588
				c-0.327,0.018-0.298,1.904-0.193,2.423"/>
			<path fill-rule="evenodd" clip-rule="evenodd" fill="#020202" d="M47.286,22.196c-0.01,0.02,0.517,0.632-0.546,1.05
				c-1.187,0.467-0.849,0.957-0.729,1.625c0.144,0.816-0.43,0.536-0.383,0.767c0.042,0.207-1.2,1.369-0.313,2.161
				c0.085,0.076-3.707,0.361-3.796,0.716c-0.068,0.267-0.331,0.227-0.493,0.175c-1.388-0.44-2.802,0.288-4.195-0.106
				c-0.224-0.063-0.542,0.066-0.771,0.19c-0.856,0.465-1.66,1.086-2.737,0.746c-0.025-0.008-0.101,0.143-0.152,0.22l0.005-0.005
				c-0.296-0.008-0.573,0.165-0.423,0.421c0.408,0.701-0.107,1.305-0.096,1.951c0.007,0.424-0.221,1.05,0.639,0.96
				c0.264-0.027,0.311,0.185,0.171,0.407c-0.085,0.135-0.28,0.22-0.171,0.519c0.414-0.231,0.707-0.018,0.996,0.328
				c-1.148,0.63-1.573,1.821-2.317,2.748c-0.026,0.032-0.018,0.095-0.025,0.143c-0.655,0.323-1.147,0.813-1.573,1.404
				c-0.411,0.57-0.913,0.568-1.101-0.047c-0.172-0.561-0.583-1.189-0.087-1.818c0.07-0.088-0.078-0.799-0.079-0.913
				c-0.003-0.562-1.696-1.322-2.149-1.41c-0.389-0.077-2.938,0.113-3.194,1.302c-0.08,0.373-0.979,0.979-0.979-0.045
				c-0.065-0.066,0.153-0.71,0.184-0.808c0.112-0.351,0.344-0.636,0.481-0.975c0.194-0.477,0.47-0.985,0.6-1.481
				c0.213-0.822,0.969-1.9,1.503-2.588c0.351-0.453,0.279-1.051,0.52-1.55c0.246-0.506,0.697-0.894,1.056-1.316
				c0.654-0.768,1.198-1.638,1.982-2.287c0.703-0.581,1.419-1.158,2.158-1.694c0.613-0.443,1.202-0.714,1.922-0.866
				c2.11-0.444,3.359-0.832,5.422-1.462c0.563-0.171,1.141-0.167,1.667-0.451c0.518-0.279,1.046-0.314,1.636-0.347
				c1.154-0.065,2.336-0.089,3.491,0.009c0.882,0.077,1.226,0.544,2.017,0.618c1.193,0.109,0.174,1.541,0.22,1.549"/>
			<path fill-rule="evenodd" clip-rule="evenodd" fill="#020202" d="M23.409,60.65c0,0,0.384,5.951,0.384,5.954
				c-0.002,0.103-1.964,0.538-2.171,0.641c-1.415,0.695-2.404,2.153-3.205,3.457l-1.728,2.812l-2.016,3.071l-2.495,3.879
				c-0.029,0.131-0.349,0.356-0.669,0.96l0.523,0.754c0.291-0.265,0.177-0.403,0.241-0.506c0.862-1.344,1.919-2.88,2.769-4.232
				c1.335-2.124,2.635-4.303,4.061-6.366c0.844-1.225,1.571-2.542,2.979-3.25c1.209-0.608,2.646-0.558,3.951-0.377
				c2.908,0.398,5.439,1.388,7.844,3.068c0.609,0.426,1.267,0.808,1.772,1.354c1.498,1.615,1.301,1.267,2.158,3.083l0.96,1.345
				c0-2.121-0.77-2.929-2.182-4.46c-1.421-1.542-3.451-2.749-5.376-3.565c-1.738-0.735-3.561-1.4-5.472-1.515
				c-0.13-0.007-1.199,0.008-1.224-0.152l-0.528-5.954H23.409z"/>
			<path fill-rule="evenodd" clip-rule="evenodd" fill="#020202" d="M76.868,86.477c1.574,1.157,2.08,3.584,2.656,5.182
				c0.229,0.629,0.841,1.812,0.81,2.647l-1.837,1.389c0.043-0.168-0.308-3.179-0.698-4.056c-0.453-1.021-2.49-4.028-2.811-5.065
				c-0.142-0.459,0.234-0.034,0.879-0.493C76.06,86.183,76.707,86.36,76.868,86.477z"/>
			<path fill="#020202" d="M66.995,91.118c0.042,0.001,1.83-0.822,1.927-1.175c0.208-0.764,0.772-1.41,0.878-1.876
				c0.255-1.118-0.07-0.93,0.034-1.97c0.068-0.675,0.649-1.666,1.068-1.642c0.996,0.057,3.408-2.79,3.82-2.645
				c0.352,0.124,1.189-0.055,1.354-0.383c0.257-0.511,0.705,0.59,0.254,1.321c-0.497,0.809-0.146,1.631-0.365,2.423
				c-0.122,0.439,1.32,0.93,1.884,1.071c0.533,0.136,1.081,0.076,1.333-0.467c0.293-0.63,0.532-0.61,1.06-0.218
				c1.075,0.799,2.066,0.264,2.785,0.228c0.706-0.037,1.448-0.039,2.005-0.71c0.346-0.418,0.866-0.838,1.463-0.766
				c0.751,0.091,1.059-0.265,1.234-0.887c0.064-0.191,0.131-0.384,0.197-0.575c0.056-0.055,0.113-0.111,0.168-0.167
				c0.554-0.295,1.405-3.462,0.736-3.563c0.039-0.262,0.014-5.663,0.052-5.924c0.116,0.051,1.646,0.742,1.926,0.825
				c1.39,0.412,4.164,0.459,3.045,0.854c-0.481,0.17,2.131,1.621,1.955,2.345c0.22,0.108-3.14,5.014-3.415,5.461
				c-0.383,0.623-5.652,6.948-6.017,6.727c-0.458-0.279-1.412-1.607-2.021-1.527c-0.316,0.041-0.545,0.318-0.414,0.726
				c0.063,0.193,0.287,0.373,0.092,0.619c-0.718,0.097-1.243-1.05-2.07-0.312c-0.675,0.604-0.274,1.503-0.697,2.472
				c-0.399-1.544-1.162-2.529-2.218-3.354c-0.471-0.37-0.847-0.36-1.14-0.039c-0.369,0.404-0.123,1.309-0.219,1.92
				c-0.373,0.051-1.599-1.912-2.382-3.249c-0.433-0.74-2.392-1.13-2.636-1.091c-0.246,0.038-2.111,1.203-2.552,2.309
				c-0.579,1.448-0.667,2.439-1.05,2.334"/>
			<path fill-rule="evenodd" clip-rule="evenodd" fill="#020202" d="M41.095,63.875c0.029,0.563,0.646,0.169,0.247,0.464
				c-0.396,0.294,0.01,1.8,0.709,1.993c0.162,0.044,0.895,0.817,1.23,1.503c0.394,0.81,0.25,1.667,0.294,1.839
				c0.163,0.63-1.053,1.564-1.323,2.21c-0.092,0.003-2.02-0.238-2.102-0.281c-0.133-0.071-0.192-3.463-0.221-3.638
				c-0.268-0.817-0.482-1.622-0.39-2.495c0.051-0.489,0.161-0.725,0.43-1.145C40.069,64.172,41.086,63.712,41.095,63.875z"/>
			<path fill-rule="evenodd" clip-rule="evenodd" fill="#020202" d="M49.116,58.19c1.264-1.164,1.901-3.75,1.907-5.526
				c0.003-0.84,0.461-1.604-0.044-2.384c-0.029-0.045,0.031-0.192,0.092-0.241c0.294-0.236,0.705-0.477,0.409-0.9
				c-0.242-0.342,0.408-2.053,0.614-3.06c0.075-0.369-0.093-0.426-0.307-0.625c-0.499-0.46-3.36-0.439-3.961-0.599
				c-1.041-0.276-1.325,0.112-2.067,0.066c-0.346-0.02-0.576,1.042-0.709,1.913c-0.104,0.67,0.042,1.151,0.04,1.422
				c-0.001,0.62,0.11,1.196,0.343,1.761c0.073,0.179-0.011,0.453-0.221,0.506c-0.204,0.05-0.182-0.028-0.297-0.189
				c-0.179-0.251-0.261-0.912-0.555-1.05c-0.401-0.19-0.302,1.457-0.266,1.9c0.079,0.96-0.015,1.242,0.066,2.194
				c0.013,0.153,0.055,0.826-0.171,1.053c-0.687,0.687-1.546,0.804-2.346,0.175c0.182-0.492,0.477-0.053,0.713-0.076
				c0.282-0.024,0.512-0.084,0.704-0.339c-0.903-0.513-1.632,0.02-2.655,0.19c0.404,0.132,0.553,0.181,0.702,0.229
				c-0.507,0.525-1.222,0.526-1.542,0.038c-0.639-0.975-1.436-1.641-2.501-2.038c-0.179-0.067-0.398-0.184-0.319-0.402
				c0.101-0.28,0.383-0.194,0.573-0.116c0.74,0.305,1.4,0.75,2.005,1.268c0.225,0.192,0.418,0.385,0.738,0.333
				c0.654-0.106,1.307-0.224,1.963-0.313c0.28-0.038,0.7-0.701,0.751-0.998c0.144-0.83-0.002-0.903-0.044-1.914
				c-0.023-0.583-0.311-1.107-0.095-1.616c0.602-1.423,1.285-2.813,1.865-4.244c0.138-0.341,0.277-0.408,0.588-0.457
				c1.741-0.275,3.644-0.566,5.219-0.015c0.27,0.094,1.741,0.094,1.957-0.166c0.18-0.217,0.416-0.528,0.231-0.708
				c-0.572-0.555,0.434-1.101,0.523-1.652c0.077-0.482,0.383-1.699,0.436-2.184c0.398,0.101,0.955-2.125,0.281-2.182l0.012-0.181
				c0.143-0.646-0.38-0.912-0.178-1.593c0.394-1.331-1.545-0.936-1.332-1.749c0.039-0.145-0.109-0.387-0.334-0.39
				c-0.101-0.001-0.202,0.139-0.307,0.208c-0.69,0.447-1.378,0.974-2.026-0.072c-0.072-0.115-0.268-0.174-0.418-0.215
				c-0.71-0.194-1.391-0.068-2.111,0.01c-0.536,0.058-1.049-0.925-1.878-1.014c-0.869-0.092-0.976,0.071-1.914-0.294
				c-0.125-0.241-0.11-0.362,0.179-0.605c-0.188-0.464-0.495-0.04-0.765-0.15c-1.042-0.427-1.925-1.271-3.298-0.538
				c-1.146,0.612-1.833,0.404-2.315,1.656c-0.17,0.441-0.071,0.959,0.404,0.968c0.222,0.005,0.614,0.017,0.619,0.229
				c0.005,0.216-0.226,0.272-0.428,0.281c-0.479,0.02-0.976,0.585-0.891,0.682c0.667,0.766,0.052,0.836-0.114,1.023
				c-1.83-0.145-2.726,0.382-3.481,1.854c-0.199,0.388,0.133,0.714-0.054,0.981c-0.7,1.002,0.88,1.254,1.336,1.358
				c1.616,0.371,3.14,0.939,4.64,1.625c0.477,0.218,0.849,0.526,1.258,0.82c0.56,0.403,0.12,1.068,0.036,1.077
				c-0.819,0.082-3.166-1.475-3.71-1.883c-0.407-0.307-2.564-0.742-2.992-1.005c-0.745-0.458-2.648,1.769-2.086,0.356
				c-0.544,0.156-1.707,0.078-1.989,0.499c-0.526,0.784-0.969,3.471-1.188,2.912c-0.198-0.502,0.294-3.185,0.698-3.847
				c0.662-1.083,0.6-1.713,1.393-2.656c0.606-0.72,0.954-1.617,1.717-2.246c0.294-0.242,0.584-0.519,1.183-0.875
				c-0.701,0.107-1.029-0.761-1.169-1.28c-0.152-0.564-0.63-0.019-1.035-0.032c-0.287-0.933-0.336-1.862,0.134-2.769
				c0.114-0.22,0.134-0.39,0.037-0.623c-0.365-0.875,0.138-1.516,1.1-1.288c0.711,0.168,1.45-0.041,2.135,0.258
				c0.167,0.073,0.386-0.001,0.392-0.156c0.075-1.774,1.473-1.082,2.383-1.292c0.053-0.013,0.128,0.019,0.18,0.05
				c0.959,0.601,1.924,0.579,2.953,0.142c0.447-0.188,0.981-0.205,1.465,0.045c0.396,0.204,0.688-0.037,0.917-0.294
				c0.646-0.731,1.418-0.652,1.951,0.211c0.152,0.247,0.168,0.49,0.503,0.403c0.538-0.139,0.82-0.167,0.994-0.822
				c0.211-0.799,0.598-1.508,1.125-2.092c0.424-0.468,0.022-0.753,0.237-1.28c0.422,0.413,0.633,0.808,0.384,1.344
				c-0.146,0.317-0.175,0.684-0.342,0.935c-0.835,1.263,0.144,2.529,0.104,3.787c-0.006,0.21,0.569,0.211,0.727,0.242
				c0.309,0.06,0.686,0.09,0.719,0.486c0.031,0.357-0.314,0.538-0.549,0.738c-0.182,0.157-0.423,0.246-0.648,0.371
				c0.98,0.818,3.833,0.556,4.692,0.901l-0.007-0.007c0.99,0.522,1.63,1.181,2.284,2.169c0.224,0.338,0.454,1.93,0.336,2.361
				c-0.337,1.226-0.129,2.017-0.127,2.059c0.04,0.772-0.292,1.221-0.438,1.803c-0.188,0.749-0.391,2.18-0.519,2.945
				c-0.116,0.688-1.094,4.209-1.126,4.658c-0.115,1.539-0.756,1.893-0.663,3.474c0.023,0.391-0.383,0.924-0.438,1.501
				c-0.066,0.688-0.574,1.373-0.687,2.043c-0.277,1.648-1.392,2.842-2.014,4.289c-0.001,0-0.026,0.025-0.026,0.024
				c-0.131-0.042-0.24-0.255-0.402-0.069c-0.604,0.688-1.458,0.954-2.234,1.366c-1.889,1.004-3.296,1.094-3.149,1.063
				c2.209-0.475,3.155-0.982,4.373-2.572"/>
			<path fill-rule="evenodd" clip-rule="evenodd" fill="#FFFFFF" d="M69.146,62.118c-0.255,0.487-0.21,0.944,0.663,0.658
				c1.151-0.378,0.197-1.554-0.061-1.367C69.514,61.578,69.285,61.852,69.146,62.118z"/>
			<path fill-rule="evenodd" clip-rule="evenodd" fill="#FFFFFF" d="M51.981,60.084c-0.233,0.447-0.193,0.866,0.608,0.603
				c1.053-0.345,0.179-1.422-0.057-1.252C52.318,59.59,52.108,59.841,51.981,60.084z"/>
			<path fill-rule="evenodd" clip-rule="evenodd" fill="#FFD68A" d="M35.618,26.066c1.07,0.013,1.896,1.02,2.992,1.046
				c0.35,0.008,0.705,0.045,1.051-0.033c-0.583-0.673-1.208-0.494-1.89-0.861c-1.939-1.045,1.644-0.681,1.185-1.513
				c-0.153-0.278-0.701-0.25-0.956-0.428c-0.277-0.193-0.609-0.619-0.758-0.912c-0.247-0.485-0.236-0.469,0.261-0.485
				c0.562-0.018,2.71,0.614,3.108-0.085c0.275-0.486-0.601-0.429-0.626-1.016c0.792,0.478,1.672,0.248,2.462,0.557
				c0.17,0.066,2.146,0.336,2.592,1.304c-0.798-0.474-2.706-0.711-2.544-0.667c-0.021-0.007-0.383,0.167-0.256,0.398
				c0.218,0.399,1.002,0.97,1.11,1.078c0.04,0.037,0.049,0.429-0.224,0.632c-0.313,0.234-0.766,0.242-1.044,0.521
				c-0.428,0.43,0.139,1.075-0.082,1.606c-0.344,0.828-1.098,0.524-1.751,0.678c-0.259,0.061-0.434,0.293-0.691,0.341
				c-1.111,0.206-3.964-0.762-3.962-2.162C35.603,26.066,35.61,26.066,35.618,26.066z"/>
			<path fill-rule="evenodd" clip-rule="evenodd" fill="#020202" d="M25.235,61.48c0.121-0.643,0.228-0.47,0.599-0.909
				c0.684-0.811,0.872-2.144,0.857-3.174c-0.011-0.756-0.168-1.681,0.313-2.333c0.105,0.021,0.123,0.131,0.204,0.202
				c0.13,0.116,0.337,1.14,0.321,1.344c0.077,0.995,0.099,1.96-0.244,2.918c-0.191,0.538-0.486,1.206-0.903,1.604
				C26.227,61.28,25.199,61.667,25.235,61.48z"/>
			<path fill-rule="evenodd" clip-rule="evenodd" fill="#020202" d="M59.937,91.122c-0.041-0.017-0.669,0.095-0.7,0.065
				c-0.235-0.972-0.864-0.472-1.762-0.415c-0.658,0.041-1.259-0.177-1.856-0.381c-0.569-0.193-0.561-1.165-0.472-1.588
				c0.102-0.483,0.532-0.084,0.986,0.039c0.917,0.244,1.848,0.435,2.773,0.646c0.093,0.021,0.243,0.094,0.268,0.062
				c0.962-1.184,1.645-0.252,2.471-0.252c0.409,0,1.508-0.444,1.404,0.063c-0.102,0.499-1.237,1.059-1.664,1.051
				C60.592,90.401,60.76,91.184,59.937,91.122z"/>
			<path fill-rule="evenodd" clip-rule="evenodd" fill="#020202" d="M39.878,71.216c-0.056,0.194,2.005,0.301,2.196,0.193
				c0.528-0.3,1.016-1.364,1.501-1.735h0.787c0,0-0.401,1.533-0.403,1.542c-0.413,1.582-3.307,1.248-4.442,1.248
				C39.518,72.464,39.876,71.221,39.878,71.216z"/>
			<path fill-rule="evenodd" clip-rule="evenodd" fill="#020202" d="M33.169,62.67c0.158-0.021,0.427,0.326,0.987,0.73
				c0.699,0.504,1.746,1.097,2.364,1.167c1.192,0.135,2.927-0.236,3.966-0.801c1.631-0.887,3.124-2.22,4.91-2.736
				c1.189-0.344,2.246-0.91,3.239-1.678c0.233-0.18,1.713-2.377,1.713-2.628v1.057c-1.39,2.184-3.409,3.999-5.704,4.816
				c-1.815,0.646-3.471,1.92-5.267,2.555c-0.64,0.226-2.07,0.288-3.397-0.13c-1.035-0.323-2.2-0.93-2.689-1.622
				C33.125,63.164,33.206,62.919,33.169,62.67z"/>
			<path fill-rule="evenodd" clip-rule="evenodd" fill="#020202" d="M27.203,48.033l-1.695,0.281l-0.189,3.217l0.091,1.87
				c0,0,1.396,2.651,1.408,2.677c0.41,0.861,0.798,1.038,1.5,1.655c0.847,0.748,1.403,0.989,2.053,1.934
				c0.696,1.012,0.647,1.369,1.504,2.264c0.314,0.328,0.796,1.014,1.271,1.425c0.134,0.115,0.842,0.569,0.971,0.623
				c0.155,0.065,0.11-0.277,0.247-0.204c0.196-0.226-0.159-0.192-0.646-0.747c-0.214-0.243-0.838-0.91-1.069-1.24
				c-0.839-1.201-1.324-2.38-2.384-3.423c-1.08-1.063-1.768-1.543-2.649-2.82c-0.763-1.106-0.937-2.763-0.821-4.067
				C26.82,51.19,27.272,48.021,27.203,48.033z"/>
			<path fill="#020202" d="M23.209,34.373l-1.105,3.001L21.72,39.98c0,0-0.096,2.632,0,2.7c0.096,0.068,1.063,2.083,0.723,2.372
				c-0.339,0.288,0.767,2.347,0.767,2.348c0.611,1.395,0.798,2.171-0.339,3.499c-0.193,0.221-0.83,0.776-1.132,0.913
				c-0.496,0.222-0.886,0.51-1.166,0.981c-0.216,0.362-0.308,0.72-0.428,1.13c-0.106,0.362-0.141,0.818-0.345,1.141
				c1.985,0.016,4.702,0.123,6.486-0.73l-0.192-0.45l-0.192-2.493v-1.539l0.969-3.37l0.512-1.334v-1.055l1.041-1.198l2.799-3.857
				l-0.671-5.792l-4.224-1.152L23.209,34.373z"/>
			<g>
				<path fill-rule="evenodd" clip-rule="evenodd" fill="#FCD1BC" d="M27.273,49.31c0.048-0.875-2.428-0.353-2.594-1.525
					c-0.076-0.534-0.143-1.378,0.052-1.894c0.323-0.847-0.11-2.246-0.229-3.114c-0.126-0.923,0.146-1.762,0.424-2.627
					c0.229-0.715,0.414-1.556,0.99-2.084c0.787-0.721,1.924-1.034,2.868-0.479c0.8,0.47,0.896,1.544,0.669,2.418
					c-0.247,0.952-0.647,1.392-0.688,2.121c-0.038,0.704-0.094,1.217,0.355,0.586"/>
			</g>
			<path fill="#020202" d="M23.824,55.467l-1.241,0.913c-1.077,0.466-2.151,0.838-3.291,1.121c-0.567,0.143-1.304,0.195-1.743,0.631
				c-0.364,0.36-0.438,1.002-0.581,1.477c0.092-0.308-0.216-0.65-0.359-0.895c-0.496-0.84-0.546-2.473,0.46-2.991
				c0.904-0.465,2.022-0.229,2.99-0.211c1.062,0.019,2.09,0.114,3.148-0.045H23.824z"/>
			<path fill="#020202" d="M20.566,57.715c-0.638,0.167-1.301,0.244-1.905,0.523c-0.497,0.229-0.771,0.569-0.853,1.11
				c-0.049,0.32-0.159,0.612-0.442,0.793c-0.328,0.21-0.78,0.181-1.14,0.332c-0.547,0.231-1.224,0.593-1.591,1.074
				c-0.636,0.832-0.612,1.603-0.209,2.511c0.144-0.635,0.133-1.329,0.829-1.567c0.677-0.232,1.398-0.113,2.098-0.12
				c1.107-0.011,1.838-0.767,2.312-1.707c0.131-0.26,0.139-0.378,0.096-0.694c-0.057-0.438-0.024-0.917,0.123-1.334
				C19.961,58.414,20.333,57.776,20.566,57.715z"/>
			<path fill-rule="evenodd" clip-rule="evenodd" fill="#020202" d="M15.48,57.493c-0.139,0.822,0.453,1.337,0.614,2.067
				c0.176,0.8-0.638,0.722-1.129,0.894c-0.56,0.194-1.177,0.613-1.517,1.107c-0.555,0.81-0.283,1.812-0.08,2.689
				c-0.63-0.631-0.967-1.258-1.249-2.125c-0.28-0.862-0.386-1.406,0.018-2.257c0.487-1.024,1.645-0.673,2.343-1.409
				c0.296-0.312,0.536-0.67,0.776-1.024l0.32-0.512C15.576,56.924,15.48,57.493,15.48,57.493z"/>
			<path fill-rule="evenodd" clip-rule="evenodd" fill="#020202" d="M17.855,62.859c-0.772,0-1.851-0.194-2.454,0.391
				c-0.416,0.404-0.4,0.868-0.594,1.367c-0.315,0.809-1.36,1.06-1.761,1.788c-0.276,0.502-0.309,1.14-0.192,1.719
				c0.136,0.669,0.753,1.008,1.211,1.451c-0.226-0.508-0.599-1.038-0.329-1.59c0.164-0.337,0.497-0.545,0.837-0.669
				c0.545-0.198,1.168-0.215,1.638-0.594c0.468-0.378,0.759-0.815,0.874-1.438c0.113-0.614-0.468-1.73,0.3-2.162L17.855,62.859z"/>
			<path fill-rule="evenodd" clip-rule="evenodd" fill="#020202" d="M11.201,60.719c-0.052,0.242-0.001,0.989,0.08,1.227
				c0.195,0.574,0.352,1.207,0.755,1.695c0.338,0.409,1.425,0.951,1.292,1.579c-0.077,0.365-0.95,0.881-1.167,1.211
				c-0.271,0.411-0.439,0.66-0.419,1.159c0.041,1.008,0.76,1.874,1.725,2.167c-0.458,0.144-1.067,0.286-1.537,0.107
				c-1.143-0.437-2.143-0.854-2.412-2.14c-0.203-0.969,0.206-1.864,0.66-2.7c0.377-0.696,0.292-1.46,0.137-2.173
				C10.163,62.155,11.082,61.402,11.201,60.719z"/>
			<path fill-rule="evenodd" clip-rule="evenodd" fill="#020202" d="M16.154,67.28c-0.311,0.101-0.634,0.187-0.925,0.338
				c-0.483,0.253-0.89,0.393-0.803,1.03c0.03,0.214,0.161,0.42,0.23,0.628c0.28,0.839-0.651,1.202-0.97,1.804
				c-0.168,0.319-0.218,0.604-0.22,0.952c-0.001,0.335-0.16,0.008-0.057,0.323c0.046,0.141,0.198,0.407,0.184,0.556
				c0.037-0.386,0.242-0.172,0.421-0.525c0.119-0.237-0.058-0.319,0.169-0.418c0.193-0.11,0.205-0.211,0.383-0.344
				c0.273-0.202,0.479-1.052,0.708-1.302c0.252-0.276,0.597-0.457,0.535-0.801c-0.054-0.302,0.239-0.252,0.072-0.513
				c-0.242-0.371-0.434-0.763-0.258-1.207C15.714,67.576,15.971,67.434,16.154,67.28z"/>
			<path fill-rule="evenodd" clip-rule="evenodd" fill="#020202" d="M8.986,67.594c0.098,0.726,0.301,1.36,0.812,1.908
				c0.347,0.373,0.982,0.775,1.47,0.931c0.486,0.152,1.668-0.028,1.825,0.051c0.239,0.121-0.587,0.733-0.75,0.882
				c-0.239,0.221-0.491,0.665-0.498,0.99c-0.005,0.293,0.08,0.615,0.2,0.882c0.047,0.104,0.186,0.461,0.3,0.5
				c0.047,0.016,0.208,0.479,0.208,0.479L10.81,76.12l-0.847,0.268c-0.036-0.038-0.364-0.473-0.491-0.92
				c-0.134-0.467-0.067-0.948-0.065-1.01c0.008-0.271,0.02-0.541,0.053-0.811c0.09-0.745,0.505-1.448,0.471-2.211
				c-0.035-0.819-0.688-1.294-1.017-1.996c-0.164-0.351-0.22-0.751-0.205-1.137c0.007-0.189,0.026-0.386,0.073-0.57
				c0.035-0.136,0.179-0.304,0.157-0.444L8.986,67.594z"/>
			<path fill-rule="evenodd" clip-rule="evenodd" fill="#020202" d="M44.342,56.318c0.857-0.129,1.618,1.677,1.004,1.665
				C45.412,57.984,44.442,56.473,44.342,56.318z"/>
			<path fill-rule="evenodd" clip-rule="evenodd" fill="#020202" d="M31.526,54.507c-0.042-0.865,2.409-2.013,2.334-1.403
				C33.869,53.038,31.688,54.422,31.526,54.507z"/>
			<path fill-rule="evenodd" clip-rule="evenodd" fill="#FFFFFF" d="M47.723,46.927c-0.176-0.074-0.26,0.061-0.329,0.221
				c-0.064,0.15,0.646,0.407,0.457-0.087C47.824,46.992,47.778,46.949,47.723,46.927z"/>
			<path fill-rule="evenodd" clip-rule="evenodd" fill="#FFFFFF" d="M36.226,43.881c-0.176-0.073-0.26,0.062-0.329,0.223
				c-0.064,0.149,0.646,0.406,0.457-0.087C36.327,43.947,36.281,43.903,36.226,43.881z"/>
			<path fill="#FFD68A" d="M31.656,37.158c-0.092-0.511,0.597-2,1.031-2.203c1.233-0.578,1.448-1.423,1.472-1.458
				c0.184-0.273,0.423-0.423,0.68-0.532c-0.396-0.091-0.809-0.159-1.314-0.509c-0.719-0.498-0.869-0.696-0.891-1.316
				c-0.037-1.045-0.917-1.226-1.655-1.425c-0.827-0.221-1.427,0.424-1.037,1.182c0.955,1.849-2.341,0.071-1.43,1.792
				c0.021,0.04-0.396,0.419-0.511,0.399c-1.801-0.336-0.942,1.172-1.076,1.789c-0.104,0.482,0.652,0.625,1.123,0.551
				c0.105-0.501-0.037-0.501-0.235-0.963c-0.122-0.286-0.186-0.636,0.329-0.443c0.72,0.269,2.042,1.74,1.846,2.168
				C29.467,37.321,31.926,38.651,31.656,37.158z"/>
			<g>
				<path fill-rule="evenodd" clip-rule="evenodd" fill="#020202" d="M65.191,99.178c-0.3,0.377-0.229,1.225-0.737,1.151
					c-0.386-0.055-0.303-0.869-0.376-1.359c-0.227-1.527-0.452-3.056-0.669-4.585c-0.032-0.225-0.046-0.447-0.253-0.59
					c-0.161-0.111-0.34-0.198-0.53-0.093c-0.188,0.104-1.606,0.275-1.606,0.426c-0.007,1.648,0.378,3.226,0.376,4.877
					c-0.002,1.161,0.287,1.991,0.343,3.152c0,0-2.391,0.587-2.375,0.396c0.052-0.646-0.111-1.265,0.053-1.915
					c0.316-1.255,0.346-2.508,0.081-3.78c-0.294-1.407-0.679-1.619-1.893-0.973c-0.073-0.414,0.156-0.744,0.369-1.037
					c0.744-1.027,1.316-1.042,2.378-1.812c1.541-0.573,2.335-1.467,3.507-0.199c0.442,0.479,0.332,1.075,0.484,1.608
					c0.371,1.294,1.192,2.534,0.618,3.979C64.837,98.733,64.93,98.984,65.191,99.178z"/>
				<path fill-rule="evenodd" clip-rule="evenodd" fill="#020202" d="M42.37,80.679c0.771,0.221,1.655,0.826,2.007,1.759
					c-0.042,0.284,0.006,0.631-0.14,0.841c-0.601,0.859,0.808,1.745,0.666,1.653c1.817,1.169,3.064,1.737,3.577,3.27
					c-0.6-0.05-0.553,0.562-0.562,0.953c-0.005,0.246,0.043,0.604-0.291,0.608c-0.321,0.003-0.445-0.319-0.467-0.628
					c-0.023-0.318,0.009-0.645-0.052-0.955c-0.172-0.883-0.537-1.049-1.324-0.61c-0.228,0.127-0.434,0.322-0.69,0.128
					c-0.277-0.21-0.112-0.519,0.002-0.693c0.322-0.487,0.167-0.711-0.314-0.934c-0.53-0.246-0.743-1.062-1.578-0.812
					c-0.234,0.071-0.308-0.292-0.233-0.514c0.079-0.238,0.217-0.458,0.337-0.683c0.723-1.348,0.638-2.035-0.653-2.83
					C42.533,81.156,42.463,80.801,42.37,80.679z"/>
				<path fill-rule="evenodd" clip-rule="evenodd" fill="#020202" d="M39.299,77.064c1.329,0.576,2.095,1.719,2.649,2.944
					c0.34,0.753,0.71,1.34,1.452,1.682c-0.47,0.072-0.85-0.237-1.291-0.306c-0.299-0.048-0.56-0.124-0.77,0.172
					c-0.51,0.719-0.744,0.181-0.854-0.247c-0.133-0.52-0.219-1.084-0.165-1.614C40.433,78.618,40.007,77.798,39.299,77.064z"/>
			</g>
			<path fill-rule="evenodd" clip-rule="evenodd" fill="#020202" d="M61.198,94.089c-0.409,0.837-1.158,0.682-1.84,0.573
				c-0.873-0.136-1.365,0.158-1.318,1.054c0.051,0.992-0.362,0.931-1.003,0.583c-0.962-0.523-1.678-1.359-2.518-2.037
				c-0.397-0.318-0.594-0.888-0.432-1.492c0.197-0.74-0.187-1.038-0.879-0.934c-0.83,0.126-1.453-0.014-1.681-0.947
				c-0.04-0.162-0.235-0.296-0.378-0.42c-0.167-0.146-0.367-0.328-0.584-0.125c-0.187,0.174,0.004,0.36,0.098,0.507
				c0.342,0.533,0.527,1.123,0.639,1.751c-0.968-1.158-1.713-2.447-2.306-3.828c0.378-0.052,0.768-0.015,1.136-0.148
				c0.186,0.007,0.364,0.05,0.542,0.094c0.642,0.188,1.303,1.143,1.975,1.368c1.875,0.629,2.774,1.178,4.109,2.395
				c0.198,0.181,0.403,0.408,0.516,0.679c0.199,0.126,0.397,0.252,0.596,0.38C58.841,94.549,59.997,94.458,61.198,94.089z"/>
			<path fill-rule="evenodd" clip-rule="evenodd" fill="#020202" d="M15.811,75.169c0.191,1.162-0.365,2.655-0.504,3.776
				c-0.125,1.005-0.014,2.004,0.004,3.014c0.138,1.078,0.458,2.159,1.109,3.087c0.126,0.179,0.485,0.398,0.222,0.577
				c-0.233,0.159-0.403-0.028-0.579-0.18c-1.118-0.965-1.539-2.324-1.924-3.647c-0.435-1.496-0.363-3.015,0.288-4.494
				C14.839,76.364,15.811,75.169,15.811,75.169z"/>
			<path fill-rule="evenodd" clip-rule="evenodd" fill="#020202" d="M37.373,92.415c0.913-1.004,1.93-1.869,2.933-2.752
				c1.098-0.571,1.997-1.503,3.019-2.215c0.669-0.365,1.205-0.544,1.99-0.686c0.291-0.073,1.242,0.304,1.242,0.304
				c-1.286,1.049-2.236,2.872-2.683,4.168c-0.379,1.098-1.33,2.048-1.942,2.971c-0.55,0.827-0.87,1.668-1.313,2.56
				c-0.511,0.924-0.389,0.853-0.312,1.945c0.015,0.212,0.042,0.476-0.239,0.52c-0.248,0.04-0.486-0.582-0.55-0.79
				c-0.039-1.896,0.275-2.045,0.378-2.487c0.345-1.497,1.084-2.796,2.249-3.812c0.737-0.646,1.278-1.473,1.398-2.541
				c0.08-0.722-0.195-0.971-0.767-0.627c-1.326,0.793-2.606,1.688-3.837,2.667C37.583,92.717,36.555,93.574,37.373,92.415z"/>
			<path fill-rule="evenodd" clip-rule="evenodd" fill="#020202" d="M54.675,102.991c-0.296-0.27-0.589-0.543-0.88-0.817
				c-1.048-0.995-1.945-2.146-2.912-3.229c-0.783-1.163-1.398-2.419-2.034-3.665c-0.295-1.301-1.009-2.437-1.466-3.677
				c-0.198-0.794-0.241-1.413-0.181-2.302c0.001-0.333,0.632-1.326,0.632-1.326c0.129,1.744-0.036,2.26,0.163,2.944
				c0.463,1.588,1.828,4.668,2.503,6.177c0.744,1.663,1.85,3.072,3.113,4.377c0.305,0.316,0.702,0.41,1.036,0.619
				c0.399,0.247,0.763,0.534,1.114,0.837L54.675,102.991z"/>
		</g>
	</g>
	<path fill-rule="evenodd" clip-rule="evenodd" fill="none" stroke="#FFFFFF" stroke-width="3.0195" stroke-miterlimit="10" d="
		M1.51,53.114c0-28.5,23.104-51.604,51.605-51.604c28.501,0,51.605,23.104,51.605,51.604c0,28.501-23.104,51.605-51.605,51.605
		C24.614,104.72,1.51,81.615,1.51,53.114"/>
</g>
</svg>
