<?xml version="1.0" encoding="utf-8"?>
<!-- Generator: Adobe Illustrator 16.0.0, SVG Export Plug-In . SVG Version: 6.00 Build 0)  -->
<!DOCTYPE svg PUBLIC "-//W3C//DTD SVG 1.1//EN" "http://www.w3.org/Graphics/SVG/1.1/DTD/svg11.dtd">
<svg version="1.1" xmlns="http://www.w3.org/2000/svg" xmlns:xlink="http://www.w3.org/1999/xlink" x="0px" y="0px"
	 width="261.549px" height="108.903px" viewBox="0 0 261.549 108.903" enable-background="new 0 0 261.549 108.903"
	 xml:space="preserve">
<g id="Layer_2">
</g>
<g id="Layer_1">
	<text transform="matrix(1 0 0 1 117.8584 81.438)"><tspan x="0" y="0" fill="#010101" font-family="'RobotoSlab-Regular'" font-size="14.5733">ANIMAL HOSP</tspan><tspan x="108.888" y="0" fill="#010101" font-family="'RobotoSlab-Regular'" font-size="14.5733" letter-spacing="1">I</tspan><tspan x="114.765" y="0" fill="#010101" font-family="'RobotoSlab-Regular'" font-size="14.5733">T</tspan><tspan x="123.318" y="0" fill="#010101" font-family="'RobotoSlab-Regular'" font-size="14.5733">AL</tspan></text>
	<text transform="matrix(1 0 0 1 119.0986 58.7808)" fill="#010101" font-family="'KaushanScript-Regular'" font-size="45.5417">Alison</text>
	<g>
		<path fill-rule="evenodd" clip-rule="evenodd" fill="#FFFFFF" d="M4.659,54.781c0-27.105,21.974-49.079,49.08-49.079
			c27.105,0,49.078,21.974,49.078,49.079S80.843,103.86,53.738,103.86C26.633,103.86,4.659,81.886,4.659,54.781"/>
		<path fill="#7B3E1F" d="M42.175,72.43l-0.164-3.529l-0.316-3.052l1.533-1.303l3.185-1.59l2.225-0.79l3.263-4.2l1.34-3.98
			l0.793-5.438l1.686-1.815l3.172-1.089l3.428-1.527l5.586,1.111l5.257,2.194l4.976,3.174l2.771,1.538l4.532,2.757l1.899,4.146
			l0.366,3.129l0.186,2.598l0.94,3.495l0.087,2.845l-0.522,1.523l1.523,1.661l-0.356,1.952l1.201,2.281c0,0-0.884,1.712-1.083,2.334
			s-1.039,3.385-1.039,3.385l1.519,3.432l-9.232,7.722l-3.261-8.711H73.79l-1.757,0.626l-1.263,2.629l-1.249,1.614l-3.238,1.277
			l-1.93,0.78c-0.984,0.399-2.971,0.055-4.021,0.013c-1.522-0.062-3.129-0.192-4.543-0.801c-2.185-0.939-3.729-3.253-5.308-4.959
			l-4.311-2.432l-1.351-4.98l-0.308-2.407l0.497-1.882l0.441-3.008"/>
		<path fill="#AF7544" d="M69.125,59.463l0.685-2.332c0.456-0.338,1.668-1.053,2.704-0.788c1.433,0.366,2.576,0.38,3.579,1.465
			c0.397,0.43,1.924,2.346,2.198,2.858c0.29,0.543,0.097,0.957,0.21,1.562c0.07,0.375-0.695,0.749-0.624,1.123l-4.561,6.051
			l-1.884,2.307l-1.454,2.238l-1.154,6.331l1.356,0.816L70.073,84.4l1.109,3.746l-1.155,2.841l-2.685,1.84
			c0,0-4.043,0.767-4.108,0.795c-0.513,0.224-2.485,0.479-3.056,0.457c-1.586-0.061-1.334,0.123-2.877-0.249
			c-0.241-0.059-1.374-0.644-1.43-0.839c-0.148-0.516,0.005-1.358,0.318-1.771c0.322-0.425,0.435-0.642,0.757-1.065
			c0.009-0.012,1.305,0.507,2.644,0.382c0.595-0.057,1.198,0.094,1.701,0.037c0.351-0.039,0.865-0.419,1.07-0.687
			c0.399-0.521-0.477-0.849-0.883-0.961c-1.922-0.53-4.281-0.438-4.443-0.81l1.441-2.364l-2.498-3.524l3.179,0.75l3.124,0.752
			l2.748-1.713v-2.158l-1.752-1.794l-2.977-0.893c0.146-2.327,0.073-6.038,0.549-8.322c0.508-2.444,2.421-3.404,4.339-4.67
			c1.898-1.252,3.778,1.857,5.667,0.591C71.309,64.465,68.917,60.258,69.125,59.463z"/>
		<path fill="#AF7544" d="M50.09,62.915v3.033l0.547,3.309c0.133,0.36,0.268,0.72,0.4,1.08c0.342,0.929,0.462,2.111,1.656,2.234
			c0.587,0.061,0.855-0.199,1.073-0.709c0.175-0.411,1.012-0.822,1.188-1.233c0.209-0.489,0.462-1.072,0.621-1.582
			c0.246-0.789,0.814-1.23,0.779-2.067c-0.02-0.516,1.169-1.267,1.528-1.52c0.625-0.44,1.697-0.466,2.013-1.247
			c0.143-0.352-0.695-2.05-0.539-2.431c0.737-1.789,0.527-3.698,0.282-3.765c-0.384-0.104-3.234-2.196-3.671-2.284
			c-0.593-0.119-4.641,3.077-5.175,3.983C50.499,60.216,50.09,62.915,50.09,62.915z"/>
		<path fill="#AF7544" d="M80.017,87.124c-0.263-0.513-0.457-0.786-0.496-1.354c-0.059-0.853-0.001-1.979,0.335-2.777
			c0.511-1.213,1.361-1.082,2.324-1.671c0.583-0.356,0.672-1.157,0.865-1.75c0.24-0.737,0.718-2.439,1.64-2.6
			c0.46-0.08,0.914,0.126,1.376,0.029c0.476-0.098,0.92-0.409,1.228-0.776c0.521-0.619,0.726-1.534,1.112-2.245
			c0.057-0.104,0.776-1.405,0.937-0.995c0.137,0.35,1.165,1.113,1.24,1.784c0.057,0.502,0.114,1.598,0.287,2.066
			c0.162,0.435-0.051,1.269,0.152,1.685c0.098,0.201,0.204,0.633,0.204,0.861l-0.627,2.09l-0.209,2.297l-0.733,1.601
			c0,0-2.239,1.053-2.512,1.084c-0.273,0.031-2.71,1.046-2.71,1.046h-1.539l-1.734-0.513C81.14,86.838,80.125,87.335,80.017,87.124z
			"/>
		<polygon fill="#FFFAFC" points="60.299,77.171 62.695,78.043 64.639,79.109 64.889,80.734 63.889,83.126 60.779,84.36 
			57.45,83.126 55.815,81.959 55.268,80.766 55.815,79.359 57.128,78.043 58.805,77.373 		"/>
		<polygon fill="#FCD1BC" points="33.447,39.051 32.717,40.604 30.259,37.979 27.509,37.979 25.696,39.729 25.365,44.5 
			25.365,46.764 25.633,50.167 26.871,52.333 27.93,55.052 28.525,56.183 28.536,58.809 27.634,62.109 31.373,65.311 34.179,67.25 
			36.311,69.358 40.567,72.1 41.125,72.904 43.326,72.852 42.448,68.332 41.755,65.311 44.013,64.155 46.761,62.732 49.027,61.666 
			50.531,59.791 51.43,58.421 52.358,56.553 52.838,54.065 53.738,50.167 54.452,45.272 55.268,41.604 56.075,39.479 55.815,36.979 
			55.268,35.416 53.952,34.166 50.377,33.727 46.973,32.29 44.819,31.352 42.136,30.952 39.823,30.952 38.54,31.79 37.603,33.666 
			36.859,35.001 35.34,36.416 34.179,37.729 		"/>
		<path fill-rule="evenodd" clip-rule="evenodd" fill="#FFFFFF" d="M38.948,58.083l-2.088-0.659l0.422,0.606l0.623,0.346
			l1.044,0.457l0.792,0.312c0,0,0.229,0.222,0.594,0.383c0.364,0.161,1.361,0.262,1.361,0.262l1.29-0.262l0.56-0.133l0.404-0.312
			l0.371-0.477l-0.745-0.082l-1.208,0.082l-1.167-0.103l-1.375-0.224L38.948,58.083z"/>
		<polygon fill-rule="evenodd" clip-rule="evenodd" fill="#FFFFFF" points="36.859,58.253 36.859,58.809 37.2,59.396 37.848,59.791 
			38.823,60.107 39.448,60.508 40.133,59.838 39.698,59.396 38.656,58.817 37.603,58.607 		"/>
		<polygon fill-rule="evenodd" clip-rule="evenodd" fill="#ECBA9F" points="71.402,87.002 70.619,89.532 70.179,90.842 
			67.16,92.483 68.264,94.57 68.264,96.347 69.282,99.738 80.079,94.57 79.5,92.274 78.506,89.532 77.412,87.472 76.177,86.149 
			74.162,86.053 72.494,86.497 		"/>
		<polygon fill="#E2F4FD" points="11.098,78.043 20.07,65.732 22.128,63.514 23.633,62.468 25.365,62.109 26.852,62.231 
			28.536,62.881 32.572,65.983 37.848,70.348 40.133,72.43 41.125,72.904 42.996,72.821 44.819,72.58 44.318,77.734 43.794,81.388 
			45.672,83.126 46.364,85.541 48.572,87.002 51.137,89.165 54.452,91.423 57.007,93.18 60.397,94.699 66.557,93.872 68.005,94.081 
			69.265,100.425 64.611,102.09 59.33,102.904 53.221,102.904 47.955,102.487 42.996,101.799 36.859,100.072 30.491,96.907 
			26.18,94.188 22.128,91.361 18.934,88.486 16.07,84.922 13.488,81.635 		"/>
		<path fill-rule="evenodd" clip-rule="evenodd" fill="#ECBA9F" d="M55.018,35.475c-0.141,0.558-0.279,3.299-0.5,3.839
			c-0.237,0.581-0.61,1.091-0.847,1.67c-0.226,0.554-0.582,1.04-0.84,1.577c-0.138,0.285-0.274,0.592-0.314,0.91
			c-0.038,0.302,0.048,0.582-0.141,0.853c-0.418,0.603-1.537,0.15-2.1,0.083c-1.028-0.124-2.321,0.218-3.358,0.281
			c-1.188,0.073-1.272,0.399-1.683,1.439c-0.407,1.027-0.568,1.008-0.932,1.895c-0.374,0.913-0.956,2.021-0.855,3.009
			c0.07,0.692,0.199,1.568-0.052,2.241c-0.131,0.349-0.486,0.65-0.911,0.713c-0.315,0.045-1.448,0.115-1.922-0.035
			c-0.435-0.139-0.833-0.347-1.277-0.48l2.912,2.261l1.792,0.25c0,0,0.305,0.533-0.195,0.775c-0.427,0.207,0.357,1.222-0.511,1.577
			c-1.45,0.594,1.328,0.029,1.065,0.369c-0.443,0.577-2.266,1.762-2.384,1.997c-0.076,0.152-0.739,2.497-1.177,2.857
			c-0.275,0.227-1.279,0.943-2.413,0.87c-1.81-0.117-3.948-1.083-3.98-0.496c-0.013,0.238,1.02,0.961,2.098,1.403
			c1.194,0.489,2.446,0.692,2.4,0.749c-0.17,0.21,3.408-1.167,3.234-0.962c-0.398,0.468,3.076-1.917,2.529-1.607
			c-0.001,0,1.055-0.949,1.055-0.949l3.074-0.856l2.174-2.132l1.996-4.677l0.383-4.27l0.397-4.441L54.345,46l0.657-2.938
			l0.777-2.804l0.171-1.447l-0.135-0.916L55.018,35.475z"/>
		<path fill-rule="evenodd" clip-rule="evenodd" fill="#C2E8FB" d="M45.949,88.36l-2.154,1.118l-1.888,1.302l-1.5,1.303
			l-0.875,0.812l-0.992,0.814c-0.197,0.313-0.114,0.83,0.479,0.83c0.087,0,3.249-2.885,3.542-2.266
			c0.246,0.518-1.374,2.472-2.852,4.128c-1.141,1.276-0.948,2.375-1.002,2.498c-0.199,0.446,2.925,1.066,3.336,1.404
			c1.01,0.83,2.543-4.275,3.502-3.952c0.557,0.188,3.589,5.235,4.087,5.336c0.615,0.123,3.617-0.062,4.22-0.062
			c1.904,0,3.809,0,5.712,0c0.615,0,1.229,0,1.844,0c0,0,4.505-0.708,4.421-0.881c-0.075-0.158,2.717-1.115,2.959-1.19
			c-0.307-0.912-0.15-1.693-0.275-2.452c-0.121-0.73-0.272-2.272-0.825-2.769c-0.624-0.561-4.67,0.671-5.565,0.538l-1.767,0.174
			l-4.074-2.561l-4.375-2.625l-1.531-1.708l-1.805-0.804l-1.444,0.369L45.949,88.36z"/>
		<path fill-rule="evenodd" clip-rule="evenodd" fill="#ECBA9F" d="M40.584,72.58l1.693,0.327c0.105-0.31,0.14-6.278-0.79-7.137
			c-0.556-0.514-1.765,0.318-2.626,0.156c-0.5-0.094-2.218-0.5-2.218-0.5s-2.674-2.48-2.675-2.481
			c0.11,0.103,0.043,0.875,0.048,1.042c0.011,0.384,0.009,0.771-0.058,1.15c-0.102,0.593-0.386,1.139-0.62,1.688L40.584,72.58z"/>
		<path fill-rule="evenodd" clip-rule="evenodd" fill="#ECBA9F" d="M35.88,41.211c0.659-0.294,0.267-0.075,0.461-0.725
			c0.184-0.615,0.633-1.117,0.962-1.656c0.557-0.91,1.569-1.381,2.335-2.08c0.383-0.35,0.716-0.758,0.875-1.26
			c0.166-0.523,0.056-1.244,0.531-1.623c0.18-0.145,0.613-0.475,0.842-0.509c0.503-0.076,1.033,0.3,1.524,0.375
			c0.114,0.018,0.996,0.14,1.033,0.077l3.854,0.658l-2.207-2.617l-5.632-1.149h-1.837l-1.434,3.935l-2.883,3.092l-1.461,2.529
			l1.108,0.408C33.95,40.667,34.854,41.667,35.88,41.211z"/>
		<path fill="#C2E8FB" d="M25.288,61.816c-0.31,0.053,0.93,6.358,0.632,6.238c0.452,0.182,6.345,1.52,6.797,1.701l3.177,1.661
			l1.667,1.436l1.542,1.902l1.486,2.038l2.779,3.974l1.452-7.914l-3.424,0.272l-2.35-2.005l-2.186-1.828l-1.715-1.365
			c-0.057-0.046-1.968-1.746-2.083-1.676c-0.206,0.124-1.912-1.873-3.319-2.786C27.716,62.148,25.772,61.735,25.288,61.816z"/>
		<path fill="#C2E8FB" d="M43.596,87.429c-0.203-1.431-1.781-2.75-2.479-4.031c-0.472-0.866,0.517-2.636-0.599-4.391
			c-0.963-1.516-5.211-1.178-5.578-1.651c-0.781-1.007-1.726-1.874-2.578-2.82c-0.877-0.974-1.977-1.715-3.083-2.406
			c-0.89-0.556-2.124-1.045-2.653-2.001c-0.104-0.186-0.946-2.247-1.103-2.273l5.112,0.888l3.636,1.752l3.08,1.936l2.862,3.487
			l3.211,4.533l2.329,2.407l1.794,4.145l-1.586,2.656l-1.644-0.453l-2.716,1.574C41.602,90.78,43.82,89.008,43.596,87.429z"/>
		<path fill="#C2E8FB" d="M18.526,74.674c-0.478,1.364-0.274,0.582-0.245,2.042c0.02,0.985-0.568,3.237-0.386,5.308
			c0.157,1.79,4.084,3.445,4.192,4.035c0.229,1.253,0.669,2.458,0.99,3.688c0.504,1.933,0.763,1.432,1.752,3.147
			c0.105,0.182,0.803,1.875,0.928,2.044l-3.264-2.665l-2.648-2.742l-2.95-3.87l-2.699-3.514l-2.057-4.438l0.75-1.548l2.579-3.582
			l1.547-1.663l3.053-5.185l2.655-2.787l2.825-0.901l0.201,5.83l-2.667,0.566C23.085,68.44,19.054,73.169,18.526,74.674z"/>
		<path fill-rule="evenodd" clip-rule="evenodd" fill="none" stroke="#010101" stroke-width="3.6433" stroke-miterlimit="10" d="
			M5.373,54.065c0-27.105,21.974-49.078,49.079-49.078c27.105,0,49.079,21.973,49.079,49.078s-21.974,49.079-49.079,49.079
			C27.347,103.144,5.373,81.17,5.373,54.065"/>
		<polygon fill-rule="evenodd" clip-rule="evenodd" fill="#FFD68A" points="48.297,22.129 47.273,24.317 46.448,25.754 
			45.46,29.067 48.782,31.943 48.297,33.755 52.358,33.97 53.952,34.166 55.399,35.475 55.815,36.979 55.837,42.194 59.913,41.944 
			60.4,39.631 59.913,37.069 59.913,34.631 58.392,30.952 56.075,27.692 53.323,24.567 51.269,22.568 49.396,22.129 		"/>
		<polygon fill-rule="evenodd" clip-rule="evenodd" fill="#FFD68A" points="21.766,54.856 21.02,57.124 18.654,56.838 
			17.709,57.424 17.269,57.835 16.896,58.809 16.363,60.301 14.094,60.508 13.488,61.144 13.086,61.467 12.823,61.802 
			12.545,62.945 12.352,65.718 11.685,67.25 11.374,66.978 11.098,67.51 10.685,67.926 10.371,68.884 10.657,70.003 12.915,74.493 
			18.322,68.131 18.019,66.104 18.103,64.674 18.728,64.155 19.435,63.929 19.687,63.718 19.937,63.385 20.317,62.945 
			20.812,61.802 20.937,60.092 21.367,59.381 22.128,58.817 23.024,57.936 23.469,57.424 24.977,56.87 25.365,56.583 26.852,55.73 
			25.238,55.052 		"/>
		<g>
			<path fill-rule="evenodd" clip-rule="evenodd" fill="#020202" d="M45.357,58.152c2.693-0.061,1.135,0.775,0.92,0.792
				c-0.299,0.024-0.875,0.444-1.127,0.637c-0.611,0.462-1.642,0.747-2.477,1.036c-0.79,0.272-1.413,0.184-1.481,0.187
				c-1.685,0.086-3.152-0.557-4.292-1.686c-0.879-0.872-1.832-1.776-2.176-3.082c-0.082-0.309-0.247-0.642-0.689-0.753
				c-0.606-0.15-0.112-0.621,0.169-0.338c0.338,0.341,1.136,1.272,1.481,1.531c0.32,0.24,1.93,0.254,2.496,0.595
				c1.981,1.195,4.789,1.372,6.958,1.088 M42.038,59.492c0.401-0.034,1.678-0.423,2.107-0.74c-0.76-0.332-1.471,0.151-2.097,0.083
				c-0.184-0.096-1.112-0.15-1.327-0.125c-0.482,0.058-1.399-0.537-1.731-0.553c-0.739,0.014-2.083-0.707-1.73-0.409
				c0.298,0.371,1.789,1.203,2.212,1.337C39.77,59.179,40.983,59.583,42.038,59.492z M37.206,58.414
				c-0.075,0.458,0.147,0.692,0.432,0.921c0.43,0.346,0.991,0.316,1.459,0.547c0.191,0.095,0.428,0.064,0.481-0.163
				c0.042-0.179-0.168-0.241-0.329-0.301C38.554,59.163,37.857,58.914,37.206,58.414z"/>
			<path fill-rule="evenodd" clip-rule="evenodd" fill="#020202" d="M34.656,44.875c-0.027,0.08-0.023,0.172,0.024,0.279
				c0,0,0.702-0.111,0.811-0.143l0.572-0.144c0,0,0.234,0.188,0.238,0.19c0.054,0.043-0.147,0.848,0.071,1.071
				c0,0,0.78,0.247,1.077,0.357c0.427,0.159,1.088,0.29,1.088,0.29c0.24,0.099,0.651-0.599,0.721-0.764c0,0,0.285-0.427,0.286-0.43
				c-0.019,0.084,0.267,0.639,0.29,0.847c0.029,0.278-0.122,0.828,0.078,1.059l0.635,0.241c0.133-1.209-0.373-2.594-1.398-3.148
				c-0.49-0.265-1.02-0.455-1.57-0.532C36.916,43.956,34.94,44.022,34.656,44.875z"/>
			<path fill-rule="evenodd" clip-rule="evenodd" fill="#020202" d="M45.966,48.656c-0.006,0.082,0.019,0.168,0.089,0.259
				c0.077,0.1,0.639-0.271,0.734-0.328l0.508-0.272c0,0,0.267,0.122,0.271,0.125c0.062,0.027,0.151,0.808,0.448,0.882
				c0,0,2.114,0.158,2.114,0.158c0.552,0.013,0.644-0.956,0.634-1.315c0.002,0.084,0.405,0.542,0.476,0.733
				c0.095,0.256,0.083,0.813,0.327,0.984l0.521-0.084c-0.161-1.177-0.834-2.206-1.937-2.488c-0.527-0.135-1.074-0.188-1.615-0.131
				C47.887,47.247,46.032,47.778,45.966,48.656z"/>
			<g>
				<path fill-rule="evenodd" clip-rule="evenodd" fill="#020202" d="M88.132,61.838c0.241,1.411,0.014,2.881,0.264,4.31
					c0.036,0.205,0.067,0.484,0.316,0.547c0.337,0.084,0.244,0.692,0.133,1.186c-0.053,0.235-0.202,0.412-0.466,0.376
					c-0.23-0.031-0.258-0.245-0.293-0.433c-0.094-0.496-0.229-0.987-0.272-1.488c-0.167-1.964-0.311-3.931-0.448-5.897
					c-0.015-0.213,0.071-0.432,0.11-0.647"/>
				<path fill-rule="evenodd" clip-rule="evenodd" fill="#020202" d="M87.416,59.529c-0.764-1.371-1.557-2.727-2.272-4.123
					c-0.194-0.38-1.859-1.693-2.217-1.908c-0.375-0.226-1.008-0.539-1.033-0.939c-0.358-0.153,0.76,0.424,2.677,1.225
					c0.186,0.077,1.686,0.906,1.613,1.089c0.527,1.16,0.886,1.961,0.872,2.983c-0.004,0.29,0.102,0.62,0.363,0.731
					C88.222,58.93,87.855,59.217,87.416,59.529z"/>
				<g>
					<path fill-rule="evenodd" clip-rule="evenodd" fill="#020202" d="M73.729,46.038c-0.012,0.143,0.101,0.198,0.243,0.171
						c1.334,0.888,2.807,1.62,3.857,2.85c0.928,1.086,1.997,1.981,3.103,2.855c-0.894,0.668-2.051,0.523-2.987-0.335
						c-1.581-1.452-4.287-2.667-6.431-2.733c-0.432-0.014-0.821,0.146-1.233,0.146c-0.241,0.001-0.164-0.343-0.514-0.317
						c-1.182,0.086-2.839,0.965-3.748,1.721c-1.364,1.135-2.311,0.978-3.148-0.656c-0.379-0.738-0.402-1.123-1.144-1.538
						c-0.571-0.319-1.272-0.374-1.86-0.666c-1.884-0.936-3.101,0.116-4.854,0.746c-0.179,0.063-0.266,0.466-0.51,0.293
						c-0.295-0.208-0.111-0.53,0.03-0.767c0.376-0.635,0.743-1.308,1.044-1.945c0.416-0.883,0.738-1.855,1.073-2.8
						c0.214-0.604,0.615-1.13,0.46-1.866"/>
					<path fill-rule="evenodd" clip-rule="evenodd" fill="#020202" d="M62.959,86.124c-0.269-0.036-0.532-0.037-0.583,0.309
						c-0.048,0.321,0.15,0.527,0.385,0.714c0.224,0.178,0.931,0.055,0.585,0.562c-0.241,0.354-0.751,0.833-1.373,0.429
						c-0.184-0.119-0.323-0.309-0.575-0.3c-0.294,0.011-0.49,0.201-0.588,0.425c-0.188,0.432,0.46,0.361,0.469,0.723
						c-0.178,0.259-0.473,0.186-0.671,0.097c-0.887-0.398-1.76-0.529-2.752-0.372c-0.855,0.136-2.019-1.392-2.168-2.62
						c0.288-0.31,0.665-0.406,1.065-0.447c0.362,0.197,0.722,0.476,1.204-0.005c-0.674-0.192-1.003-0.749-1.532-1.04
						c-0.218-0.444-0.394-0.917-0.663-1.33c-1.229-1.886-0.956-4.057,0.714-5.503c0.112-0.097,0.165-0.263,0.245-0.395
						c1.106-0.807,2.693-0.78,3.532-2.071c0.219-0.338,0.668-0.622,1.042-0.523c0.557,0.146,0.507,0.56,0.243,1.05
						c-0.438,0.813-0.211,1.24,0.644,1.298c1.741,0.116,3.129,0.712,3.759,2.504c0.121,0.345,0.401,0.636,0.608,0.951
						c0.002,0.184,0.005,0.368,0.007,0.553c-0.325,1.011-0.649,2.021-0.974,3.033l0.002,0.011c-0.311,0.197-0.623,0.395-0.934,0.593
						C64.024,85.141,63.671,85.855,62.959,86.124z M59.511,77.804c-0.92,0.03-3.436,1.624-3.722,2.61
						c-0.138,0.478,0.08,0.91,0.519,1.225c0.568,0.405,0.481-0.276,0.723-0.407c0.25-0.135,0.464-0.342,0.722-0.453
						c0.507-0.218,1.017-0.709,1.509,0.114c0.298,0.499,1.026,0.943,1.374,0.998c0.722,0.113,0.743,0.347,0.673,0.888
						c-0.021,0.155,0.098,0.306,0.287,0.316c0.189,0.01,0.294-0.135,0.338-0.282c0.216-0.709,0.68-1.045,1.409-1.221
						c0.57-0.138,0.97-0.715,0.995-1.275c0.027-0.585-0.477-0.782-1.056-0.982c-1.128-0.392-2.37-0.531-3.351-1.311
						C59.79,77.912,59.605,77.852,59.511,77.804z M59.262,87.781c-0.312-0.246-0.948-0.057-0.787-0.703
						c-0.627,0.097-1.056,0.525-0.657,1.027C58.067,88.418,58.829,88.444,59.262,87.781z"/>
					<path fill-rule="evenodd" clip-rule="evenodd" fill="#020202" d="M70.553,66.919c-0.205,0.063-0.405,0.124-0.597,0.175
						c-0.833,0.222-0.957,0.082-1.365-0.714c-0.631-1.229-0.509-2.726-1.339-3.896c-0.077-0.108-0.044-0.275,0.08-0.33
						c0.25-0.111,0.495-0.301,0.798-0.1c0.305,0.205,0.61,0.528,0.944,0.008c0.285-0.444,0.606-0.863,0.045-1.322
						c-0.349-0.284-0.23-0.595,0.034-0.8c0.331-0.257,0.5,0.022,0.622,0.31c0.335,0.79,0.833,0.33,1.235,0.114
						c0.317-0.17,0.653,0.548,1.82,0.768c1.25,0.234,2.114,1.118,2.286,2.374c0.049,0.361,0.188,0.668,0.39,0.954
						c0.195,0.279,0.048,0.396-0.205,0.474c-0.162,0.01-0.324,0.019-0.486,0.027c-0.638,0.05-0.915,1.47-1.738,1.513
						c-0.147,0.007-0.294,0.016-0.442,0.022c-0.098,0.005-0.195,0.009-0.292,0.013C71.766,66.534,71.14,66.736,70.553,66.919z"/>
					<path fill-rule="evenodd" clip-rule="evenodd" fill="#020202" d="M51.99,62.35c-0.303-0.27-0.385-0.696-0.788-0.898
						c-0.67-0.338-0.428-0.777-0.096-1.149c0.314-0.354,0.642-0.667,0.872-1.104c0.254-0.481,1.776-0.515,2.164-0.115
						c0.25,0.258,0.54,0.455,0.9,0.499c0.733,0.086,1.46,0.084,1.753,1.021c0.301,0.963,0.55,1.885,0.034,2.84
						c-0.238,0.441-0.467,0.887-0.57,1.082c-0.601,0.169-0.99-0.089-1.464-0.405c-0.329-0.219-1.702-0.608-1.769-1.093
						c-0.078-0.567-0.498-0.365-0.861-0.556C52.1,62.438,52.042,62.396,51.99,62.35z"/>
					<path fill-rule="evenodd" clip-rule="evenodd" fill="#020202" d="M59.879,64.296c-0.466-0.764-0.767-1.572-0.777-2.475
						c-0.009-0.806,0.283-1.592,0.055-2.388c-0.221-0.771-0.975-1.566-1.51-2.131c-0.229-0.242-0.619-0.729-0.985-0.764
						c-0.372-0.035-0.697,0.729-1.104,0.388c-0.263-0.223-0.36-0.528-0.24-0.86c0.181-0.5,1.649-1.166,2.142-0.984
						c0.029,0.011,0.077,0.026,0.081,0.046c0.265,1.264,0.808,0.583,1.367,0.229c0.869-0.549,1.964,2.24,2.299,2.8
						c0.236,0.396,0.564,0.609,0.72,1.062c0.523,1.524,0.418,3.51,0.378,5.099c-0.003,0.134,0.061,0.366-0.194,0.323
						c-1.646-0.281,0.073,1.623-0.137,2.296c-0.157,0.505-1.103,0.397-1.479,0.248c-0.635-0.251-1.307-1.103-1.527-1.737
						C58.701,64.677,59.173,64.492,59.879,64.296z"/>
					<path fill="#020202" d="M79.776,86.448c-0.239-0.469-0.417-0.719-0.453-1.236c-0.054-0.778-0.001-1.809,0.306-2.537
						c0.466-1.107,1.243-0.987,2.123-1.525c0.531-0.324,0.613-1.057,0.789-1.598c0.22-0.674,0.656-2.228,1.497-2.374
						c0.42-0.073,0.634,0.357,0.634,0.357l0.049,0.717c0,0-0.562,1.068-0.811,1.097c-0.249,0.028-1.192,2.289-1.192,2.289
						l-1.24,1.526l-0.66,3.158C80.802,86.187,79.875,86.64,79.776,86.448z"/>
					<path fill="#020202" d="M58.392,93.375c1.283-0.153,3.357-0.21,5.369-0.666c1.345-0.305,2.661-1.104,3.694-1.062
						c0.042,0.003,2.092-0.121,2.665-1.743c0.148-0.393,0.417-1.125,0.322-1.549c-0.091-0.41-0.499-0.484-0.586-0.864
						c-0.126-0.556,0.949-2.181-0.07-2.386c-0.662-0.134-0.621,1.06-0.908,1.36c-0.409,0.429-0.728,0.089-0.766-0.385
						c-0.036-0.457,0.361-0.82,0.387-1.268c0.039-0.687-0.118-1.303,0.369-1.862c0.305-0.35,1.107-0.592,0.883-1.197
						c-0.253,0.028-0.255,0.184-0.481,0.289c-0.72,0.329-0.756-0.519-0.706-1.002c0.091-0.876,0.101-1.759,0.058-2.639
						c-0.034-0.701-0.302-1.649-0.034-2.327c0.102-0.256,1.229-1.962,1.376-1.908c0.467,0.172,0.425,1.148,0.373,1.53
						c-0.138,1.001-0.292,1.908,0.033,2.892c0.239,0.728-0.142,1.349,0.023,2.013c0.066,0.264,0.148,0.214,0.209,0.347
						c0.106,0.229,0.24,0.201,0.29,0.485c0.076,0.441-0.119,0.935-0.09,1.393c0.038,0.584,0.214,1.148,0.216,1.738
						c0.001,0.273-0.187,0.835,0.013,1.073c0.632,0.751,1.339-2.277,1.204-2.772c-0.219-0.802-0.439-1.041,0.011-1.798
						c0.309-0.52,0.622-0.856-0.187-1.075c-1.432-0.39,0.003-1.324-0.144-2.376c-0.074-0.539-0.352-0.624,0.062-1.101
						c0.27-0.314,0.82-0.562,1.23-0.595c0.855-0.068,2.726,0.745,2.872-0.702c0.104-1.039,0.501-5.693-1.077-5.731
						c-0.817-0.019-0.647,0.456-1.044,0.969c-0.227,0.293-0.653,0.346-0.849,0.672c-0.198,0.333,0.053,0.78-0.194,1.058
						c-0.408,0.456-1.089,0.024-0.945-0.531c0.241-0.927,0.49-1.783,1.088-2.546c1.097-1.4,2.24-2.729,3.316-4.153
						c0.129-0.171,0.24-0.383,0.281-0.591c0.256-1.333-0.122-2.764-0.875-3.876c-0.415-0.613-1.101-0.969-1.573-1.526
						c-0.183-0.216-0.919-1.927-0.078-1.839c1.12,0.116,0.813-0.871,1.545-1.254c0.727-0.38,1.409,0.693,1.611,1.267
						c0.232,0.658,0.747,3.985,1.718,4.037c1.135,0.06,0.443-2.587,0.378-3.312c-0.079-0.885-0.248-2.921,1.023-3.058
						c0.98-0.104,2.406,1.188,2.981,1.88c0.668,0.809,0.737,1.968,1,2.949c0.148,0.553,0.464,1.294,0.237,1.865
						c-0.251,0.633-0.93,0.512-1.372,0.895c-0.635,0.549-0.298,1.395-0.184,2.098c0.2,1.242-0.554,2.216-0.71,3.41
						c-0.048,0.366,0.005,0.975-0.465,1.086c-1.829,0.434-0.346-4.245-3.067-3.305c-1.031,0.355-2.512,2.314-1.829,3.447
						c1.622,2.693,0.372,5.433,0.84,8.276c0.125,0.759,0.095,0.742-0.462,1.183c-0.517,0.409-0.468,0.663-0.584,1.306
						c-0.083,0.459-0.973,1.701-0.203,1.971c0.35,0.122,0.608-0.053,0.772-0.38c0.212-0.421,0.547-0.802,0.797-1.202
						c0.137-0.218,0.295-0.414,0.522-0.526c0.337,0.6-0.133,2.457-0.493,3.042c-0.494,0.803-0.336,1.619-0.554,2.406
						c-0.121,0.438-0.024,0.922,0.536,1.064c0.395,0.102,0.803,0.107,1.09-0.213c0.321-0.357,0.344-0.745,0.886-0.719
						c0.626,0.03,0.924,0.874,1.585,0.732c0.553-0.117,0.692-0.856,1.229-1.052c0.054,0.349-0.177,0.824,0.354,0.796
						c1.188-0.062,1.599-0.675,2.564-1.224c0.435-0.248,0.949-0.105,1.387-0.298c0.552-0.243,0.611-0.688,0.863-1.19
						c0.314-0.623,0.822-1.019,1.042-1.724c0.377-1.2,0.269-2.525,0.147-3.758c-0.112-1.119,0.107-3.048-1.025-3.74
						c-0.73-0.447-0.518-1.295-0.263-1.961c0.118-0.311,0.356-0.621,0.429-0.941c0.111-0.491-0.133-0.956-0.044-1.441
						c0.426-0.184-0.062-0.029,0.347-0.247c0.459-0.246,0.302,1.466,0.815,1.485c0.833,0.03-0.718,0.979-0.243,1.62
						c0.307,0.414,1.119,1.803,1.053,2.36c-0.048,0.406-0.688,3.345,0.048,3.554c1.104,0.314-0.486,3.059-0.478,4.196
						c0.006,0.735-0.864,1.712-1.001,2.003c-0.018,0.037-0.479,1.901-2.337,2.146c-0.604,0.079-2.536,0.229-3.338,0.811
						c-0.83,0.603-3.204-1.028-3.291,0.19c-0.067,0.938-2.84-0.27-3.863-0.333c-0.763-0.049-2.363-1.107-2.528-0.096
						c-0.086,0.534-2.04-0.077-2.144,0.438c-0.184,0.911-0.383,2.129-0.62,2.984c-0.428,1.548-2.67,1.402-2.957,2.595
						c-0.084,0.353-2.299,0.79-4.528,0.846c-2.292,0.057-4.601-0.271-4.627,0.1"/>
					<path fill="#020202" d="M43.381,78.992c0.225-0.197,0.321-3.923,0.88-6.07c0.513-1.964,1.506-2.356,1.413-2.665
						c-0.005-0.062,0.317-1.891,0.321-2.075c0.234-0.988,0.562-2.019-0.212-2.061c-1.183-0.064-0.876-1.014-0.667-1.356
						c0.146-0.239,0.306-0.179,0.584-0.319c0.464-0.234,0.438-0.142,0.499-0.622c0.102-0.799-2.417-0.063-1.842-0.324
						c0.261-0.119,3.372-1.022,3.535-1.271c0.189-0.018,0.988-1.113,1.434-1.545c0.422,0.1,0.123,0.082,0.191,0.417
						c0.073,0.356,0.214,0.074,0.467,0.338c0.178,0.186,0.544,0.331,0.344,0.688c-0.156,0.275-0.46,0.287-0.755,0.313
						c-1.169,0.102-1.469,0.384-1.513,1.509c-0.037,0.951-0.066,1.909,0.001,2.856c0.051,0.711,0.118,1.536,0.723,1.982
						c1.007,0.742,1.081,1.853,1.014,2.82c-0.088,1.278,1.115,4.329,2.084,5.286c0.269,0.266,0.66,2.701,0.381,2.957
						c-0.254,0.233-1.417-1.279-1.562-1.402c-0.494-0.423-1.58-2.918-1.824-3.693c-0.049-0.155-0.439-0.564-0.62-0.59
						c-0.167-0.024-0.322,0.411-0.286,0.59c0.107,0.545-0.315,1.184-0.813,1.505c-0.046,0.028-0.271,0.379-0.244,1.21
						c0.008,0.239,0.248,0.564,0.471,0.688c0.27,0.15,0.621,0.256,0.769,0.535c0.134,0.255,0.408,0.988,0.356,1.271
						c-0.055,0.299-0.576,0.478-0.829,0.359c-0.298-0.139-0.497-0.617-0.761-0.044c-0.252,0.546-0.263,1.701-0.048,1.955
						c0.307,0.361,0.548,3.511,0.238,3.817c-0.101,0.102-1.378-3.033-2.472-4.17c-0.535-0.557-1.026-0.374-1.314-0.859
						c-0.831-1.398,0.221-1.521-0.103-1.782"/>
				</g>
			</g>
			<path fill-rule="evenodd" clip-rule="evenodd" fill="#020202" d="M73.861,46.102c-0.013,0.142,0.101,0.197,0.242,0.17
				c1.334,0.888,2.807,1.62,3.857,2.85c0.927,1.086,1.998,1.982,3.103,2.856c-0.894,0.668-2.051,0.522-2.987-0.337
				c-0.666-0.61-1.492-0.986-2.25-1.462c-0.65-0.406-1.396-0.421-2.071-0.647c-1.045-0.352-2.012-0.901-3.144-0.463
				c-0.244,0.095-0.258,0.003-0.309-0.164c-0.104-0.35-0.311-0.238-0.507-0.097c-0.319,0.23-0.715,0.245-1.056,0.38
				c-0.894,0.357-1.869,0.673-2.589,1.271c-1.363,1.134-2.311,0.977-3.148-0.656c-0.273-0.531-0.365-1.401-1.085-1.455
				c-1.046-0.078-1.769-0.775-2.669-1.108c-0.338-0.125-0.667-0.223-1.018-0.151c-1.106,0.221-2.038,0.88-3.084,1.256
				c-0.179,0.064-0.266,0.466-0.51,0.293c-0.295-0.208-0.11-0.529,0.03-0.767c0.375-0.635,0.17-1.308,0.471-1.944
				c0.416-0.884,0.356-1.856,0.691-2.801c0.215-0.604-0.308-1.404,0.461-1.867c0.3-0.18,0.51-0.532,0.976-0.596
				c0.492-0.066,0.628-0.01,0.859,0.455c0.388,0.783,0.837,0.371,1.231,0.061c0.44-0.348,0.473-1.221,0.033-1.561
				c-1.076-0.826,1-1.521-0.012-2.277c-0.023-0.018,0.024-0.572,0.082-0.628c0.908-0.87-0.004-1.495-0.166-2.055
				c-0.126-0.437-0.719-0.026-1.146,0.197c0.357,0.263,0.653,0.446,0.904,0.679c0.155,0.143,0.308,0.372,0.014,0.547
				c-0.411,0.244-1.514-0.062-1.58-0.514c-0.175-1.198-1.27-1.205-2.01-1.641c-0.309-0.183-0.73-0.234-1.034-0.457
				c-0.929-0.678-1.965-1.371-2.905-2.051c-0.813-0.589-1.964-1.213-1.819-1.746c0.36-1.326,0.838-1.75,0.457-2.941
				c-0.139-0.436,0.476-1.189,0.662-1.379c0.262-0.266,0.226-0.451-0.102-0.861c-0.494-0.622,0.024-0.785,0.267-1.1
				c0.149-0.195-0.231-0.961,0.27-0.823c0.698,0.192,3.245,0.929,3.783,1.55c0.75,0.864,1.097,1.597,2.201,2.311
				c0.667,0.431,1.268,1.432,1.365,2.584c0.018,0.209,0.527,1.377,0.646,1.56c0.99,1.53,0.385,1.603,1.117,3.233
				c0.19,0.422,0.012,0.742,0.148,1.182c0.18,0.58,0.327,1.067,0.217,1.633c-0.078,0.397-0.296,1.178-0.069,1.557
				c0.646,1.075-0.028,2.226-0.077,3.383c-0.021,0.525,2.144,0.893,2.667,0.898c0.645,0.005,1.326,0.244,1.935-0.18
				c0.137-0.095,0.374-0.178,0.404-0.02c0.138,0.73,0.818,0.673,1.258,0.807"/>
			<g>
				<g>
					<path fill="#020202" d="M50.266,74.352c0.09,0.02,0.618,0.446,0.792,0.202c0.38-0.533,0.179-1.179,0.434-2.123
						c0.16-0.593,0.848-1.65,0.889-1.79c0.1-0.332,0.237-0.765,0.686-0.564c0.384,0.172,0.242,0.593,0.167,0.938
						c-0.065,0.303-0.441,0.429-0.367,0.83c0.115,0.619,0.136,1.294-0.225,1.841c-0.177,0.268-1.44,1.038-1.082,1.312
						c0.204,0.157,0.347-0.168,0.532-0.252c0.8-0.359,0.76,0.473,0.7,1.007c-0.129,1.152-0.906,0.732-0.813,1.889
						c0.052,0.645-0.732,1.42-1.011,0.549c-0.122-0.379-0.175-0.789-0.146-1.186c0.023-0.314,0.181-0.642,0.137-0.956
						c-0.042-0.298-0.028,0.649-0.276,0.506c-0.322-0.187-0.631-0.312-0.545-0.654c0.306-1.214-0.169-0.102,0.099-1.309"/>
				</g>
			</g>
			<path fill-rule="evenodd" clip-rule="evenodd" fill="#020202" d="M12.113,75.743c0.85-1.461,1.958-2.785,2.925-4.157
				c1.238-1.756,2.506-3.492,3.754-5.241c0.275-0.386,0.553-0.77,0.829-1.154c0,0,3.893-4.227,5.892-4.04
				c1.999,0.188,2.973,0.589,5.248,2.385c2.275,1.797,6.864,6.056,6.864,6.056s4.246,1.939,3.976,3.622
				c-0.271,1.682-0.708,2.856,0.082,3.554c0.789,0.698,1.526,2.164,2.109,3.227c0.583,1.061,2.243,0.926,2.672,1.945
				c0.43,1.019-0.329,1.577,0.5,2.82c0.83,1.242,2.053,0.887,4.643,3.836c2.591,2.949,4.099,2.368,5.43,2.977
				c1.39,0.637,1.803,1.042,2.394,1.715c0.591,0.675,4.145,0.574,7.165-0.134c3.02-0.708,2.621,4.425,2.819,5.457
				c0.104,0.536,0.317,1.234,0.353,2.604l-1.415,0.414c-0.494-2.229-0.575-6.748-1.418-6.742c-1.145,0.01-4.796,1.114-6.073,0.489
				c-1.276-0.626-2.699-0.932-3.854-2.193c-1.155-1.263-2.788-1.441-4.062-1.685c-1.273-0.244-2.709-1.827-3.608-2.918
				c-0.899-1.094-3.904-2.959-3.91-3.595c-0.005-0.637-0.405-2.672-0.786-2.541c-0.381,0.13-2.306-2.074-2.437-2.488
				c-0.13-0.415-1.92-1.883-2.441-3.278c-0.52-1.396,0.958-3.366-0.319-4.316c-1.278-0.95-7.164-5.415-7.933-6.172
				s-2.608-2.836-4.006-2.824c-0.611,0.005-1.655-0.825-2.347-0.655c-0.892,0.218-2.915,1.668-3.27,2.101
				c-0.629,0.769-3.789,5.369-3.789,5.369l-3.916,5.51c-0.467,0.684-0.945,1.359-1.502,1.975c-0.17,0.188-0.656,0.889-1.383,1.807
				l-0.802-1.462c0.501-0.758,0.744-1.003,0.897-1.235C11.604,76.454,11.922,76.069,12.113,75.743z"/>
			<path fill="#020202" d="M49.371,87.472c-0.282-0.741-0.43-1.883-0.202-1.978c0.351-0.144,0.642-0.372,0.33-0.785
				c-0.179-0.236-0.099-0.49-0.131-0.732c-0.065-0.486-0.271-1.182,0.337-1.304c0.415-0.084,0.641,0.58,0.777,1.044
				c0.098,0.333,0.232,0.768,0.686,0.57c0.389-0.169,0.248-0.591,0.176-0.938c-0.063-0.303-0.441-0.432-0.363-0.833
				c0.121-0.618-0.792-2.327-1.549-2.032c-0.278,0.107-1.166,1.118-0.906,2.327c0.047,0.222,0.058,0.562-0.31,0.584
				c-0.325,0.018-0.296,1.894-0.192,2.408"/>
			<path fill-rule="evenodd" clip-rule="evenodd" fill="#020202" d="M48.68,23.524c-0.01,0.02,0.513,0.627-0.543,1.043
				c-1.179,0.465-0.844,0.951-0.725,1.615c0.143,0.811-0.428,0.532-0.381,0.763c0.042,0.205-1.192,1.36-0.312,2.147
				c0.085,0.074-3.683,0.357-3.772,0.711c-0.067,0.266-0.328,0.226-0.49,0.174c-1.379-0.438-2.785,0.285-4.169-0.105
				c-0.222-0.062-0.539,0.065-0.765,0.189c-0.852,0.462-1.65,1.078-2.72,0.74c-0.025-0.008-0.1,0.143-0.151,0.219l0.005-0.006
				c-0.294-0.008-0.569,0.164-0.42,0.42c0.405,0.696-0.106,1.297-0.096,1.939c0.007,0.42-0.219,1.043,0.635,0.953
				c0.262-0.027,0.309,0.184,0.17,0.404c-0.085,0.135-0.278,0.219-0.17,0.516c0.411-0.23,0.703-0.018,0.99,0.326
				c-1.141,0.625-1.562,1.809-2.302,2.73c-0.026,0.032-0.018,0.094-0.025,0.143c-0.651,0.32-1.14,0.807-1.563,1.395
				c-0.408,0.566-0.907,0.564-1.094-0.047c-0.172-0.558-0.579-1.182-0.086-1.807c0.069-0.088-0.077-0.795-0.079-0.906
				c-0.002-0.559-1.686-1.314-2.136-1.402c-0.387-0.076-2.919,0.113-3.174,1.295c-0.08,0.37-0.973,0.973-0.973-0.045
				c-0.064-0.065,0.152-0.706,0.183-0.803c0.111-0.35,0.342-0.633,0.479-0.969c0.192-0.475,0.467-0.979,0.595-1.473
				c0.212-0.816,0.963-1.887,1.494-2.57c0.349-0.45,0.277-1.045,0.517-1.541c0.244-0.502,0.692-0.888,1.049-1.307
				c0.65-0.764,1.19-1.628,1.97-2.273c0.698-0.577,1.41-1.15,2.145-1.683c0.608-0.441,1.195-0.71,1.91-0.86
				c2.096-0.441,3.338-0.826,5.388-1.453c0.56-0.171,1.133-0.166,1.657-0.449c0.514-0.277,1.04-0.312,1.625-0.344
				c1.148-0.066,2.322-0.09,3.469,0.009c0.877,0.075,1.218,0.54,2.005,0.613c1.185,0.108,0.172,1.531,0.218,1.539"/>
			<path fill-rule="evenodd" clip-rule="evenodd" fill="#020202" d="M24.954,61.734c0,0,0.381,5.914,0.381,5.917
				c-0.002,0.103-1.952,0.534-2.158,0.636c-1.405,0.692-2.388,2.141-3.184,3.437l-1.716,2.794l-2.003,3.052l-2.479,3.854
				c-0.029,0.13-0.347,0.354-0.666,0.954l0.52,0.749c0.29-0.264,0.176-0.401,0.24-0.502c0.856-1.336,1.906-2.862,2.751-4.206
				c1.326-2.111,2.618-4.276,4.035-6.327c0.838-1.215,1.562-2.525,2.959-3.229c1.202-0.604,2.629-0.554,3.926-0.375
				c2.89,0.397,5.404,1.379,7.794,3.05c0.605,0.424,1.259,0.803,1.761,1.345c1.488,1.605,1.292,1.259,2.145,3.064l0.954,1.335
				c0-2.107-0.765-2.91-2.167-4.433c-1.413-1.531-3.429-2.73-5.342-3.541c-1.727-0.731-3.538-1.392-5.438-1.506
				c-0.129-0.008-1.192,0.008-1.216-0.152l-0.524-5.916H24.954z"/>
			<path fill-rule="evenodd" clip-rule="evenodd" fill="#020202" d="M78.073,87.398c1.564,1.149,2.067,3.56,2.64,5.148
				c0.227,0.625,0.835,1.8,0.805,2.63l-1.826,1.38c0.043-0.166-0.306-3.158-0.693-4.03c-0.45-1.014-2.475-4.002-2.793-5.033
				c-0.141-0.456,0.232-0.034,0.874-0.49C77.271,87.105,77.914,87.281,78.073,87.398z"/>
			<path fill="#020202" d="M68.264,92.008c0.042,0.002,1.818-0.815,1.915-1.166c0.208-0.759,0.768-1.401,0.873-1.864
				c0.254-1.111-0.07-0.924,0.034-1.958c0.067-0.67,0.644-1.654,1.061-1.631c0.99,0.056,3.386-2.771,3.796-2.628
				c0.35,0.123,1.181-0.054,1.345-0.38c0.255-0.508,0.701,0.587,0.253,1.313c-0.494,0.804-0.146,1.62-0.363,2.407
				c-0.121,0.437,1.312,0.923,1.872,1.064c0.53,0.135,1.074,0.075,1.325-0.465c0.291-0.626,0.528-0.605,1.053-0.216
				c1.068,0.794,2.053,0.262,2.767,0.226c0.701-0.036,1.438-0.038,1.992-0.705c0.343-0.414,0.86-0.832,1.454-0.761
				c0.746,0.09,1.052-0.263,1.226-0.881c0.065-0.19,0.13-0.381,0.196-0.571c0.056-0.056,0.112-0.111,0.167-0.167
				c0.549-0.292,1.396-3.439,0.731-3.54c0.038-0.26,0.014-5.627,0.052-5.887c0.115,0.052,1.636,0.737,1.914,0.82
				c1.38,0.409,4.136,0.456,3.024,0.849c-0.478,0.168,2.118,1.609,1.943,2.33c0.218,0.106-3.12,4.981-3.393,5.425
				c-0.381,0.62-5.617,6.905-5.979,6.685c-0.455-0.276-1.403-1.597-2.009-1.518c-0.314,0.041-0.541,0.316-0.411,0.722
				c0.062,0.191,0.284,0.369,0.09,0.615c-0.713,0.096-1.234-1.043-2.057-0.31c-0.672,0.6-0.272,1.493-0.692,2.456
				c-0.396-1.535-1.155-2.515-2.205-3.335c-0.468-0.367-0.841-0.358-1.133-0.038c-0.366,0.402-0.122,1.301-0.217,1.907
				c-0.371,0.052-1.59-1.899-2.367-3.228c-0.43-0.735-2.377-1.123-2.62-1.084c-0.244,0.038-2.097,1.196-2.535,2.294
				c-0.576,1.439-0.663,2.425-1.043,2.319"/>
			<path fill-rule="evenodd" clip-rule="evenodd" fill="#020202" d="M42.527,64.939c0.029,0.56,0.642,0.168,0.246,0.461
				c-0.393,0.291,0.01,1.789,0.705,1.98c0.16,0.043,0.889,0.812,1.222,1.493c0.391,0.804,0.25,1.656,0.293,1.825
				c0.162,0.629-1.046,1.556-1.314,2.198c-0.093,0.003-2.007-0.237-2.089-0.28c-0.131-0.07-0.191-3.44-0.219-3.613
				c-0.266-0.813-0.479-1.612-0.388-2.479c0.051-0.487,0.16-0.721,0.428-1.138C41.508,65.233,42.519,64.777,42.527,64.939z"/>
			<path fill-rule="evenodd" clip-rule="evenodd" fill="#020202" d="M50.499,59.29c1.255-1.157,1.888-3.726,1.895-5.492
				c0.003-0.833,0.458-1.593-0.044-2.368c-0.029-0.045,0.031-0.191,0.091-0.239c0.292-0.235,0.701-0.475,0.407-0.895
				c-0.24-0.341,0.405-2.041,0.61-3.041c0.075-0.366-0.092-0.424-0.305-0.62c-0.496-0.457-3.339-0.437-3.937-0.595
				c-1.034-0.274-1.316,0.111-2.054,0.066c-0.345-0.021-0.572,1.034-0.706,1.9c-0.103,0.666,0.042,1.143,0.04,1.412
				c-0.002,0.615,0.109,1.188,0.341,1.751c0.073,0.177-0.011,0.449-0.22,0.502c-0.202,0.05-0.181-0.027-0.295-0.188
				c-0.178-0.251-0.259-0.907-0.551-1.044c-0.399-0.188-0.3,1.446-0.264,1.888c0.078,0.954-0.015,1.234,0.066,2.181
				c0.013,0.151,0.055,0.82-0.17,1.046c-0.683,0.682-1.537,0.798-2.332,0.174c0.181-0.489,0.474-0.054,0.709-0.075
				c0.28-0.024,0.509-0.084,0.7-0.338c-0.898-0.509-1.622,0.021-2.639,0.189c0.402,0.131,0.55,0.179,0.697,0.227
				c-0.503,0.522-1.214,0.523-1.531,0.038c-0.635-0.968-1.427-1.629-2.485-2.024c-0.178-0.067-0.395-0.183-0.317-0.399
				c0.1-0.279,0.381-0.194,0.57-0.116c0.735,0.304,1.391,0.746,1.993,1.259c0.223,0.191,0.416,0.382,0.733,0.331
				c0.65-0.104,1.298-0.221,1.95-0.311c0.279-0.039,0.696-0.697,0.747-0.993c0.143-0.823-0.003-0.897-0.044-1.899
				c-0.024-0.581-0.309-1.102-0.095-1.607c0.599-1.413,1.276-2.795,1.853-4.217c0.137-0.338,0.275-0.405,0.584-0.453
				c1.73-0.273,3.622-0.562,5.187-0.014c0.268,0.093,1.73,0.092,1.944-0.165c0.178-0.216,0.414-0.525,0.229-0.704
				c-0.568-0.551,0.432-1.094,0.52-1.641c0.077-0.479,0.381-1.688,0.434-2.17c0.395,0.1,0.949-2.112,0.28-2.169l0.012-0.179
				c0.142-0.643-0.378-0.906-0.177-1.584c0.392-1.322-1.536-0.93-1.324-1.738c0.038-0.144-0.109-0.385-0.332-0.387
				c-0.101-0.001-0.2,0.138-0.305,0.205c-0.686,0.444-1.369,0.968-2.013-0.071c-0.071-0.114-0.267-0.173-0.416-0.214
				c-0.706-0.193-1.382-0.068-2.098,0.01c-0.533,0.058-1.043-0.919-1.867-1.008c-0.863-0.092-0.969,0.07-1.901-0.293
				c-0.125-0.24-0.109-0.359,0.178-0.601c-0.187-0.461-0.492-0.04-0.76-0.149c-1.035-0.424-1.913-1.263-3.276-0.534
				c-1.14,0.608-1.823,0.401-2.301,1.646c-0.168,0.438-0.07,0.953,0.402,0.962c0.221,0.005,0.61,0.017,0.615,0.228
				c0.005,0.215-0.225,0.27-0.425,0.279c-0.476,0.02-0.969,0.58-0.885,0.677c0.662,0.762,0.052,0.831-0.114,1.017
				c-1.818-0.144-2.708,0.38-3.458,1.842c-0.198,0.386,0.132,0.711-0.054,0.977c-0.695,0.994,0.875,1.245,1.328,1.35
				c1.605,0.368,3.12,0.934,4.61,1.615c0.474,0.216,0.843,0.522,1.25,0.814c0.556,0.4,0.119,1.061,0.036,1.07
				c-0.814,0.081-3.147-1.467-3.687-1.871c-0.405-0.306-2.548-0.738-2.974-0.999c-0.74-0.456-2.631,1.757-2.073,0.354
				c-0.541,0.155-1.696,0.078-1.976,0.495c-0.523,0.778-0.962,3.448-1.181,2.894c-0.197-0.499,0.292-3.165,0.694-3.822
				c0.658-1.076,0.596-1.703,1.384-2.64c0.603-0.716,0.948-1.606,1.707-2.231c0.292-0.24,0.581-0.517,1.175-0.871
				c-0.697,0.106-1.023-0.756-1.162-1.271c-0.151-0.561-0.626-0.019-1.028-0.031c-0.285-0.928-0.335-1.852,0.132-2.752
				c0.113-0.219,0.133-0.387,0.037-0.618c-0.363-0.87,0.138-1.507,1.092-1.28c0.707,0.168,1.441-0.041,2.121,0.256
				c0.167,0.072,0.384-0.001,0.39-0.154c0.074-1.764,1.463-1.076,2.368-1.283c0.053-0.014,0.128,0.018,0.179,0.05
				c0.953,0.597,1.912,0.575,2.934,0.142c0.444-0.188,0.975-0.205,1.456,0.043c0.393,0.203,0.684-0.036,0.911-0.293
				c0.642-0.726,1.409-0.647,1.938,0.211c0.151,0.245,0.167,0.486,0.5,0.4c0.534-0.138,0.815-0.166,0.987-0.816
				c0.21-0.794,0.595-1.5,1.118-2.079c0.421-0.465,0.021-0.748,0.235-1.271c0.419,0.41,0.629,0.802,0.381,1.336
				c-0.146,0.314-0.174,0.679-0.34,0.929c-0.831,1.255,0.143,2.514,0.103,3.764c-0.007,0.209,0.565,0.209,0.722,0.24
				c0.306,0.06,0.681,0.09,0.715,0.482c0.031,0.355-0.313,0.534-0.546,0.734c-0.181,0.154-0.42,0.243-0.645,0.367
				c0.975,0.814,3.809,0.553,4.662,0.896l-0.007-0.006c0.984,0.519,1.62,1.172,2.27,2.154c0.223,0.336,0.451,1.918,0.333,2.346
				c-0.335,1.219-0.128,2.004-0.126,2.045c0.039,0.769-0.291,1.215-0.436,1.793c-0.187,0.744-0.388,2.166-0.516,2.926
				c-0.115,0.684-1.086,4.184-1.12,4.629c-0.114,1.529-0.751,1.881-0.657,3.452c0.022,0.389-0.382,0.918-0.437,1.492
				c-0.065,0.684-0.57,1.363-0.682,2.029c-0.275,1.638-1.383,2.823-2,4.262c0,0-0.025,0.024-0.026,0.024
				c-0.13-0.042-0.238-0.254-0.399-0.069c-0.6,0.685-1.449,0.948-2.22,1.357c-1.877,0.998-3.275,1.088-3.129,1.058
				c2.195-0.472,3.135-0.976,4.345-2.557"/>
			<path fill-rule="evenodd" clip-rule="evenodd" fill="#FFFFFF" d="M70.4,63.192c-0.254,0.484-0.209,0.939,0.659,0.653
				c1.143-0.374,0.195-1.542-0.061-1.356C70.767,62.656,70.539,62.928,70.4,63.192z"/>
			<path fill-rule="evenodd" clip-rule="evenodd" fill="#FFFFFF" d="M53.345,61.172c-0.232,0.443-0.192,0.859,0.604,0.599
				c1.047-0.343,0.178-1.413-0.057-1.244C53.68,60.68,53.471,60.93,53.345,61.172z"/>
			<path fill-rule="evenodd" clip-rule="evenodd" fill="#FFD68A" d="M37.085,27.369c1.063,0.013,1.884,1.013,2.974,1.039
				c0.348,0.009,0.701,0.046,1.045-0.032c-0.579-0.669-1.201-0.492-1.878-0.855c-1.926-1.039,1.633-0.678,1.177-1.504
				c-0.153-0.276-0.696-0.248-0.949-0.425c-0.275-0.192-0.605-0.615-0.753-0.906c-0.246-0.481-0.235-0.466,0.259-0.481
				c0.558-0.018,2.693,0.609,3.089-0.085c0.273-0.483-0.597-0.427-0.622-1.01c0.788,0.474,1.662,0.247,2.447,0.554
				c0.168,0.064,2.132,0.333,2.575,1.295c-0.793-0.471-2.688-0.707-2.528-0.662c-0.021-0.008-0.38,0.166-0.254,0.396
				c0.216,0.397,0.996,0.964,1.104,1.071c0.039,0.037,0.048,0.426-0.223,0.629c-0.312,0.232-0.761,0.24-1.038,0.518
				c-0.425,0.426,0.138,1.067-0.082,1.596c-0.341,0.822-1.091,0.521-1.74,0.674c-0.257,0.061-0.431,0.29-0.687,0.339
				c-1.105,0.204-3.939-0.758-3.937-2.148C37.07,27.369,37.078,27.369,37.085,27.369z"/>
			<path fill-rule="evenodd" clip-rule="evenodd" fill="#020202" d="M26.768,62.559c0.12-0.639,0.226-0.467,0.595-0.903
				c0.68-0.805,0.867-2.13,0.853-3.154c-0.011-0.751-0.168-1.669,0.311-2.318c0.104,0.021,0.122,0.131,0.202,0.202
				c0.13,0.114,0.335,1.132,0.319,1.335c0.077,0.989,0.098,1.947-0.243,2.9c-0.19,0.533-0.482,1.196-0.897,1.594
				C27.753,62.36,26.732,62.745,26.768,62.559z"/>
			<path fill-rule="evenodd" clip-rule="evenodd" fill="#020202" d="M61.25,92.014c-0.041-0.018-0.665,0.093-0.695,0.063
				c-0.234-0.966-0.859-0.468-1.751-0.412c-0.654,0.041-1.251-0.176-1.844-0.378c-0.565-0.191-0.558-1.157-0.469-1.578
				c0.102-0.48,0.528-0.082,0.98,0.038c0.911,0.243,1.837,0.433,2.756,0.644c0.092,0.021,0.241,0.093,0.266,0.061
				c0.956-1.176,1.634-0.25,2.455-0.25c0.406,0,1.499-0.442,1.396,0.063c-0.101,0.495-1.229,1.051-1.653,1.044
				C61.901,91.296,62.068,92.074,61.25,92.014z"/>
			<path fill-rule="evenodd" clip-rule="evenodd" fill="#020202" d="M41.318,72.232c-0.056,0.194,1.994,0.3,2.183,0.193
				c0.525-0.298,1.01-1.355,1.492-1.727h0.782c0,0-0.398,1.525-0.4,1.533c-0.411,1.573-3.286,1.24-4.414,1.24
				C40.96,73.472,41.317,72.239,41.318,72.232z"/>
			<path fill-rule="evenodd" clip-rule="evenodd" fill="#020202" d="M34.651,63.741c0.157-0.021,0.424,0.324,0.98,0.726
				c0.695,0.502,1.735,1.091,2.349,1.16c1.185,0.134,2.909-0.234,3.941-0.796c1.62-0.881,3.104-2.205,4.879-2.719
				c1.182-0.341,2.231-0.904,3.219-1.668c0.231-0.178,1.702-2.361,1.702-2.61v1.05c-1.381,2.17-3.388,3.975-5.668,4.786
				c-1.804,0.642-3.449,1.908-5.233,2.538c-0.636,0.225-2.056,0.285-3.376-0.129c-1.027-0.321-2.186-0.923-2.672-1.612
				C34.608,64.233,34.689,63.988,34.651,63.741z"/>
			<path fill-rule="evenodd" clip-rule="evenodd" fill="#020202" d="M28.724,49.197c0,0-1.685,0.279-1.685,0.279l-0.188,3.196
				l0.09,1.858c0,0,1.388,2.636,1.399,2.66c0.407,0.856,0.793,1.031,1.49,1.646c0.842,0.743,1.395,0.982,2.041,1.921
				c0.691,1.005,0.643,1.36,1.495,2.249c0.312,0.326,0.791,1.008,1.264,1.417c0.132,0.113,0.836,0.565,0.964,0.618
				c0.154,0.064,0.11-0.275,0.246-0.203c0.194-0.225-0.157-0.19-0.641-0.741c-0.213-0.242-0.833-0.906-1.062-1.232
				c-0.834-1.194-1.315-2.365-2.369-3.401c-1.072-1.057-1.756-1.534-2.633-2.804c-0.758-1.098-0.93-2.745-0.816-4.042
				C28.343,52.334,28.792,49.185,28.724,49.197z"/>
			<path fill="#020202" d="M24.755,35.623l-1.099,2.982l-0.381,2.591c0,0-0.095,2.615,0,2.682c0.096,0.068,1.057,2.071,0.719,2.357
				c-0.337,0.286,0.762,2.332,0.762,2.333c0.607,1.387,0.792,2.158-0.337,3.478c-0.192,0.219-0.825,0.771-1.125,0.906
				c-0.493,0.222-0.88,0.507-1.158,0.976c-0.214,0.361-0.306,0.715-0.425,1.123c-0.105,0.359-0.14,0.813-0.343,1.133
				c1.973,0.018,4.672,0.124,6.445-0.725l-0.191-0.448l-0.191-2.477v-1.529l0.963-3.348l0.509-1.326v-1.049l1.034-1.19l2.782-3.833
				l-0.667-5.754l-4.197-1.145L24.755,35.623z"/>
			<g>
				<path fill-rule="evenodd" clip-rule="evenodd" fill="#FCD1BC" d="M28.792,50.465c0.048-0.869-2.413-0.351-2.578-1.515
					c-0.075-0.531-0.143-1.37,0.052-1.882c0.321-0.842-0.109-2.231-0.228-3.096c-0.125-0.916,0.145-1.75,0.422-2.608
					c0.228-0.712,0.41-1.546,0.983-2.071c0.782-0.718,1.912-1.027,2.85-0.477c0.795,0.467,0.89,1.535,0.665,2.402
					c-0.246,0.945-0.644,1.383-0.684,2.107c-0.038,0.699-0.094,1.211,0.353,0.583"/>
			</g>
			<path fill="#020202" d="M25.365,56.583l-1.233,0.906c-1.071,0.464-2.137,0.833-3.271,1.116c-0.563,0.141-1.296,0.194-1.731,0.625
				c-0.361,0.359-0.435,0.995-0.577,1.468c0.091-0.305-0.214-0.646-0.357-0.889c-0.492-0.835-0.542-2.456,0.458-2.972
				c0.898-0.463,2.01-0.228,2.971-0.211c1.056,0.02,2.077,0.113,3.127-0.044H25.365z"/>
			<path fill="#020202" d="M22.128,58.817c-0.634,0.166-1.292,0.244-1.893,0.521c-0.494,0.228-0.767,0.567-0.848,1.103
				c-0.049,0.319-0.157,0.61-0.439,0.789c-0.326,0.208-0.775,0.179-1.133,0.329c-0.543,0.23-1.215,0.589-1.582,1.068
				c-0.632,0.827-0.607,1.593-0.207,2.494c0.144-0.63,0.132-1.32,0.825-1.558c0.672-0.23,1.389-0.112,2.084-0.119
				c1.1-0.011,1.826-0.762,2.298-1.696c0.13-0.257,0.137-0.374,0.095-0.689c-0.057-0.435-0.024-0.911,0.122-1.326
				C21.527,59.512,21.897,58.877,22.128,58.817z"/>
			<path fill-rule="evenodd" clip-rule="evenodd" fill="#020202" d="M17.075,58.597c-0.138,0.816,0.45,1.328,0.61,2.054
				c0.175,0.796-0.634,0.718-1.122,0.889c-0.556,0.193-1.169,0.609-1.506,1.101c-0.552,0.804-0.281,1.8-0.08,2.671
				c-0.626-0.626-0.961-1.249-1.241-2.11c-0.278-0.857-0.385-1.397,0.018-2.242c0.484-1.019,1.634-0.669,2.328-1.4
				c0.293-0.311,0.532-0.666,0.771-1.019l0.318-0.509C17.17,58.031,17.075,58.597,17.075,58.597z"/>
			<path fill-rule="evenodd" clip-rule="evenodd" fill="#020202" d="M19.435,63.929c-0.768,0-1.838-0.192-2.438,0.389
				c-0.413,0.4-0.397,0.862-0.591,1.358c-0.313,0.803-1.351,1.053-1.75,1.776c-0.274,0.498-0.307,1.133-0.19,1.707
				c0.135,0.666,0.749,1.003,1.203,1.442c-0.224-0.504-0.595-1.03-0.327-1.58c0.163-0.334,0.494-0.54,0.832-0.664
				c0.542-0.197,1.161-0.213,1.628-0.591c0.465-0.375,0.755-0.81,0.868-1.427c0.112-0.611-0.465-1.721,0.298-2.149L19.435,63.929z"
				/>
			<path fill-rule="evenodd" clip-rule="evenodd" fill="#020202" d="M12.823,61.802c-0.052,0.24-0.002,0.982,0.079,1.218
				c0.194,0.572,0.35,1.2,0.751,1.686c0.336,0.406,1.416,0.946,1.284,1.568c-0.077,0.364-0.944,0.876-1.16,1.204
				c-0.27,0.408-0.437,0.656-0.417,1.152c0.041,1.002,0.755,1.862,1.713,2.152c-0.455,0.144-1.061,0.285-1.526,0.107
				c-1.135-0.434-2.129-0.849-2.396-2.126c-0.202-0.963,0.204-1.853,0.655-2.684c0.375-0.691,0.292-1.45,0.136-2.158
				C11.791,63.23,12.705,62.482,12.823,61.802z"/>
			<path fill-rule="evenodd" clip-rule="evenodd" fill="#020202" d="M17.744,68.323c-0.309,0.1-0.629,0.186-0.919,0.336
				c-0.479,0.25-0.885,0.39-0.797,1.022c0.029,0.213,0.159,0.418,0.229,0.625c0.278,0.833-0.647,1.193-0.964,1.792
				c-0.168,0.317-0.217,0.6-0.219,0.946c-0.002,0.333-0.159,0.008-0.056,0.32c0.046,0.141,0.197,0.404,0.183,0.553
				c0.037-0.384,0.24-0.171,0.418-0.522c0.119-0.235-0.058-0.317,0.169-0.415c0.191-0.109,0.203-0.209,0.381-0.342
				c0.271-0.201,0.476-1.045,0.702-1.293c0.25-0.275,0.593-0.453,0.532-0.796c-0.053-0.3,0.237-0.252,0.071-0.508
				c-0.24-0.371-0.431-0.76-0.256-1.2C17.308,68.616,17.562,68.475,17.744,68.323z"/>
			<path fill-rule="evenodd" clip-rule="evenodd" fill="#020202" d="M10.622,68.633c0.097,0.722,0.299,1.352,0.806,1.896
				c0.345,0.371,0.977,0.771,1.46,0.925c0.483,0.152,1.657-0.028,1.814,0.051c0.237,0.121-0.583,0.729-0.745,0.877
				c-0.237,0.22-0.487,0.659-0.494,0.982c-0.005,0.293,0.079,0.611,0.199,0.876c0.047,0.104,0.185,0.46,0.297,0.497
				c0.048,0.017,0.207,0.478,0.207,0.478l-1.732,1.891l-0.842,0.267c-0.036-0.038-0.361-0.471-0.488-0.915
				c-0.132-0.464-0.066-0.941-0.064-1.003c0.008-0.269,0.02-0.538,0.052-0.806c0.09-0.741,0.501-1.438,0.468-2.196
				c-0.035-0.814-0.684-1.286-1.01-1.982c-0.163-0.35-0.218-0.747-0.204-1.131c0.007-0.188,0.025-0.384,0.072-0.566
				c0.035-0.136,0.177-0.302,0.155-0.441L10.622,68.633z"/>
			<path fill-rule="evenodd" clip-rule="evenodd" fill="#020202" d="M45.754,57.43c0.852-0.129,1.608,1.665,0.998,1.653
				C46.816,59.084,45.854,57.583,45.754,57.43z"/>
			<path fill-rule="evenodd" clip-rule="evenodd" fill="#020202" d="M33.019,55.63c-0.041-0.861,2.394-2,2.32-1.395
				C35.347,54.17,33.18,55.546,33.019,55.63z"/>
			<path fill-rule="evenodd" clip-rule="evenodd" fill="#FFFFFF" d="M49.113,48.097c-0.175-0.073-0.258,0.062-0.327,0.22
				c-0.064,0.149,0.642,0.405,0.454-0.086C49.213,48.163,49.168,48.12,49.113,48.097z"/>
			<path fill-rule="evenodd" clip-rule="evenodd" fill="#FFFFFF" d="M37.689,45.071c-0.175-0.072-0.259,0.062-0.327,0.221
				c-0.064,0.148,0.641,0.404,0.454-0.086C37.79,45.137,37.744,45.093,37.689,45.071z"/>
			<path fill="#FFD68A" d="M33.148,38.391c-0.092-0.508,0.593-1.988,1.025-2.19c1.226-0.573,1.439-1.413,1.462-1.447
				c0.182-0.271,0.42-0.421,0.675-0.529c-0.393-0.091-0.804-0.157-1.306-0.506c-0.714-0.495-0.864-0.692-0.886-1.308
				c-0.037-1.039-0.911-1.219-1.645-1.415c-0.821-0.22-1.417,0.421-1.029,1.173c0.948,1.838-2.327,0.071-1.42,1.781
				c0.02,0.039-0.395,0.417-0.509,0.396c-1.789-0.334-0.937,1.164-1.069,1.777c-0.104,0.479,0.647,0.621,1.116,0.547
				c0.104-0.498-0.037-0.498-0.234-0.957c-0.122-0.283-0.185-0.631,0.326-0.439c0.716,0.266,2.03,1.729,1.834,2.153
				C30.973,38.552,33.417,39.874,33.148,38.391z"/>
			<g>
				<path fill-rule="evenodd" clip-rule="evenodd" fill="#020202" d="M66.472,100.017c-0.299,0.375-0.227,1.219-0.732,1.146
					c-0.384-0.055-0.302-0.864-0.374-1.352c-0.226-1.518-0.45-3.036-0.665-4.556c-0.032-0.224-0.046-0.444-0.251-0.586
					c-0.161-0.111-0.339-0.197-0.528-0.093c-0.186,0.103-1.596,0.274-1.596,0.423c-0.007,1.638,0.376,3.205,0.374,4.847
					c-0.002,1.153,0.285,1.979,0.341,3.133c0,0-2.376,0.583-2.361,0.394c0.051-0.642-0.111-1.256,0.052-1.902
					c0.314-1.248,0.345-2.493,0.081-3.758c-0.292-1.397-0.675-1.608-1.881-0.966c-0.072-0.411,0.155-0.739,0.366-1.031
					c0.739-1.02,1.308-1.033,2.363-1.801c1.531-0.569,2.32-1.457,3.484-0.197c0.439,0.477,0.33,1.068,0.481,1.598
					c0.369,1.287,1.185,2.52,0.614,3.955C66.119,99.577,66.212,99.825,66.472,100.017z"/>
				<path fill-rule="evenodd" clip-rule="evenodd" fill="#020202" d="M43.793,81.635c0.767,0.22,1.646,0.821,1.995,1.748
					c-0.042,0.283,0.007,0.628-0.14,0.836c-0.596,0.854,0.803,1.734,0.662,1.643c1.806,1.161,3.045,1.727,3.554,3.249
					c-0.596-0.05-0.55,0.558-0.558,0.947c-0.005,0.243,0.043,0.601-0.288,0.604c-0.319,0.005-0.443-0.316-0.464-0.622
					c-0.022-0.316,0.009-0.641-0.052-0.949c-0.17-0.878-0.533-1.043-1.315-0.607c-0.226,0.125-0.431,0.32-0.686,0.128
					c-0.275-0.209-0.111-0.516,0.002-0.689c0.319-0.485,0.166-0.707-0.312-0.929c-0.526-0.243-0.737-1.055-1.567-0.806
					c-0.233,0.07-0.306-0.289-0.232-0.511c0.079-0.236,0.216-0.455,0.335-0.678c0.718-1.339,0.634-2.023-0.649-2.812
					C43.957,82.111,43.887,81.757,43.793,81.635z"/>
				<path fill-rule="evenodd" clip-rule="evenodd" fill="#020202" d="M40.743,78.043c1.321,0.574,2.082,1.709,2.633,2.927
					c0.338,0.748,0.706,1.332,1.442,1.672c-0.466,0.071-0.844-0.236-1.282-0.306c-0.297-0.047-0.556-0.122-0.764,0.172
					c-0.507,0.715-0.739,0.179-0.848-0.245c-0.133-0.517-0.217-1.079-0.164-1.604C41.869,79.588,41.447,78.773,40.743,78.043z"/>
			</g>
			<path fill-rule="evenodd" clip-rule="evenodd" fill="#020202" d="M62.503,94.961c-0.406,0.832-1.151,0.678-1.828,0.57
				c-0.867-0.137-1.356,0.156-1.31,1.046c0.051,0.987-0.36,0.925-0.998,0.578c-0.956-0.519-1.667-1.35-2.502-2.022
				c-0.394-0.316-0.59-0.882-0.429-1.482c0.197-0.735-0.185-1.032-0.873-0.928c-0.825,0.125-1.444-0.015-1.67-0.941
				c-0.04-0.161-0.233-0.295-0.375-0.418c-0.166-0.145-0.365-0.326-0.581-0.125c-0.186,0.174,0.004,0.359,0.097,0.505
				c0.34,0.53,0.523,1.115,0.635,1.74c-0.962-1.151-1.702-2.432-2.292-3.805c0.376-0.05,0.763-0.014,1.129-0.147
				c0.185,0.007,0.362,0.05,0.539,0.095c0.638,0.187,1.294,1.135,1.961,1.358c1.864,0.625,2.757,1.171,4.084,2.379
				c0.197,0.18,0.401,0.405,0.513,0.675c0.197,0.126,0.394,0.251,0.591,0.376C60.161,95.419,61.31,95.329,62.503,94.961z"/>
			<path fill-rule="evenodd" clip-rule="evenodd" fill="#020202" d="M17.403,76.162c0.19,1.153-0.362,2.638-0.5,3.752
				c-0.125,0.999-0.014,1.991,0.003,2.994c0.137,1.072,0.455,2.146,1.102,3.067c0.125,0.178,0.481,0.396,0.221,0.574
				c-0.231,0.158-0.401-0.028-0.575-0.18c-1.11-0.958-1.529-2.309-1.912-3.624c-0.432-1.486-0.36-2.994,0.286-4.466
				C16.438,77.349,17.403,76.162,17.403,76.162z"/>
			<path fill-rule="evenodd" clip-rule="evenodd" fill="#020202" d="M38.829,93.298c0.907-0.998,1.917-1.858,2.915-2.734
				c1.091-0.568,1.984-1.494,3-2.2c0.664-0.364,1.197-0.541,1.977-0.682c0.29-0.073,1.235,0.302,1.235,0.302
				c-1.278,1.041-2.223,2.854-2.666,4.141c-0.376,1.092-1.321,2.035-1.93,2.952c-0.546,0.821-0.865,1.657-1.305,2.544
				c-0.507,0.918-0.387,0.848-0.311,1.933c0.015,0.211,0.042,0.473-0.237,0.517c-0.247,0.039-0.483-0.579-0.547-0.787
				c-0.038-1.883,0.275-2.03,0.376-2.469c0.342-1.489,1.078-2.779,2.235-3.79c0.731-0.641,1.271-1.464,1.389-2.525
				c0.08-0.717-0.193-0.964-0.762-0.622c-1.318,0.789-2.59,1.677-3.812,2.649C39.037,93.598,38.017,94.45,38.829,93.298z"/>
			<path fill-rule="evenodd" clip-rule="evenodd" fill="#020202" d="M56.021,103.807c-0.294-0.269-0.585-0.539-0.874-0.812
				c-1.042-0.989-1.934-2.134-2.893-3.208c-0.778-1.156-1.39-2.404-2.022-3.642c-0.293-1.294-1.002-2.422-1.457-3.653
				c-0.196-0.79-0.239-1.405-0.179-2.289c0.001-0.331,0.628-1.316,0.628-1.316c0.128,1.732-0.036,2.245,0.162,2.926
				c0.46,1.577,1.816,4.638,2.487,6.137c0.739,1.652,1.838,3.054,3.093,4.35c0.303,0.314,0.698,0.407,1.03,0.615
				c0.396,0.246,0.758,0.531,1.106,0.831L56.021,103.807z"/>
		</g>
	</g>
	<g>
		<path fill-rule="evenodd" clip-rule="evenodd" fill="none" stroke="#FFFFFF" stroke-width="3.7794" stroke-miterlimit="10" d="
			M3.468,54.337c0-28.118,22.794-50.911,50.912-50.911s50.912,22.793,50.912,50.911S82.497,105.25,54.379,105.25
			S3.468,82.456,3.468,54.337"/>
		<path fill-rule="evenodd" clip-rule="evenodd" fill="none" stroke="#231F20" stroke-width="3.0955" stroke-miterlimit="10" d="
			M1.548,54.452c0-29.219,23.686-52.904,52.904-52.904c29.218,0,52.904,23.686,52.904,52.904c0,29.218-23.686,52.903-52.904,52.903
			C25.233,107.355,1.548,83.669,1.548,54.452"/>
	</g>
</g>
</svg>
