<?xml version="1.0" encoding="utf-8"?>
<!-- Generator: Adobe Illustrator 16.0.0, SVG Export Plug-In . SVG Version: 6.00 Build 0)  -->
<!DOCTYPE svg PUBLIC "-//W3C//DTD SVG 1.1//EN" "http://www.w3.org/Graphics/SVG/1.1/DTD/svg11.dtd">
<svg version="1.1" id="Layer_1" xmlns="http://www.w3.org/2000/svg" xmlns:xlink="http://www.w3.org/1999/xlink" x="0px" y="0px"
	 width="115.08px" height="124.368px" viewBox="-2.802 -3.088 115.08 124.368"
	 enable-background="new -2.802 -3.088 115.08 124.368" xml:space="preserve">
<g id="Layer_2">
</g>
<g id="Layer_1_1_">
	<polygon fill="#FFFFFF" points="41.601,106.25 54.738,121.281 67.876,106.25 	"/>
	<g>
		<path fill="#FFFFFF" d="M5.303,54.781c0-27.105,21.974-49.079,49.079-49.079s49.078,21.974,49.078,49.079
			c0,27.104-21.974,49.078-49.079,49.078C27.276,103.86,5.303,81.886,5.303,54.781"/>
		<path fill="#7B3E1F" d="M42.818,72.43l-0.164-3.529l-0.316-3.052l1.533-1.303l3.186-1.59l2.225-0.79l3.263-4.2l1.341-3.98
			l0.793-5.438l1.686-1.815l3.172-1.089l3.428-1.526l5.586,1.11l5.258,2.194l4.976,3.174l2.771,1.538l4.531,2.757l1.899,4.146
			l0.366,3.129l0.186,2.598l0.94,3.495l0.087,2.845l-0.522,1.523l1.523,1.661l-0.356,1.952l1.201,2.28c0,0-0.884,1.712-1.083,2.334
			s-1.039,3.386-1.039,3.386l1.52,3.432l-9.232,7.722l-3.261-8.711h-3.88l-1.757,0.626l-1.264,2.629l-1.249,1.614l-3.237,1.277
			l-1.931,0.779c-0.983,0.399-2.971,0.056-4.021,0.014c-1.522-0.062-3.129-0.192-4.543-0.802c-2.186-0.938-3.729-3.253-5.309-4.959
			l-4.311-2.432l-1.352-4.979l-0.308-2.407l0.497-1.882l0.441-3.009"/>
		<path fill="#AF7544" d="M69.769,59.463l0.685-2.332c0.456-0.338,1.668-1.053,2.704-0.788c1.433,0.366,2.576,0.38,3.579,1.465
			c0.397,0.43,1.924,2.346,2.198,2.858c0.29,0.543,0.097,0.957,0.21,1.562c0.069,0.375-0.695,0.749-0.624,1.123l-4.562,6.051
			l-1.884,2.308l-1.454,2.238l-1.153,6.33l1.355,0.816L70.717,84.4l1.108,3.746l-1.155,2.841l-2.685,1.841
			c0,0-4.043,0.767-4.108,0.795c-0.513,0.224-2.484,0.479-3.056,0.457c-1.586-0.062-1.334,0.123-2.877-0.249
			c-0.241-0.06-1.374-0.645-1.43-0.839c-0.148-0.517,0.005-1.358,0.317-1.771c0.322-0.425,0.436-0.642,0.757-1.065
			c0.01-0.012,1.306,0.508,2.645,0.383c0.595-0.058,1.198,0.094,1.701,0.037c0.351-0.039,0.865-0.42,1.069-0.688
			c0.399-0.521-0.477-0.849-0.883-0.961c-1.922-0.53-4.281-0.438-4.442-0.81l1.44-2.364l-2.498-3.524l3.18,0.75l3.124,0.752
			l2.747-1.713v-2.158l-1.752-1.794l-2.977-0.893c0.146-2.327,0.073-6.038,0.549-8.322c0.508-2.443,2.421-3.404,4.339-4.67
			c1.898-1.252,3.778,1.857,5.667,0.591C71.952,64.465,69.561,60.258,69.769,59.463z"/>
		<path fill="#AF7544" d="M50.733,62.915v3.033l0.547,3.309c0.133,0.36,0.268,0.72,0.4,1.08c0.342,0.929,0.462,2.111,1.655,2.233
			c0.587,0.062,0.855-0.198,1.073-0.709c0.175-0.41,1.012-0.821,1.188-1.232c0.209-0.489,0.462-1.072,0.621-1.582
			c0.245-0.789,0.813-1.23,0.778-2.067c-0.02-0.516,1.169-1.267,1.528-1.52c0.625-0.44,1.697-0.466,2.013-1.247
			c0.144-0.353-0.694-2.05-0.539-2.431c0.737-1.789,0.527-3.698,0.282-3.766c-0.384-0.104-3.234-2.196-3.671-2.284
			c-0.593-0.118-4.641,3.077-5.175,3.983C51.143,60.216,50.733,62.915,50.733,62.915z"/>
		<path fill="#AF7544" d="M80.66,87.124c-0.263-0.514-0.457-0.786-0.496-1.354c-0.059-0.853-0.001-1.979,0.335-2.776
			c0.512-1.214,1.361-1.082,2.324-1.671c0.583-0.356,0.672-1.157,0.865-1.75c0.24-0.737,0.718-2.439,1.64-2.601
			c0.46-0.08,0.914,0.126,1.376,0.029c0.477-0.099,0.92-0.409,1.229-0.776c0.521-0.619,0.726-1.534,1.111-2.245
			c0.058-0.104,0.776-1.404,0.938-0.995c0.137,0.351,1.165,1.113,1.24,1.784c0.057,0.502,0.113,1.599,0.286,2.066
			c0.162,0.435-0.051,1.269,0.152,1.685c0.098,0.201,0.204,0.633,0.204,0.861l-0.627,2.09l-0.209,2.297l-0.733,1.602
			c0,0-2.238,1.053-2.512,1.084c-0.272,0.03-2.71,1.046-2.71,1.046h-1.539l-1.733-0.514C81.783,86.838,80.769,87.335,80.66,87.124z"
			/>
		<polygon fill="#FFFAFC" points="60.942,77.171 63.338,78.043 65.282,79.109 65.532,80.734 64.532,83.126 61.422,84.36 
			58.094,83.126 56.458,81.959 55.911,80.766 56.458,79.359 57.771,78.043 59.448,77.373 		"/>
		<polygon fill="#FCD1BC" points="34.09,39.051 33.36,40.604 30.902,37.979 28.152,37.979 26.339,39.729 26.009,44.5 26.009,46.764 
			26.276,50.167 27.515,52.333 28.573,55.052 29.168,56.183 29.18,58.809 28.277,62.109 32.017,65.311 34.822,67.25 36.954,69.358 
			41.21,72.1 41.769,72.904 43.97,72.852 43.092,68.332 42.398,65.311 44.656,64.155 47.404,62.732 49.67,61.666 51.174,59.791 
			52.073,58.421 53.001,56.553 53.481,54.065 54.381,50.167 55.096,45.272 55.911,41.604 56.719,39.479 56.458,36.979 
			55.911,35.416 54.596,34.166 51.021,33.727 47.616,32.29 45.462,31.352 42.779,30.952 40.467,30.952 39.184,31.79 38.246,33.666 
			37.502,35.001 35.983,36.416 34.822,37.729 		"/>
		<path fill="#FFFFFF" d="M39.592,58.083l-2.089-0.659l0.423,0.605l0.622,0.347l1.045,0.457l0.792,0.312
			c0,0,0.229,0.223,0.594,0.383c0.364,0.161,1.36,0.263,1.36,0.263l1.29-0.263l0.561-0.133l0.404-0.312l0.37-0.478l-0.744-0.082
			l-1.208,0.082l-1.167-0.103l-1.375-0.225L39.592,58.083z"/>
		<polygon fill="#FFFFFF" points="37.502,58.253 37.502,58.809 37.844,59.396 38.491,59.791 39.467,60.107 40.092,60.508 
			40.776,59.838 40.342,59.396 39.299,58.817 38.246,58.607 		"/>
		<polygon fill="#ECBA9F" points="72.045,87.002 71.263,89.532 70.822,90.842 67.804,92.483 68.907,94.57 68.907,96.347 
			69.926,99.738 80.723,94.57 80.144,92.274 79.149,89.532 78.056,87.472 76.82,86.149 74.806,86.053 73.138,86.497 		"/>
		<polygon fill="#E2F4FD" points="11.741,78.043 20.713,65.732 22.771,63.514 24.276,62.468 26.009,62.109 27.495,62.231 
			29.18,62.881 33.215,65.983 38.491,70.348 40.776,72.43 41.769,72.904 43.64,72.821 45.462,72.58 44.961,77.734 44.438,81.388 
			46.315,83.126 47.007,85.541 49.215,87.002 51.78,89.165 55.096,91.423 57.65,93.18 61.04,94.699 67.2,93.872 68.648,94.081 
			69.908,100.425 65.254,102.09 59.974,102.904 53.864,102.904 48.599,102.487 43.64,101.799 37.502,100.072 31.135,96.907 
			26.823,94.188 22.771,91.361 19.577,88.486 16.713,84.922 14.131,81.635 		"/>
		<path fill="#ECBA9F" d="M55.661,35.475c-0.141,0.559-0.279,3.299-0.5,3.839c-0.236,0.581-0.609,1.091-0.847,1.67
			c-0.227,0.555-0.582,1.04-0.84,1.577c-0.139,0.285-0.274,0.592-0.314,0.91c-0.038,0.302,0.048,0.582-0.141,0.854
			c-0.418,0.603-1.537,0.149-2.101,0.083c-1.027-0.124-2.32,0.218-3.357,0.28c-1.188,0.073-1.272,0.399-1.684,1.439
			c-0.406,1.026-0.567,1.008-0.932,1.895c-0.374,0.913-0.956,2.021-0.854,3.01c0.069,0.691,0.198,1.567-0.053,2.24
			c-0.131,0.35-0.485,0.65-0.911,0.713c-0.314,0.045-1.447,0.115-1.922-0.034c-0.435-0.14-0.833-0.348-1.276-0.48l2.912,2.261
			l1.792,0.25c0,0,0.305,0.533-0.195,0.775c-0.427,0.207,0.356,1.222-0.511,1.577c-1.45,0.594,1.327,0.028,1.064,0.369
			c-0.442,0.576-2.266,1.762-2.384,1.997c-0.076,0.151-0.739,2.496-1.177,2.856c-0.275,0.228-1.279,0.943-2.413,0.87
			c-1.811-0.117-3.948-1.083-3.98-0.496c-0.013,0.238,1.021,0.961,2.099,1.403c1.193,0.489,2.445,0.691,2.399,0.749
			c-0.17,0.21,3.408-1.167,3.234-0.962c-0.398,0.468,3.076-1.917,2.529-1.607c-0.002,0,1.055-0.949,1.055-0.949l3.074-0.855
			l2.174-2.132l1.996-4.678l0.383-4.27l0.396-4.441L54.988,46l0.657-2.938l0.776-2.804l0.172-1.447l-0.136-0.916L55.661,35.475z"/>
		<path fill="#C2E8FB" d="M46.593,88.36l-2.154,1.118l-1.888,1.302l-1.5,1.304l-0.875,0.812l-0.992,0.814
			c-0.197,0.312-0.114,0.83,0.479,0.83c0.087,0,3.249-2.886,3.542-2.267c0.246,0.519-1.374,2.473-2.852,4.128
			c-1.142,1.276-0.948,2.375-1.002,2.498c-0.199,0.446,2.925,1.066,3.336,1.404c1.01,0.83,2.543-4.275,3.502-3.952
			c0.557,0.188,3.589,5.235,4.087,5.336c0.615,0.123,3.617-0.062,4.22-0.062c1.904,0,3.81,0,5.712,0c0.615,0,1.229,0,1.845,0
			c0,0,4.505-0.708,4.421-0.881c-0.075-0.158,2.717-1.115,2.959-1.19c-0.308-0.912-0.15-1.693-0.275-2.452
			c-0.121-0.729-0.271-2.271-0.825-2.769c-0.624-0.562-4.67,0.671-5.564,0.538l-1.768,0.174l-4.073-2.562l-4.375-2.625l-1.531-1.708
			l-1.806-0.804l-1.443,0.369L46.593,88.36z"/>
		<path fill="#ECBA9F" d="M41.228,72.58l1.692,0.327c0.105-0.311,0.141-6.278-0.79-7.138c-0.556-0.514-1.765,0.318-2.626,0.156
			c-0.5-0.094-2.218-0.5-2.218-0.5s-2.674-2.48-2.675-2.481c0.11,0.104,0.043,0.875,0.048,1.042c0.011,0.385,0.009,0.771-0.058,1.15
			c-0.103,0.593-0.387,1.139-0.62,1.688L41.228,72.58z"/>
		<path fill="#ECBA9F" d="M36.523,41.211c0.659-0.294,0.267-0.075,0.461-0.726c0.184-0.614,0.633-1.116,0.962-1.655
			c0.557-0.91,1.569-1.381,2.335-2.08c0.383-0.351,0.716-0.758,0.875-1.26c0.166-0.523,0.056-1.244,0.531-1.623
			c0.18-0.146,0.613-0.476,0.842-0.51c0.503-0.075,1.033,0.301,1.524,0.375c0.113,0.019,0.995,0.141,1.032,0.077l3.854,0.658
			l-2.207-2.617l-5.632-1.148h-1.837l-1.435,3.935l-2.883,3.092l-1.461,2.529l1.108,0.408
			C34.594,40.667,35.497,41.667,36.523,41.211z"/>
		<path fill="#C2E8FB" d="M25.932,61.816c-0.311,0.054,0.93,6.358,0.632,6.238c0.452,0.182,6.345,1.521,6.797,1.701l3.177,1.661
			l1.667,1.436l1.542,1.902l1.486,2.038l2.779,3.974l1.451-7.914l-3.424,0.272l-2.35-2.005l-2.187-1.828l-1.715-1.365
			c-0.057-0.046-1.968-1.746-2.083-1.676c-0.206,0.124-1.912-1.873-3.318-2.786C28.359,62.148,26.415,61.735,25.932,61.816z"/>
		<path fill="#C2E8FB" d="M44.239,87.429c-0.203-1.431-1.781-2.75-2.479-4.031c-0.473-0.865,0.517-2.636-0.6-4.391
			c-0.963-1.516-5.211-1.178-5.578-1.651c-0.78-1.007-1.726-1.874-2.578-2.819c-0.877-0.975-1.977-1.716-3.083-2.406
			c-0.89-0.556-2.124-1.045-2.652-2.001c-0.104-0.187-0.946-2.247-1.104-2.273l5.112,0.889l3.636,1.752l3.08,1.936l2.862,3.487
			l3.211,4.533l2.329,2.406l1.794,4.146l-1.586,2.656l-1.645-0.453l-2.716,1.573C42.245,90.78,44.463,89.008,44.239,87.429z"/>
		<path fill="#C2E8FB" d="M19.169,74.674c-0.478,1.364-0.273,0.582-0.244,2.042c0.02,0.985-0.568,3.237-0.387,5.308
			c0.157,1.79,4.084,3.445,4.192,4.035c0.229,1.253,0.669,2.458,0.99,3.688c0.504,1.933,0.763,1.432,1.752,3.146
			c0.104,0.183,0.803,1.875,0.928,2.044l-3.264-2.665l-2.648-2.741l-2.95-3.87l-2.699-3.515l-2.057-4.438l0.75-1.548l2.579-3.582
			l1.547-1.663l3.053-5.186l2.655-2.787l2.825-0.9l0.201,5.83l-2.667,0.565C23.729,68.44,19.697,73.169,19.169,74.674z"/>
		<path fill="none" stroke="#010101" stroke-width="3.6433" stroke-miterlimit="10" d="M6.017,54.065
			c0-27.104,21.974-49.078,49.079-49.078c27.104,0,49.078,21.974,49.078,49.078c0,27.105-21.974,49.079-49.078,49.079
			C27.99,103.144,6.017,81.17,6.017,54.065"/>
		<polygon fill="#FFD68A" points="48.94,22.129 47.916,24.317 47.092,25.754 46.104,29.067 49.426,31.943 48.94,33.755 
			53.001,33.97 54.596,34.166 56.042,35.475 56.458,36.979 56.48,42.194 60.557,41.944 61.043,39.631 60.557,37.069 60.557,34.631 
			59.035,30.952 56.719,27.692 53.967,24.567 51.912,22.568 50.039,22.129 		"/>
		<polygon fill="#FFD68A" points="22.409,54.856 21.663,57.124 19.297,56.838 18.353,57.424 17.912,57.835 17.539,58.809 
			17.006,60.301 14.737,60.508 14.131,61.144 13.729,61.467 13.467,61.802 13.188,62.945 12.995,65.718 12.328,67.25 12.018,66.978 
			11.741,67.51 11.328,67.926 11.015,68.884 11.301,70.003 13.559,74.493 18.965,68.131 18.662,66.104 18.746,64.674 19.371,64.155 
			20.078,63.929 20.33,63.718 20.58,63.385 20.96,62.945 21.455,61.802 21.58,60.092 22.011,59.381 22.771,58.817 23.667,57.936 
			24.112,57.424 25.62,56.87 26.009,56.583 27.495,55.73 25.881,55.052 		"/>
		<g>
			<path fill="#020202" d="M46,58.152c2.693-0.061,1.136,0.775,0.92,0.792c-0.299,0.024-0.875,0.444-1.127,0.638
				c-0.61,0.462-1.642,0.747-2.477,1.036c-0.79,0.271-1.413,0.184-1.481,0.187c-1.685,0.086-3.151-0.557-4.292-1.686
				c-0.879-0.872-1.832-1.776-2.176-3.082c-0.082-0.31-0.247-0.643-0.688-0.753c-0.606-0.15-0.112-0.621,0.169-0.339
				c0.338,0.342,1.136,1.272,1.48,1.531c0.32,0.24,1.931,0.254,2.496,0.595c1.981,1.195,4.789,1.372,6.958,1.089 M42.682,59.492
				c0.4-0.034,1.678-0.424,2.106-0.74c-0.76-0.332-1.471,0.15-2.097,0.083c-0.185-0.096-1.112-0.15-1.327-0.125
				c-0.482,0.058-1.399-0.537-1.73-0.553c-0.739,0.014-2.083-0.707-1.73-0.409c0.298,0.371,1.789,1.203,2.212,1.337
				C40.413,59.179,41.626,59.583,42.682,59.492z M37.85,58.414c-0.075,0.458,0.146,0.691,0.432,0.921
				c0.43,0.346,0.991,0.315,1.459,0.547c0.191,0.095,0.428,0.063,0.481-0.163c0.042-0.179-0.168-0.241-0.329-0.301
				C39.197,59.163,38.5,58.914,37.85,58.414z"/>
			<path fill="#020202" d="M35.299,44.875c-0.026,0.08-0.022,0.172,0.024,0.278c0,0,0.702-0.11,0.812-0.143l0.571-0.144
				c0,0,0.234,0.188,0.238,0.189c0.054,0.043-0.147,0.848,0.071,1.071c0,0,0.779,0.247,1.077,0.356
				c0.427,0.159,1.088,0.29,1.088,0.29c0.239,0.1,0.65-0.599,0.721-0.764c0,0,0.285-0.427,0.286-0.43
				c-0.02,0.084,0.267,0.639,0.29,0.847c0.028,0.278-0.122,0.828,0.078,1.059l0.635,0.241c0.133-1.209-0.373-2.594-1.398-3.147
				c-0.489-0.266-1.02-0.455-1.569-0.532C37.56,43.956,35.583,44.022,35.299,44.875z"/>
			<path fill="#020202" d="M46.609,48.656c-0.006,0.081,0.019,0.168,0.089,0.259c0.077,0.1,0.639-0.271,0.734-0.328l0.508-0.272
				c0,0,0.267,0.122,0.271,0.125c0.062,0.027,0.151,0.809,0.448,0.882l2.114,0.158c0.552,0.014,0.644-0.956,0.634-1.314
				c0.002,0.084,0.405,0.542,0.477,0.732c0.095,0.256,0.083,0.813,0.326,0.984l0.521-0.084c-0.161-1.177-0.834-2.206-1.938-2.488
				c-0.526-0.135-1.073-0.188-1.614-0.131C48.53,47.247,46.676,47.778,46.609,48.656z"/>
			<g>
				<path fill="#020202" d="M88.775,61.838c0.241,1.411,0.014,2.881,0.264,4.31c0.036,0.205,0.067,0.484,0.316,0.547
					c0.337,0.084,0.244,0.692,0.133,1.187c-0.053,0.235-0.202,0.412-0.466,0.376c-0.23-0.031-0.258-0.245-0.293-0.433
					c-0.094-0.496-0.229-0.987-0.272-1.488c-0.167-1.964-0.311-3.932-0.447-5.897c-0.016-0.213,0.07-0.432,0.109-0.646"/>
				<path fill="#020202" d="M88.06,59.529c-0.765-1.37-1.558-2.727-2.272-4.122c-0.193-0.381-1.858-1.693-2.217-1.908
					c-0.375-0.227-1.008-0.539-1.033-0.939c-0.357-0.152,0.76,0.424,2.677,1.226c0.187,0.076,1.687,0.905,1.613,1.089
					c0.527,1.16,0.886,1.961,0.872,2.982c-0.004,0.29,0.103,0.62,0.363,0.731C88.865,58.93,88.498,59.217,88.06,59.529z"/>
				<g>
					<path fill="#020202" d="M74.372,46.038c-0.012,0.143,0.102,0.197,0.243,0.171c1.334,0.888,2.807,1.62,3.857,2.85
						c0.928,1.086,1.997,1.981,3.103,2.855c-0.894,0.668-2.051,0.522-2.987-0.335c-1.581-1.452-4.286-2.667-6.431-2.733
						c-0.432-0.014-0.821,0.146-1.233,0.146c-0.24,0.001-0.163-0.344-0.514-0.317c-1.182,0.086-2.839,0.965-3.748,1.721
						c-1.364,1.136-2.311,0.979-3.147-0.655c-0.379-0.738-0.402-1.123-1.145-1.538c-0.571-0.319-1.271-0.374-1.859-0.666
						c-1.885-0.937-3.102,0.115-4.854,0.746c-0.179,0.062-0.266,0.466-0.51,0.293c-0.295-0.208-0.111-0.53,0.03-0.768
						c0.376-0.635,0.742-1.308,1.044-1.945c0.416-0.883,0.737-1.854,1.072-2.8c0.214-0.604,0.615-1.13,0.46-1.866"/>
					<path fill="#020202" d="M63.603,86.124c-0.27-0.036-0.532-0.037-0.583,0.309c-0.048,0.321,0.149,0.527,0.385,0.714
						c0.224,0.179,0.931,0.056,0.585,0.562c-0.241,0.354-0.751,0.833-1.373,0.429c-0.184-0.119-0.323-0.309-0.575-0.3
						c-0.294,0.011-0.489,0.201-0.588,0.425c-0.188,0.432,0.46,0.361,0.469,0.723c-0.178,0.26-0.473,0.187-0.671,0.098
						c-0.887-0.398-1.76-0.529-2.752-0.372c-0.854,0.136-2.019-1.393-2.168-2.62c0.288-0.31,0.665-0.406,1.065-0.447
						c0.362,0.197,0.722,0.477,1.204-0.005c-0.674-0.192-1.003-0.749-1.532-1.04c-0.218-0.444-0.395-0.917-0.663-1.33
						c-1.229-1.886-0.956-4.057,0.714-5.503c0.112-0.097,0.165-0.263,0.245-0.395c1.106-0.808,2.693-0.78,3.532-2.071
						c0.219-0.338,0.668-0.622,1.042-0.523c0.557,0.146,0.507,0.561,0.243,1.051c-0.438,0.812-0.211,1.239,0.644,1.298
						c1.741,0.116,3.129,0.712,3.759,2.504c0.121,0.345,0.401,0.636,0.608,0.951c0.002,0.184,0.005,0.368,0.007,0.553
						c-0.325,1.011-0.648,2.021-0.974,3.033l0.002,0.011c-0.312,0.197-0.623,0.395-0.935,0.593
						C64.667,85.141,64.314,85.855,63.603,86.124z M60.154,77.804c-0.92,0.03-3.436,1.624-3.722,2.61
						c-0.139,0.478,0.08,0.91,0.519,1.225c0.568,0.405,0.481-0.276,0.724-0.407c0.25-0.135,0.464-0.342,0.722-0.453
						c0.507-0.218,1.017-0.709,1.509,0.114c0.298,0.499,1.026,0.943,1.374,0.998c0.722,0.113,0.743,0.347,0.673,0.888
						c-0.021,0.155,0.099,0.307,0.287,0.316c0.189,0.01,0.294-0.135,0.338-0.282c0.216-0.709,0.68-1.045,1.409-1.221
						c0.57-0.138,0.97-0.715,0.995-1.275c0.027-0.585-0.478-0.781-1.056-0.981c-1.129-0.393-2.37-0.531-3.352-1.312
						C60.434,77.912,60.248,77.852,60.154,77.804z M59.905,87.781c-0.312-0.246-0.948-0.058-0.787-0.703
						c-0.627,0.097-1.056,0.524-0.657,1.026C58.71,88.418,59.473,88.444,59.905,87.781z"/>
					<path fill="#020202" d="M71.196,66.919c-0.205,0.062-0.405,0.124-0.597,0.175c-0.833,0.222-0.957,0.082-1.365-0.714
						c-0.631-1.229-0.509-2.727-1.339-3.896c-0.077-0.107-0.044-0.274,0.08-0.33c0.25-0.11,0.495-0.301,0.798-0.1
						c0.305,0.205,0.61,0.528,0.944,0.008c0.284-0.443,0.605-0.862,0.045-1.321c-0.35-0.284-0.23-0.596,0.033-0.801
						c0.331-0.257,0.5,0.022,0.622,0.311c0.335,0.79,0.833,0.33,1.235,0.114c0.317-0.171,0.653,0.548,1.82,0.768
						c1.25,0.234,2.113,1.118,2.286,2.374c0.049,0.361,0.188,0.668,0.39,0.954c0.195,0.279,0.048,0.396-0.205,0.474
						c-0.162,0.01-0.324,0.02-0.486,0.027c-0.638,0.05-0.915,1.47-1.737,1.513c-0.147,0.007-0.294,0.017-0.442,0.022
						c-0.098,0.005-0.195,0.009-0.292,0.013C72.409,66.534,71.783,66.736,71.196,66.919z"/>
					<path fill="#020202" d="M52.634,62.35c-0.304-0.27-0.386-0.696-0.788-0.897c-0.67-0.338-0.429-0.777-0.097-1.149
						c0.314-0.354,0.643-0.667,0.872-1.104c0.254-0.481,1.776-0.516,2.164-0.115c0.25,0.258,0.54,0.455,0.9,0.499
						c0.732,0.086,1.46,0.084,1.753,1.021c0.301,0.963,0.55,1.886,0.034,2.84c-0.238,0.441-0.468,0.888-0.57,1.082
						c-0.601,0.169-0.99-0.089-1.464-0.404c-0.329-0.22-1.702-0.608-1.77-1.094c-0.077-0.566-0.498-0.364-0.86-0.556
						C52.743,62.438,52.686,62.396,52.634,62.35z"/>
					<path fill="#020202" d="M60.522,64.296c-0.466-0.764-0.768-1.572-0.777-2.476c-0.009-0.806,0.283-1.592,0.056-2.388
						c-0.222-0.771-0.976-1.565-1.511-2.131c-0.229-0.242-0.619-0.729-0.984-0.764c-0.372-0.035-0.697,0.729-1.104,0.388
						c-0.263-0.223-0.359-0.528-0.24-0.86c0.182-0.5,1.649-1.166,2.143-0.983c0.028,0.011,0.077,0.025,0.081,0.046
						c0.265,1.264,0.808,0.583,1.367,0.229c0.868-0.549,1.964,2.24,2.299,2.801c0.235,0.396,0.563,0.608,0.72,1.062
						c0.523,1.524,0.418,3.51,0.378,5.099c-0.003,0.135,0.062,0.366-0.194,0.323c-1.646-0.281,0.073,1.623-0.137,2.296
						c-0.157,0.505-1.103,0.397-1.479,0.248c-0.636-0.251-1.308-1.103-1.527-1.736C59.345,64.677,59.816,64.492,60.522,64.296z"/>
					<path fill="#020202" d="M80.419,86.448c-0.238-0.47-0.417-0.72-0.452-1.236c-0.055-0.778-0.002-1.81,0.306-2.537
						c0.466-1.107,1.243-0.987,2.123-1.525c0.531-0.323,0.613-1.057,0.789-1.598c0.22-0.674,0.655-2.228,1.497-2.374
						c0.42-0.073,0.634,0.357,0.634,0.357l0.049,0.717c0,0-0.562,1.067-0.811,1.097c-0.249,0.028-1.192,2.289-1.192,2.289
						l-1.24,1.526l-0.66,3.157C81.445,86.187,80.519,86.64,80.419,86.448z"/>
					<path fill="#020202" d="M59.035,93.375c1.283-0.153,3.357-0.21,5.369-0.666c1.345-0.306,2.661-1.104,3.694-1.062
						c0.042,0.003,2.092-0.121,2.665-1.743c0.147-0.393,0.417-1.125,0.321-1.549c-0.091-0.41-0.499-0.483-0.586-0.863
						c-0.126-0.557,0.949-2.182-0.069-2.387c-0.662-0.134-0.621,1.061-0.908,1.36c-0.409,0.429-0.729,0.089-0.767-0.385
						c-0.035-0.457,0.361-0.82,0.388-1.269c0.039-0.687-0.118-1.303,0.369-1.861c0.305-0.351,1.106-0.593,0.883-1.197
						c-0.253,0.028-0.255,0.184-0.481,0.289c-0.72,0.329-0.756-0.52-0.706-1.002c0.091-0.876,0.102-1.759,0.059-2.64
						c-0.034-0.7-0.303-1.648-0.034-2.326c0.102-0.257,1.229-1.963,1.376-1.908c0.467,0.172,0.425,1.147,0.373,1.529
						c-0.138,1.002-0.292,1.908,0.033,2.893c0.238,0.728-0.143,1.349,0.022,2.013c0.066,0.265,0.148,0.214,0.209,0.348
						c0.106,0.229,0.24,0.2,0.29,0.484c0.076,0.441-0.119,0.936-0.09,1.394c0.038,0.584,0.214,1.147,0.216,1.737
						c0.001,0.273-0.187,0.835,0.014,1.073c0.632,0.751,1.339-2.277,1.203-2.771c-0.219-0.803-0.438-1.041,0.012-1.799
						c0.309-0.52,0.622-0.855-0.188-1.074c-1.432-0.391,0.003-1.324-0.144-2.376c-0.074-0.539-0.353-0.624,0.062-1.102
						c0.271-0.313,0.82-0.562,1.23-0.595c0.854-0.068,2.726,0.745,2.872-0.702c0.104-1.039,0.501-5.693-1.077-5.731
						c-0.817-0.019-0.647,0.456-1.044,0.97c-0.228,0.293-0.653,0.346-0.85,0.672c-0.197,0.333,0.054,0.78-0.193,1.058
						c-0.408,0.456-1.089,0.024-0.945-0.531c0.241-0.927,0.49-1.782,1.088-2.546c1.097-1.399,2.24-2.729,3.316-4.152
						c0.129-0.171,0.24-0.383,0.28-0.591c0.257-1.333-0.121-2.765-0.875-3.876c-0.414-0.613-1.101-0.97-1.572-1.526
						c-0.184-0.216-0.919-1.927-0.078-1.839c1.12,0.116,0.812-0.871,1.545-1.254c0.727-0.38,1.409,0.692,1.611,1.267
						c0.231,0.658,0.747,3.985,1.718,4.037c1.135,0.06,0.442-2.587,0.378-3.312c-0.079-0.885-0.248-2.921,1.022-3.058
						c0.98-0.104,2.406,1.188,2.981,1.88c0.668,0.81,0.737,1.968,1,2.949c0.148,0.553,0.464,1.294,0.237,1.865
						c-0.251,0.633-0.931,0.512-1.372,0.895c-0.635,0.549-0.298,1.396-0.185,2.099c0.2,1.241-0.554,2.216-0.71,3.409
						c-0.048,0.366,0.005,0.976-0.465,1.086c-1.829,0.435-0.346-4.244-3.066-3.305c-1.031,0.355-2.513,2.314-1.829,3.447
						c1.622,2.692,0.372,5.433,0.84,8.275c0.125,0.76,0.095,0.742-0.462,1.184c-0.518,0.409-0.469,0.663-0.584,1.306
						c-0.083,0.459-0.974,1.701-0.203,1.972c0.35,0.121,0.607-0.054,0.771-0.381c0.212-0.421,0.547-0.802,0.797-1.201
						c0.138-0.219,0.296-0.414,0.522-0.526c0.337,0.6-0.133,2.457-0.493,3.042c-0.494,0.803-0.336,1.619-0.554,2.406
						c-0.121,0.438-0.024,0.922,0.536,1.063c0.395,0.103,0.803,0.107,1.09-0.213c0.321-0.356,0.344-0.745,0.886-0.719
						c0.626,0.03,0.924,0.874,1.585,0.731c0.554-0.116,0.692-0.855,1.229-1.052c0.054,0.35-0.178,0.824,0.354,0.796
						c1.188-0.062,1.6-0.675,2.564-1.224c0.435-0.248,0.949-0.105,1.387-0.298c0.552-0.243,0.611-0.688,0.863-1.19
						c0.313-0.623,0.821-1.019,1.042-1.724c0.377-1.2,0.269-2.525,0.146-3.758c-0.111-1.119,0.107-3.049-1.024-3.74
						c-0.73-0.447-0.519-1.295-0.264-1.961c0.118-0.312,0.356-0.621,0.43-0.941c0.11-0.491-0.134-0.956-0.044-1.44
						c0.426-0.185-0.062-0.029,0.347-0.247c0.459-0.246,0.302,1.466,0.815,1.484c0.833,0.03-0.719,0.979-0.243,1.62
						c0.307,0.414,1.119,1.803,1.053,2.36c-0.048,0.406-0.688,3.345,0.048,3.554c1.104,0.314-0.486,3.06-0.478,4.196
						c0.006,0.735-0.864,1.712-1.001,2.003c-0.019,0.037-0.479,1.901-2.337,2.146c-0.604,0.079-2.536,0.229-3.339,0.812
						c-0.83,0.603-3.203-1.028-3.291,0.189c-0.066,0.938-2.84-0.27-3.862-0.333c-0.764-0.049-2.363-1.106-2.528-0.096
						c-0.086,0.534-2.04-0.077-2.144,0.438c-0.185,0.911-0.384,2.129-0.62,2.983c-0.429,1.548-2.67,1.402-2.957,2.596
						c-0.084,0.353-2.299,0.79-4.528,0.846c-2.292,0.057-4.601-0.271-4.627,0.1"/>
					<path fill="#020202" d="M44.024,78.992c0.225-0.197,0.321-3.924,0.88-6.07c0.513-1.964,1.506-2.356,1.413-2.665
						c-0.005-0.062,0.317-1.891,0.321-2.075c0.233-0.988,0.562-2.019-0.212-2.061c-1.184-0.064-0.876-1.015-0.667-1.356
						c0.146-0.239,0.306-0.179,0.584-0.319c0.464-0.233,0.438-0.142,0.499-0.621c0.102-0.8-2.417-0.063-1.843-0.324
						c0.262-0.119,3.372-1.022,3.535-1.271c0.189-0.018,0.988-1.112,1.435-1.545c0.422,0.101,0.123,0.082,0.19,0.417
						c0.073,0.356,0.214,0.074,0.467,0.338c0.179,0.187,0.544,0.331,0.345,0.688c-0.156,0.274-0.46,0.287-0.755,0.312
						c-1.17,0.103-1.47,0.385-1.514,1.51c-0.037,0.95-0.065,1.908,0.001,2.855c0.051,0.711,0.118,1.536,0.724,1.982
						c1.007,0.741,1.081,1.853,1.014,2.819c-0.088,1.278,1.115,4.329,2.084,5.286c0.269,0.267,0.66,2.701,0.381,2.957
						c-0.254,0.233-1.417-1.279-1.562-1.401c-0.494-0.424-1.58-2.919-1.824-3.693c-0.049-0.155-0.439-0.564-0.62-0.59
						c-0.167-0.024-0.322,0.411-0.286,0.59c0.107,0.545-0.315,1.184-0.812,1.505c-0.047,0.028-0.271,0.379-0.244,1.21
						c0.008,0.239,0.248,0.564,0.471,0.688c0.27,0.149,0.621,0.256,0.769,0.534c0.135,0.256,0.408,0.988,0.356,1.271
						c-0.055,0.299-0.576,0.478-0.829,0.359c-0.298-0.14-0.497-0.617-0.761-0.045c-0.252,0.547-0.263,1.701-0.048,1.955
						c0.307,0.361,0.548,3.512,0.237,3.817c-0.101,0.102-1.378-3.033-2.472-4.17c-0.535-0.557-1.026-0.374-1.313-0.859
						c-0.831-1.397,0.221-1.521-0.104-1.781"/>
				</g>
			</g>
			<path fill="#020202" d="M74.504,46.102c-0.013,0.143,0.102,0.197,0.242,0.17c1.334,0.889,2.808,1.62,3.857,2.851
				c0.927,1.086,1.998,1.981,3.103,2.855c-0.894,0.668-2.051,0.522-2.986-0.337c-0.666-0.609-1.492-0.986-2.25-1.462
				c-0.65-0.406-1.396-0.421-2.071-0.646c-1.045-0.353-2.012-0.901-3.145-0.464c-0.243,0.096-0.258,0.003-0.309-0.164
				c-0.104-0.35-0.311-0.237-0.507-0.097c-0.319,0.23-0.715,0.245-1.057,0.38c-0.894,0.357-1.868,0.673-2.589,1.271
				c-1.362,1.134-2.311,0.977-3.147-0.656c-0.273-0.531-0.365-1.401-1.085-1.455c-1.046-0.078-1.77-0.774-2.669-1.107
				c-0.338-0.125-0.667-0.224-1.019-0.151c-1.105,0.221-2.038,0.88-3.084,1.256c-0.179,0.064-0.266,0.466-0.51,0.293
				c-0.295-0.208-0.11-0.529,0.03-0.767c0.375-0.636,0.17-1.309,0.471-1.944c0.416-0.884,0.356-1.856,0.691-2.801
				c0.215-0.604-0.309-1.404,0.461-1.867c0.3-0.18,0.51-0.532,0.976-0.596c0.492-0.066,0.628-0.011,0.859,0.455
				c0.388,0.782,0.837,0.37,1.23,0.061c0.44-0.348,0.474-1.221,0.033-1.561c-1.076-0.826,1-1.521-0.012-2.277
				c-0.023-0.018,0.023-0.572,0.082-0.628c0.908-0.87-0.004-1.495-0.166-2.055c-0.126-0.438-0.719-0.026-1.146,0.196
				c0.357,0.264,0.653,0.446,0.904,0.68c0.155,0.143,0.308,0.372,0.014,0.547c-0.411,0.244-1.514-0.062-1.58-0.515
				c-0.175-1.197-1.27-1.205-2.01-1.641c-0.309-0.183-0.729-0.234-1.034-0.457c-0.929-0.678-1.965-1.371-2.904-2.051
				c-0.813-0.589-1.965-1.213-1.819-1.746c0.36-1.326,0.838-1.75,0.457-2.941c-0.139-0.436,0.476-1.188,0.662-1.379
				c0.262-0.266,0.226-0.451-0.103-0.86c-0.494-0.622,0.024-0.785,0.268-1.101c0.148-0.195-0.231-0.961,0.27-0.823
				c0.698,0.192,3.245,0.93,3.783,1.551c0.75,0.863,1.097,1.597,2.201,2.311c0.667,0.431,1.268,1.432,1.365,2.584
				c0.018,0.209,0.526,1.377,0.646,1.561c0.99,1.529,0.385,1.603,1.117,3.232c0.189,0.422,0.012,0.742,0.147,1.182
				c0.181,0.58,0.327,1.067,0.218,1.634c-0.078,0.396-0.296,1.178-0.069,1.557c0.646,1.075-0.028,2.226-0.077,3.383
				c-0.021,0.525,2.145,0.894,2.667,0.898c0.646,0.005,1.326,0.244,1.936-0.181c0.137-0.095,0.374-0.178,0.403-0.02
				c0.139,0.729,0.818,0.673,1.259,0.807"/>
			<g>
				<g>
					<path fill="#020202" d="M50.909,74.352c0.09,0.021,0.618,0.446,0.792,0.202c0.38-0.533,0.179-1.179,0.435-2.123
						c0.159-0.593,0.848-1.649,0.889-1.79c0.1-0.332,0.237-0.765,0.686-0.563c0.385,0.172,0.242,0.593,0.167,0.938
						c-0.064,0.303-0.44,0.429-0.366,0.83c0.114,0.619,0.136,1.294-0.226,1.841c-0.177,0.269-1.439,1.038-1.082,1.312
						c0.204,0.156,0.348-0.168,0.532-0.252c0.8-0.359,0.76,0.473,0.7,1.007c-0.129,1.151-0.906,0.731-0.813,1.889
						c0.052,0.646-0.731,1.42-1.011,0.549c-0.122-0.379-0.175-0.789-0.146-1.186c0.023-0.314,0.182-0.643,0.138-0.956
						c-0.042-0.298-0.028,0.649-0.276,0.506c-0.322-0.187-0.631-0.312-0.545-0.654c0.306-1.214-0.169-0.102,0.099-1.309"/>
				</g>
			</g>
			<path fill="#020202" d="M12.756,75.743c0.851-1.461,1.958-2.785,2.926-4.157c1.237-1.756,2.506-3.492,3.754-5.241
				c0.274-0.386,0.553-0.77,0.829-1.154c0,0,3.893-4.227,5.892-4.04c1.999,0.188,2.973,0.59,5.248,2.386
				c2.275,1.797,6.864,6.056,6.864,6.056s4.246,1.939,3.976,3.622c-0.271,1.682-0.708,2.855,0.082,3.554
				c0.789,0.698,1.526,2.164,2.109,3.228c0.583,1.061,2.243,0.926,2.672,1.944c0.43,1.02-0.329,1.577,0.5,2.82
				c0.83,1.242,2.053,0.887,4.643,3.836c2.592,2.949,4.1,2.368,5.431,2.978c1.39,0.637,1.803,1.042,2.394,1.715
				c0.591,0.675,4.146,0.573,7.165-0.135c3.021-0.708,2.621,4.426,2.819,5.457c0.104,0.536,0.316,1.234,0.353,2.604l-1.415,0.414
				c-0.494-2.229-0.575-6.748-1.418-6.742c-1.145,0.01-4.796,1.114-6.073,0.489c-1.275-0.626-2.698-0.933-3.854-2.193
				c-1.155-1.263-2.788-1.44-4.062-1.685c-1.272-0.244-2.709-1.827-3.607-2.918c-0.899-1.095-3.904-2.959-3.91-3.596
				c-0.005-0.637-0.405-2.672-0.786-2.541s-2.306-2.073-2.437-2.487c-0.13-0.415-1.92-1.883-2.441-3.278
				c-0.52-1.396,0.958-3.366-0.319-4.316c-1.277-0.949-7.163-5.415-7.933-6.172c-0.769-0.757-2.608-2.836-4.006-2.823
				c-0.611,0.005-1.655-0.825-2.347-0.655c-0.893,0.218-2.915,1.668-3.271,2.101c-0.629,0.77-3.789,5.369-3.789,5.369l-3.916,5.51
				c-0.467,0.685-0.944,1.359-1.502,1.976c-0.17,0.188-0.656,0.889-1.383,1.807l-0.802-1.462c0.501-0.758,0.744-1.003,0.896-1.235
				C12.247,76.454,12.565,76.069,12.756,75.743z"/>
			<path fill="#020202" d="M50.015,87.472c-0.282-0.741-0.431-1.883-0.202-1.978c0.351-0.145,0.642-0.372,0.33-0.785
				c-0.18-0.236-0.1-0.49-0.131-0.732c-0.065-0.485-0.271-1.182,0.337-1.304c0.415-0.084,0.641,0.58,0.776,1.044
				c0.099,0.333,0.232,0.768,0.687,0.57c0.389-0.169,0.248-0.592,0.176-0.938c-0.062-0.303-0.441-0.432-0.363-0.833
				c0.121-0.618-0.792-2.327-1.549-2.032c-0.278,0.107-1.166,1.118-0.906,2.327c0.048,0.223,0.059,0.562-0.31,0.584
				c-0.325,0.019-0.296,1.895-0.192,2.408"/>
			<path fill="#020202" d="M49.323,23.524c-0.01,0.021,0.513,0.627-0.543,1.043c-1.179,0.466-0.844,0.951-0.725,1.615
				c0.143,0.812-0.429,0.532-0.381,0.763c0.042,0.205-1.192,1.36-0.312,2.147c0.085,0.074-3.683,0.357-3.772,0.711
				c-0.066,0.266-0.327,0.226-0.489,0.174c-1.379-0.438-2.785,0.285-4.169-0.104c-0.223-0.062-0.539,0.064-0.766,0.188
				c-0.852,0.462-1.649,1.078-2.72,0.74c-0.025-0.008-0.1,0.143-0.151,0.219l0.006-0.006c-0.295-0.008-0.569,0.164-0.421,0.42
				c0.405,0.696-0.105,1.297-0.096,1.939c0.007,0.42-0.219,1.043,0.635,0.953c0.263-0.027,0.31,0.184,0.17,0.403
				c-0.085,0.136-0.277,0.22-0.17,0.517c0.411-0.23,0.703-0.019,0.99,0.325c-1.141,0.625-1.562,1.81-2.302,2.73
				c-0.026,0.032-0.019,0.094-0.025,0.143c-0.65,0.32-1.14,0.808-1.562,1.396c-0.408,0.566-0.907,0.563-1.094-0.047
				c-0.173-0.559-0.579-1.183-0.087-1.808c0.069-0.088-0.076-0.795-0.078-0.905c-0.002-0.56-1.687-1.314-2.137-1.402
				c-0.387-0.076-2.919,0.113-3.174,1.295c-0.08,0.37-0.973,0.973-0.973-0.045c-0.064-0.065,0.151-0.706,0.183-0.803
				c0.111-0.351,0.342-0.633,0.479-0.969c0.191-0.476,0.467-0.979,0.595-1.474c0.212-0.815,0.963-1.887,1.494-2.57
				c0.349-0.449,0.276-1.045,0.517-1.541c0.244-0.502,0.692-0.888,1.049-1.307c0.65-0.764,1.19-1.628,1.971-2.272
				c0.697-0.577,1.41-1.15,2.145-1.684c0.608-0.44,1.195-0.71,1.91-0.859c2.096-0.441,3.338-0.826,5.388-1.453
				c0.561-0.171,1.133-0.166,1.657-0.449c0.514-0.277,1.04-0.312,1.625-0.344c1.148-0.066,2.322-0.091,3.469,0.009
				c0.877,0.075,1.219,0.54,2.005,0.613c1.186,0.107,0.173,1.53,0.219,1.538"/>
			<path fill="#020202" d="M25.598,61.734c0,0,0.381,5.914,0.381,5.917c-0.002,0.104-1.952,0.534-2.158,0.637
				c-1.405,0.691-2.388,2.141-3.184,3.437l-1.717,2.794l-2.003,3.052l-2.479,3.854c-0.029,0.13-0.347,0.354-0.666,0.954l0.52,0.749
				c0.29-0.265,0.177-0.401,0.24-0.502c0.856-1.336,1.906-2.862,2.751-4.206c1.326-2.111,2.618-4.276,4.035-6.327
				c0.838-1.215,1.562-2.525,2.959-3.229c1.202-0.604,2.629-0.554,3.926-0.375c2.891,0.397,5.404,1.38,7.794,3.051
				c0.605,0.424,1.259,0.803,1.762,1.345c1.487,1.604,1.292,1.259,2.145,3.063l0.954,1.336c0-2.107-0.765-2.91-2.167-4.434
				c-1.413-1.531-3.429-2.729-5.342-3.541c-1.728-0.73-3.538-1.392-5.438-1.506c-0.129-0.008-1.191,0.008-1.216-0.152l-0.524-5.916
				H25.598z"/>
			<path fill="#020202" d="M78.717,87.398c1.563,1.149,2.066,3.561,2.64,5.148c0.227,0.625,0.835,1.8,0.805,2.63l-1.826,1.38
				c0.043-0.166-0.306-3.158-0.692-4.03c-0.45-1.014-2.476-4.002-2.793-5.032c-0.142-0.456,0.231-0.034,0.874-0.49
				C77.914,87.105,78.558,87.281,78.717,87.398z"/>
			<path fill="#020202" d="M68.907,92.008c0.042,0.002,1.818-0.815,1.915-1.166c0.208-0.759,0.768-1.401,0.873-1.864
				c0.254-1.11-0.07-0.924,0.034-1.958c0.066-0.67,0.644-1.653,1.061-1.631c0.99,0.056,3.387-2.771,3.796-2.628
				c0.351,0.123,1.182-0.054,1.346-0.38c0.255-0.508,0.7,0.587,0.253,1.312c-0.494,0.805-0.146,1.62-0.363,2.407
				c-0.121,0.438,1.312,0.923,1.872,1.064c0.53,0.135,1.074,0.075,1.325-0.465c0.291-0.626,0.527-0.605,1.053-0.217
				c1.068,0.794,2.053,0.263,2.767,0.227c0.701-0.036,1.438-0.038,1.992-0.705c0.343-0.414,0.86-0.832,1.454-0.761
				c0.746,0.09,1.052-0.264,1.227-0.882c0.064-0.189,0.13-0.381,0.195-0.57c0.057-0.057,0.112-0.111,0.167-0.167
				c0.549-0.292,1.396-3.439,0.731-3.54c0.038-0.26,0.014-5.627,0.052-5.887c0.115,0.052,1.636,0.736,1.914,0.819
				c1.38,0.409,4.136,0.456,3.024,0.85c-0.479,0.168,2.117,1.608,1.942,2.33c0.218,0.105-3.12,4.98-3.393,5.425
				c-0.381,0.62-5.617,6.904-5.979,6.685c-0.455-0.275-1.402-1.597-2.009-1.518c-0.313,0.041-0.541,0.315-0.411,0.722
				c0.062,0.191,0.284,0.369,0.09,0.615c-0.713,0.096-1.233-1.043-2.057-0.311c-0.672,0.601-0.272,1.493-0.692,2.456
				c-0.396-1.535-1.154-2.515-2.205-3.335c-0.468-0.367-0.841-0.357-1.133-0.038c-0.366,0.402-0.122,1.302-0.217,1.907
				c-0.371,0.052-1.59-1.898-2.367-3.228c-0.43-0.735-2.377-1.123-2.62-1.084c-0.243,0.038-2.097,1.195-2.534,2.294
				c-0.576,1.438-0.663,2.425-1.044,2.318"/>
			<path fill="#020202" d="M43.17,64.939c0.029,0.561,0.643,0.168,0.246,0.461c-0.393,0.291,0.011,1.789,0.705,1.98
				c0.16,0.043,0.89,0.812,1.223,1.493c0.391,0.804,0.25,1.655,0.293,1.825c0.161,0.629-1.047,1.556-1.314,2.197
				c-0.093,0.003-2.007-0.236-2.089-0.279c-0.131-0.07-0.191-3.44-0.219-3.613c-0.267-0.813-0.479-1.612-0.389-2.479
				c0.052-0.486,0.16-0.721,0.429-1.138C42.151,65.233,43.162,64.777,43.17,64.939z"/>
			<path fill="#020202" d="M51.143,59.29c1.255-1.157,1.888-3.727,1.895-5.492c0.003-0.833,0.458-1.593-0.044-2.368
				c-0.029-0.045,0.031-0.19,0.091-0.239c0.292-0.234,0.701-0.475,0.407-0.895c-0.24-0.341,0.405-2.041,0.61-3.041
				c0.075-0.366-0.092-0.424-0.306-0.62c-0.495-0.457-3.339-0.437-3.937-0.595c-1.034-0.274-1.316,0.11-2.054,0.065
				c-0.346-0.021-0.572,1.034-0.706,1.9c-0.104,0.666,0.042,1.143,0.04,1.412c-0.002,0.615,0.108,1.188,0.341,1.751
				c0.073,0.177-0.011,0.449-0.22,0.502c-0.202,0.05-0.182-0.027-0.296-0.188c-0.178-0.251-0.259-0.906-0.551-1.044
				c-0.398-0.188-0.3,1.446-0.264,1.889c0.078,0.954-0.015,1.233,0.066,2.181c0.013,0.151,0.055,0.82-0.171,1.046
				c-0.683,0.682-1.536,0.798-2.332,0.174c0.182-0.488,0.475-0.054,0.709-0.075c0.28-0.023,0.51-0.084,0.7-0.338
				c-0.897-0.509-1.622,0.021-2.639,0.189c0.402,0.131,0.55,0.179,0.697,0.227c-0.503,0.522-1.214,0.523-1.531,0.038
				c-0.635-0.968-1.427-1.629-2.485-2.023c-0.178-0.067-0.395-0.184-0.316-0.399c0.1-0.279,0.381-0.194,0.569-0.116
				c0.735,0.305,1.392,0.746,1.993,1.26c0.224,0.19,0.416,0.382,0.733,0.33c0.649-0.104,1.298-0.221,1.95-0.311
				c0.278-0.039,0.695-0.697,0.747-0.993c0.143-0.823-0.004-0.896-0.045-1.898c-0.023-0.581-0.309-1.103-0.095-1.607
				c0.6-1.413,1.276-2.795,1.854-4.217c0.137-0.338,0.274-0.405,0.584-0.453c1.729-0.273,3.622-0.562,5.187-0.014
				c0.269,0.093,1.73,0.092,1.944-0.165c0.178-0.217,0.414-0.525,0.229-0.704c-0.567-0.551,0.433-1.095,0.521-1.642
				c0.077-0.479,0.381-1.688,0.434-2.17c0.396,0.101,0.949-2.111,0.28-2.169l0.012-0.179c0.143-0.644-0.378-0.906-0.177-1.584
				c0.392-1.322-1.536-0.93-1.324-1.738c0.038-0.144-0.108-0.385-0.332-0.387c-0.101-0.001-0.2,0.138-0.305,0.205
				c-0.687,0.443-1.369,0.968-2.013-0.071c-0.071-0.114-0.268-0.173-0.416-0.214c-0.706-0.193-1.383-0.068-2.099,0.01
				c-0.533,0.059-1.043-0.919-1.867-1.008c-0.862-0.092-0.969,0.07-1.9-0.293c-0.125-0.24-0.109-0.359,0.178-0.601
				c-0.187-0.461-0.492-0.04-0.76-0.149c-1.035-0.424-1.913-1.263-3.276-0.534c-1.14,0.608-1.823,0.401-2.301,1.646
				c-0.168,0.438-0.07,0.953,0.402,0.962c0.221,0.005,0.609,0.017,0.614,0.228c0.006,0.215-0.225,0.271-0.425,0.279
				c-0.476,0.02-0.969,0.58-0.885,0.677c0.662,0.762,0.052,0.831-0.114,1.018c-1.817-0.145-2.708,0.38-3.458,1.842
				c-0.198,0.386,0.132,0.711-0.054,0.977c-0.695,0.994,0.875,1.245,1.328,1.351c1.604,0.367,3.12,0.934,4.609,1.614
				c0.475,0.217,0.844,0.522,1.25,0.814c0.557,0.4,0.119,1.061,0.036,1.07c-0.813,0.081-3.146-1.468-3.687-1.871
				c-0.405-0.307-2.548-0.738-2.975-0.999c-0.739-0.456-2.631,1.757-2.072,0.354c-0.541,0.155-1.696,0.078-1.977,0.495
				c-0.522,0.778-0.962,3.448-1.181,2.895c-0.197-0.499,0.292-3.165,0.694-3.822c0.657-1.076,0.596-1.703,1.384-2.64
				c0.603-0.717,0.948-1.606,1.707-2.231c0.292-0.24,0.581-0.517,1.175-0.871c-0.697,0.106-1.023-0.756-1.162-1.271
				c-0.151-0.562-0.626-0.02-1.028-0.031c-0.284-0.928-0.335-1.853,0.133-2.752c0.112-0.219,0.133-0.388,0.036-0.618
				c-0.362-0.87,0.139-1.507,1.093-1.28c0.707,0.168,1.44-0.041,2.121,0.256c0.167,0.072,0.384-0.001,0.39-0.153
				c0.074-1.765,1.463-1.076,2.368-1.283c0.053-0.014,0.128,0.018,0.179,0.05c0.953,0.597,1.912,0.575,2.934,0.142
				c0.444-0.188,0.976-0.204,1.456,0.044c0.394,0.202,0.685-0.036,0.911-0.294c0.643-0.726,1.409-0.646,1.938,0.212
				c0.15,0.244,0.167,0.485,0.5,0.399c0.534-0.138,0.814-0.166,0.987-0.815c0.21-0.794,0.595-1.5,1.117-2.079
				c0.421-0.465,0.021-0.748,0.235-1.271c0.419,0.41,0.629,0.802,0.381,1.336c-0.146,0.314-0.174,0.68-0.34,0.93
				c-0.831,1.255,0.143,2.514,0.103,3.764c-0.007,0.209,0.565,0.209,0.723,0.24c0.306,0.06,0.681,0.09,0.715,0.481
				c0.031,0.355-0.313,0.534-0.546,0.734c-0.182,0.153-0.42,0.243-0.646,0.367c0.976,0.813,3.81,0.553,4.662,0.896l-0.007-0.006
				c0.984,0.519,1.62,1.172,2.271,2.154c0.223,0.336,0.45,1.918,0.333,2.346c-0.336,1.219-0.129,2.004-0.126,2.045
				c0.038,0.77-0.291,1.215-0.437,1.793c-0.187,0.744-0.388,2.166-0.516,2.926c-0.115,0.685-1.086,4.185-1.12,4.629
				c-0.114,1.529-0.751,1.882-0.657,3.452c0.022,0.39-0.382,0.918-0.437,1.492c-0.065,0.684-0.57,1.363-0.683,2.029
				c-0.274,1.638-1.383,2.823-2,4.262c0,0-0.024,0.024-0.025,0.024c-0.131-0.042-0.238-0.254-0.399-0.069
				c-0.6,0.685-1.449,0.948-2.22,1.357c-1.877,0.997-3.275,1.088-3.129,1.058c2.194-0.472,3.135-0.977,4.345-2.557"/>
			<path fill="#FFFFFF" d="M71.043,63.192c-0.254,0.484-0.209,0.939,0.659,0.653c1.144-0.374,0.195-1.542-0.061-1.355
				C71.41,62.656,71.183,62.928,71.043,63.192z"/>
			<path fill="#FFFFFF" d="M53.988,61.172c-0.232,0.443-0.192,0.859,0.604,0.599c1.047-0.343,0.178-1.413-0.058-1.244
				C54.323,60.68,54.114,60.93,53.988,61.172z"/>
			<path fill="#FFD68A" d="M37.729,27.369c1.062,0.013,1.884,1.013,2.974,1.039c0.349,0.009,0.701,0.046,1.045-0.032
				c-0.579-0.669-1.201-0.492-1.878-0.855c-1.926-1.039,1.633-0.678,1.177-1.504c-0.152-0.275-0.695-0.248-0.948-0.425
				c-0.275-0.192-0.605-0.615-0.753-0.906c-0.246-0.48-0.235-0.466,0.259-0.48c0.558-0.019,2.692,0.608,3.089-0.085
				c0.272-0.483-0.597-0.428-0.622-1.011c0.788,0.475,1.662,0.247,2.447,0.555c0.168,0.063,2.132,0.333,2.575,1.295
				c-0.794-0.472-2.688-0.707-2.528-0.662c-0.021-0.008-0.38,0.166-0.254,0.396c0.216,0.397,0.996,0.965,1.104,1.071
				c0.039,0.037,0.048,0.426-0.223,0.629c-0.312,0.232-0.761,0.24-1.038,0.519c-0.425,0.426,0.138,1.066-0.082,1.596
				c-0.341,0.822-1.091,0.521-1.74,0.674c-0.257,0.062-0.431,0.29-0.687,0.339c-1.105,0.204-3.939-0.758-3.938-2.147
				C37.713,27.369,37.722,27.369,37.729,27.369z"/>
			<path fill="#020202" d="M27.411,62.559c0.12-0.639,0.227-0.467,0.595-0.902c0.681-0.806,0.867-2.131,0.854-3.154
				c-0.011-0.751-0.168-1.669,0.311-2.318c0.104,0.021,0.122,0.131,0.202,0.202c0.13,0.114,0.335,1.132,0.319,1.335
				c0.077,0.989,0.098,1.947-0.243,2.9c-0.189,0.532-0.481,1.195-0.896,1.594C28.396,62.36,27.375,62.745,27.411,62.559z"/>
			<path fill="#020202" d="M61.894,92.014c-0.041-0.018-0.665,0.093-0.695,0.063c-0.234-0.967-0.859-0.469-1.751-0.412
				c-0.654,0.041-1.251-0.176-1.844-0.378c-0.565-0.191-0.559-1.157-0.469-1.578c0.102-0.48,0.527-0.082,0.979,0.038
				c0.911,0.243,1.837,0.433,2.756,0.644c0.092,0.021,0.241,0.093,0.267,0.062c0.956-1.177,1.634-0.25,2.455-0.25
				c0.405,0,1.498-0.442,1.396,0.062c-0.101,0.495-1.229,1.051-1.653,1.044C62.544,91.296,62.711,92.074,61.894,92.014z"/>
			<path fill="#020202" d="M41.961,72.232c-0.056,0.194,1.994,0.301,2.184,0.193c0.524-0.298,1.01-1.355,1.492-1.727h0.781
				c0,0-0.397,1.524-0.399,1.532c-0.411,1.573-3.286,1.24-4.414,1.24C41.604,73.472,41.96,72.24,41.961,72.232z"/>
			<path fill="#020202" d="M35.294,63.741c0.157-0.021,0.425,0.323,0.98,0.726c0.695,0.502,1.735,1.091,2.349,1.16
				c1.186,0.134,2.909-0.234,3.941-0.796c1.62-0.881,3.104-2.205,4.879-2.72c1.182-0.341,2.23-0.903,3.219-1.668
				c0.231-0.178,1.702-2.36,1.702-2.609v1.05c-1.381,2.17-3.388,3.975-5.668,4.786c-1.804,0.642-3.449,1.908-5.233,2.538
				c-0.636,0.225-2.056,0.285-3.376-0.129c-1.026-0.321-2.186-0.923-2.672-1.612C35.251,64.233,35.332,63.988,35.294,63.741z"/>
			<path fill="#020202" d="M29.367,49.197l-1.685,0.279l-0.188,3.196l0.09,1.857c0,0,1.389,2.637,1.399,2.66
				c0.407,0.856,0.793,1.031,1.49,1.646c0.842,0.743,1.395,0.981,2.041,1.921c0.69,1.005,0.643,1.36,1.495,2.249
				c0.312,0.326,0.791,1.008,1.264,1.417c0.132,0.113,0.836,0.564,0.964,0.618c0.154,0.063,0.11-0.275,0.246-0.203
				c0.194-0.226-0.157-0.19-0.641-0.741c-0.214-0.242-0.833-0.906-1.062-1.231c-0.834-1.194-1.315-2.365-2.369-3.401
				c-1.072-1.057-1.756-1.534-2.633-2.804c-0.758-1.099-0.93-2.745-0.816-4.042C28.986,52.334,29.436,49.185,29.367,49.197z"/>
			<path fill="#020202" d="M25.398,35.623L24.3,38.605l-0.382,2.591c0,0-0.095,2.615,0,2.683c0.097,0.067,1.058,2.071,0.72,2.356
				c-0.337,0.286,0.762,2.332,0.762,2.333c0.606,1.388,0.792,2.158-0.337,3.479c-0.192,0.219-0.825,0.771-1.125,0.906
				c-0.493,0.222-0.88,0.507-1.158,0.976c-0.214,0.361-0.306,0.715-0.425,1.123c-0.105,0.359-0.141,0.813-0.343,1.133
				c1.973,0.019,4.672,0.124,6.444-0.725l-0.19-0.448l-0.191-2.477v-1.529l0.963-3.348l0.509-1.326v-1.049l1.034-1.19l2.782-3.833
				l-0.667-5.754l-4.197-1.146L25.398,35.623z"/>
			<g>
				<path fill="#FCD1BC" d="M29.436,50.465c0.048-0.869-2.413-0.351-2.578-1.515c-0.075-0.531-0.144-1.37,0.052-1.883
					c0.321-0.842-0.108-2.23-0.228-3.096c-0.125-0.916,0.145-1.75,0.422-2.607c0.228-0.713,0.41-1.547,0.982-2.071
					c0.782-0.718,1.912-1.027,2.851-0.478c0.795,0.468,0.89,1.535,0.665,2.402c-0.246,0.945-0.645,1.383-0.685,2.107
					c-0.038,0.698-0.094,1.211,0.354,0.583"/>
			</g>
			<path fill="#020202" d="M26.009,56.583l-1.233,0.906c-1.071,0.464-2.137,0.832-3.271,1.115c-0.562,0.142-1.296,0.194-1.73,0.625
				c-0.361,0.359-0.436,0.995-0.577,1.469c0.091-0.306-0.214-0.646-0.357-0.89c-0.491-0.835-0.542-2.456,0.458-2.972
				c0.898-0.463,2.011-0.229,2.972-0.211c1.056,0.02,2.077,0.113,3.127-0.044L26.009,56.583L26.009,56.583z"/>
			<path fill="#020202" d="M22.771,58.817c-0.634,0.166-1.292,0.244-1.894,0.521c-0.493,0.228-0.767,0.566-0.848,1.103
				c-0.049,0.319-0.157,0.61-0.438,0.789c-0.326,0.208-0.775,0.18-1.134,0.329c-0.543,0.23-1.215,0.589-1.582,1.068
				c-0.632,0.827-0.606,1.593-0.207,2.494c0.145-0.63,0.133-1.32,0.825-1.559c0.672-0.229,1.39-0.111,2.084-0.119
				c1.101-0.011,1.826-0.762,2.298-1.695c0.13-0.257,0.138-0.374,0.096-0.689c-0.058-0.435-0.024-0.911,0.122-1.326
				C22.17,59.512,22.54,58.877,22.771,58.817z"/>
			<path fill="#020202" d="M17.719,58.597c-0.139,0.816,0.449,1.328,0.609,2.054c0.175,0.796-0.634,0.719-1.122,0.89
				c-0.556,0.192-1.169,0.608-1.506,1.101c-0.552,0.804-0.281,1.8-0.08,2.671c-0.626-0.626-0.961-1.249-1.241-2.109
				c-0.277-0.857-0.385-1.397,0.019-2.242c0.483-1.02,1.634-0.669,2.328-1.4c0.293-0.311,0.531-0.666,0.771-1.019l0.318-0.509
				C17.813,58.031,17.719,58.597,17.719,58.597z"/>
			<path fill="#020202" d="M20.078,63.929c-0.768,0-1.838-0.192-2.438,0.389c-0.413,0.4-0.397,0.862-0.591,1.358
				c-0.313,0.803-1.352,1.053-1.75,1.776c-0.274,0.498-0.308,1.133-0.19,1.707c0.135,0.666,0.749,1.003,1.203,1.441
				c-0.225-0.504-0.595-1.03-0.327-1.58c0.163-0.334,0.494-0.54,0.832-0.664c0.542-0.196,1.161-0.213,1.628-0.591
				c0.465-0.375,0.755-0.81,0.868-1.427c0.112-0.611-0.465-1.721,0.298-2.149L20.078,63.929z"/>
			<path fill="#020202" d="M13.467,61.802c-0.053,0.24-0.003,0.982,0.078,1.218c0.194,0.572,0.351,1.2,0.751,1.687
				c0.336,0.405,1.416,0.945,1.284,1.567c-0.077,0.364-0.943,0.876-1.16,1.204c-0.27,0.408-0.437,0.656-0.417,1.152
				c0.041,1.002,0.756,1.862,1.714,2.152c-0.455,0.144-1.062,0.284-1.526,0.106c-1.135-0.434-2.129-0.849-2.396-2.126
				c-0.201-0.963,0.204-1.853,0.655-2.684c0.375-0.691,0.292-1.45,0.136-2.158C12.435,63.23,13.349,62.482,13.467,61.802z"/>
			<path fill="#020202" d="M18.388,68.323c-0.31,0.1-0.629,0.186-0.919,0.336c-0.479,0.25-0.886,0.39-0.798,1.021
				c0.029,0.213,0.159,0.418,0.229,0.625c0.278,0.833-0.647,1.193-0.964,1.792c-0.168,0.317-0.217,0.601-0.219,0.946
				c-0.003,0.333-0.159,0.008-0.057,0.32c0.046,0.141,0.197,0.403,0.184,0.553c0.036-0.384,0.239-0.171,0.418-0.522
				c0.118-0.234-0.059-0.316,0.169-0.415c0.19-0.108,0.203-0.209,0.381-0.342c0.271-0.201,0.476-1.045,0.702-1.293
				c0.25-0.275,0.593-0.453,0.531-0.796c-0.053-0.3,0.237-0.252,0.071-0.508c-0.24-0.371-0.431-0.76-0.256-1.2
				C17.951,68.616,18.205,68.475,18.388,68.323z"/>
			<path fill="#020202" d="M11.266,68.633c0.097,0.722,0.299,1.352,0.806,1.896c0.345,0.371,0.977,0.771,1.46,0.926
				c0.483,0.151,1.657-0.028,1.814,0.051c0.236,0.121-0.583,0.729-0.745,0.877c-0.237,0.22-0.487,0.659-0.494,0.982
				c-0.005,0.293,0.079,0.61,0.199,0.876c0.047,0.104,0.185,0.46,0.297,0.496c0.048,0.018,0.207,0.479,0.207,0.479l-1.732,1.891
				l-0.842,0.268c-0.036-0.038-0.361-0.472-0.488-0.915c-0.132-0.464-0.065-0.941-0.063-1.003c0.008-0.27,0.02-0.538,0.052-0.807
				c0.09-0.74,0.501-1.438,0.468-2.195c-0.035-0.814-0.684-1.286-1.01-1.982c-0.163-0.35-0.218-0.747-0.204-1.131
				c0.007-0.188,0.025-0.384,0.072-0.566c0.035-0.136,0.177-0.302,0.155-0.44L11.266,68.633z"/>
			<path fill="#020202" d="M46.397,57.43c0.852-0.129,1.607,1.665,0.998,1.653C47.459,59.084,46.497,57.583,46.397,57.43z"/>
			<path fill="#020202" d="M33.662,55.63c-0.041-0.861,2.395-2,2.32-1.396C35.99,54.17,33.823,55.546,33.662,55.63z"/>
			<path fill="#FFFFFF" d="M49.756,48.097c-0.175-0.073-0.258,0.062-0.326,0.22c-0.064,0.149,0.642,0.405,0.454-0.086
				C49.856,48.163,49.812,48.12,49.756,48.097z"/>
			<path fill="#FFFFFF" d="M38.332,45.071c-0.175-0.071-0.259,0.062-0.327,0.222c-0.063,0.147,0.642,0.403,0.454-0.086
				C38.434,45.137,38.388,45.093,38.332,45.071z"/>
			<path fill="#FFD68A" d="M33.791,38.391c-0.092-0.508,0.594-1.988,1.025-2.189c1.226-0.573,1.438-1.413,1.462-1.447
				c0.182-0.271,0.42-0.421,0.675-0.529c-0.393-0.091-0.804-0.157-1.306-0.506c-0.714-0.495-0.864-0.692-0.886-1.308
				c-0.037-1.039-0.911-1.22-1.646-1.415c-0.821-0.221-1.417,0.421-1.029,1.173c0.948,1.838-2.326,0.071-1.42,1.781
				c0.021,0.039-0.395,0.417-0.509,0.396c-1.789-0.334-0.937,1.164-1.069,1.777c-0.104,0.479,0.647,0.621,1.116,0.547
				c0.104-0.498-0.037-0.498-0.233-0.957c-0.122-0.283-0.186-0.631,0.325-0.439c0.717,0.267,2.03,1.729,1.834,2.153
				C31.616,38.552,34.061,39.874,33.791,38.391z"/>
			<g>
				<path fill="#020202" d="M67.115,100.017c-0.299,0.375-0.227,1.219-0.731,1.146c-0.385-0.056-0.303-0.864-0.374-1.353
					c-0.227-1.518-0.45-3.036-0.665-4.556c-0.032-0.224-0.047-0.444-0.251-0.586c-0.161-0.111-0.34-0.197-0.528-0.093
					c-0.187,0.103-1.596,0.273-1.596,0.423c-0.008,1.638,0.376,3.205,0.374,4.847c-0.002,1.153,0.284,1.979,0.341,3.133
					c0,0-2.376,0.583-2.361,0.395c0.051-0.643-0.111-1.256,0.052-1.902c0.314-1.248,0.346-2.493,0.081-3.758
					c-0.292-1.397-0.675-1.608-1.881-0.966c-0.072-0.411,0.155-0.739,0.366-1.031c0.739-1.021,1.308-1.033,2.363-1.801
					c1.53-0.569,2.319-1.457,3.483-0.197c0.439,0.477,0.33,1.068,0.481,1.598c0.369,1.287,1.185,2.521,0.614,3.955
					C66.763,99.577,66.855,99.825,67.115,100.017z"/>
				<path fill="#020202" d="M44.437,81.635c0.767,0.22,1.646,0.821,1.995,1.748c-0.042,0.283,0.007,0.628-0.141,0.836
					c-0.596,0.854,0.804,1.734,0.662,1.643c1.807,1.161,3.045,1.728,3.554,3.249c-0.596-0.05-0.55,0.559-0.558,0.947
					c-0.005,0.243,0.043,0.602-0.288,0.604c-0.318,0.005-0.442-0.316-0.464-0.622c-0.021-0.316,0.009-0.642-0.052-0.949
					c-0.17-0.878-0.533-1.043-1.315-0.607c-0.226,0.125-0.431,0.32-0.686,0.128c-0.275-0.209-0.111-0.516,0.002-0.688
					c0.318-0.485,0.166-0.707-0.312-0.929c-0.525-0.243-0.736-1.056-1.566-0.807c-0.233,0.07-0.307-0.289-0.232-0.511
					c0.079-0.236,0.216-0.455,0.335-0.678c0.718-1.339,0.634-2.023-0.648-2.812C44.601,82.111,44.53,81.757,44.437,81.635z"/>
				<path fill="#020202" d="M41.387,78.043c1.32,0.574,2.082,1.709,2.633,2.927c0.338,0.748,0.706,1.332,1.441,1.672
					c-0.466,0.071-0.844-0.235-1.281-0.306c-0.298-0.047-0.557-0.122-0.765,0.172c-0.507,0.715-0.738,0.179-0.848-0.245
					c-0.133-0.517-0.217-1.079-0.164-1.604C42.513,79.588,42.09,78.773,41.387,78.043z"/>
			</g>
			<path fill="#020202" d="M63.146,94.961c-0.406,0.832-1.151,0.678-1.828,0.57c-0.867-0.138-1.356,0.155-1.31,1.046
				c0.051,0.986-0.36,0.925-0.998,0.577c-0.956-0.519-1.667-1.35-2.502-2.021c-0.395-0.316-0.591-0.882-0.43-1.482
				c0.197-0.734-0.185-1.031-0.873-0.928c-0.825,0.125-1.443-0.015-1.67-0.94c-0.04-0.161-0.232-0.296-0.375-0.419
				c-0.166-0.145-0.365-0.325-0.581-0.125c-0.186,0.175,0.004,0.359,0.098,0.506c0.34,0.529,0.522,1.114,0.635,1.739
				c-0.962-1.15-1.702-2.432-2.292-3.805c0.376-0.05,0.763-0.014,1.129-0.146c0.185,0.007,0.362,0.05,0.539,0.095
				c0.638,0.187,1.294,1.135,1.961,1.357c1.864,0.625,2.757,1.171,4.084,2.379c0.197,0.181,0.401,0.405,0.513,0.676
				c0.197,0.126,0.395,0.251,0.591,0.376C60.805,95.419,61.953,95.329,63.146,94.961z"/>
			<path fill="#020202" d="M18.046,76.162c0.19,1.152-0.361,2.638-0.5,3.752c-0.125,0.999-0.014,1.99,0.004,2.994
				c0.137,1.071,0.454,2.146,1.102,3.066c0.125,0.178,0.48,0.396,0.221,0.574c-0.23,0.158-0.4-0.028-0.575-0.18
				c-1.109-0.958-1.528-2.31-1.911-3.624c-0.433-1.486-0.36-2.994,0.285-4.467C17.081,77.349,18.046,76.162,18.046,76.162z"/>
			<path fill="#020202" d="M39.473,93.298c0.906-0.998,1.917-1.858,2.915-2.734c1.091-0.567,1.983-1.494,3-2.199
				c0.664-0.364,1.196-0.541,1.977-0.683c0.29-0.073,1.235,0.302,1.235,0.302c-1.278,1.041-2.224,2.854-2.666,4.142
				c-0.376,1.092-1.321,2.035-1.931,2.952c-0.546,0.82-0.864,1.656-1.305,2.544c-0.507,0.918-0.387,0.848-0.311,1.933
				c0.015,0.211,0.042,0.473-0.237,0.517c-0.247,0.039-0.483-0.578-0.547-0.786c-0.038-1.884,0.274-2.03,0.376-2.47
				c0.342-1.488,1.078-2.778,2.234-3.79c0.731-0.641,1.271-1.464,1.39-2.524c0.08-0.717-0.193-0.964-0.762-0.622
				c-1.318,0.789-2.591,1.677-3.812,2.648C39.681,93.598,38.66,94.45,39.473,93.298z"/>
			<path fill="#020202" d="M56.664,103.807c-0.294-0.269-0.585-0.539-0.874-0.812c-1.042-0.989-1.934-2.135-2.893-3.208
				c-0.778-1.156-1.391-2.404-2.022-3.643c-0.293-1.294-1.002-2.422-1.457-3.652c-0.195-0.79-0.238-1.405-0.179-2.289
				c0.001-0.331,0.628-1.316,0.628-1.316c0.128,1.732-0.036,2.245,0.162,2.926c0.46,1.577,1.816,4.639,2.487,6.138
				c0.738,1.651,1.838,3.054,3.093,4.35c0.303,0.314,0.698,0.407,1.03,0.615c0.396,0.246,0.758,0.53,1.105,0.831L56.664,103.807z"/>
		</g>
	</g>
	<g>
		<path fill="none" stroke="#FFFFFF" stroke-width="3.9937" stroke-miterlimit="10" d="M0.863,54.331
			c0-29.713,24.087-53.798,53.799-53.798c29.712,0,53.799,24.085,53.799,53.798c0,29.712-24.087,53.8-53.8,53.8
			C24.949,108.131,0.863,84.044,0.863,54.331"/>
		<path fill="none" stroke="#FFFFFF" stroke-width="3.271" stroke-miterlimit="10" d="M-1.166,54.452
			c0-30.876,25.03-55.904,55.904-55.904s55.904,25.029,55.904,55.904c0,30.875-25.03,55.902-55.904,55.902
			C23.863,110.355-1.166,85.326-1.166,54.452"/>
	</g>
	<g>
		<path fill="none" stroke="#FFFFFF" stroke-width="3.7794" stroke-miterlimit="10" d="M3.754,54.337
			c0-28.118,22.795-50.911,50.912-50.911c28.118,0,50.912,22.793,50.912,50.911S82.783,105.25,54.665,105.25
			C26.548,105.25,3.754,82.456,3.754,54.337"/>
		<path fill="none" stroke="#231F20" stroke-width="3.0955" stroke-miterlimit="10" d="M1.834,54.452
			c0-29.22,23.687-52.904,52.904-52.904s52.904,23.686,52.904,52.904c0,29.218-23.687,52.902-52.904,52.902
			C25.52,107.355,1.834,83.669,1.834,54.452"/>
	</g>
</g>
</svg>
